G04 #@! TF.GenerationSoftware,KiCad,Pcbnew,(5.1.9)-1*
G04 #@! TF.CreationDate,2021-03-16T21:00:22+08:00*
G04 #@! TF.ProjectId,mcu,6d63752e-6b69-4636-9164-5f7063625858,v1.0*
G04 #@! TF.SameCoordinates,Original*
G04 #@! TF.FileFunction,Soldermask,Bot*
G04 #@! TF.FilePolarity,Negative*
%FSLAX46Y46*%
G04 Gerber Fmt 4.6, Leading zero omitted, Abs format (unit mm)*
G04 Created by KiCad (PCBNEW (5.1.9)-1) date 2021-03-16 21:00:22*
%MOMM*%
%LPD*%
G01*
G04 APERTURE LIST*
%ADD10C,1.208000*%
%ADD11O,1.500000X1.500000*%
%ADD12C,1.500000*%
%ADD13O,1.800000X1.800000*%
%ADD14O,1.800000X1.200000*%
G04 APERTURE END LIST*
G36*
G01*
X68984296Y-74834042D02*
X68984296Y-74834042D01*
G75*
G02*
X69443916Y-74037958I627852J168232D01*
G01*
X70216656Y-73830902D01*
G75*
G02*
X71012740Y-74290522I168232J-627852D01*
G01*
X71012740Y-74290522D01*
G75*
G02*
X70553120Y-75086606I-627852J-168232D01*
G01*
X69780380Y-75293662D01*
G75*
G02*
X68984296Y-74834042I-168232J627852D01*
G01*
G37*
G36*
G01*
X64009778Y-76166960D02*
X64009778Y-76166960D01*
G75*
G02*
X64469398Y-75370876I627852J168232D01*
G01*
X65242138Y-75163820D01*
G75*
G02*
X66038222Y-75623440I168232J-627852D01*
G01*
X66038222Y-75623440D01*
G75*
G02*
X65578602Y-76419524I-627852J-168232D01*
G01*
X64805862Y-76626580D01*
G75*
G02*
X64009778Y-76166960I-168232J627852D01*
G01*
G37*
G36*
G01*
X59035260Y-77499878D02*
X59035260Y-77499878D01*
G75*
G02*
X59494880Y-76703794I627852J168232D01*
G01*
X60267620Y-76496738D01*
G75*
G02*
X61063704Y-76956358I168232J-627852D01*
G01*
X61063704Y-76956358D01*
G75*
G02*
X60604084Y-77752442I-627852J-168232D01*
G01*
X59831344Y-77959498D01*
G75*
G02*
X59035260Y-77499878I-168232J627852D01*
G01*
G37*
G36*
G01*
X51610696Y-74834042D02*
X51610696Y-74834042D01*
G75*
G02*
X52070316Y-74037958I627852J168232D01*
G01*
X52843056Y-73830902D01*
G75*
G02*
X53639140Y-74290522I168232J-627852D01*
G01*
X53639140Y-74290522D01*
G75*
G02*
X53179520Y-75086606I-627852J-168232D01*
G01*
X52406780Y-75293662D01*
G75*
G02*
X51610696Y-74834042I-168232J627852D01*
G01*
G37*
G36*
G01*
X46636178Y-76166960D02*
X46636178Y-76166960D01*
G75*
G02*
X47095798Y-75370876I627852J168232D01*
G01*
X47868538Y-75163820D01*
G75*
G02*
X48664622Y-75623440I168232J-627852D01*
G01*
X48664622Y-75623440D01*
G75*
G02*
X48205002Y-76419524I-627852J-168232D01*
G01*
X47432262Y-76626580D01*
G75*
G02*
X46636178Y-76166960I-168232J627852D01*
G01*
G37*
G36*
G01*
X41661660Y-77499878D02*
X41661660Y-77499878D01*
G75*
G02*
X42121280Y-76703794I627852J168232D01*
G01*
X42894020Y-76496738D01*
G75*
G02*
X43690104Y-76956358I168232J-627852D01*
G01*
X43690104Y-76956358D01*
G75*
G02*
X43230484Y-77752442I-627852J-168232D01*
G01*
X42457744Y-77959498D01*
G75*
G02*
X41661660Y-77499878I-168232J627852D01*
G01*
G37*
D10*
X93926920Y-71969760D03*
X92326920Y-71969760D03*
D11*
X116702400Y-72557200D03*
D12*
X114162400Y-72557200D03*
D13*
X119547200Y-79669200D03*
G36*
G01*
X118647200Y-77979200D02*
X118647200Y-76279200D01*
G75*
G02*
X118697200Y-76229200I50000J0D01*
G01*
X120397200Y-76229200D01*
G75*
G02*
X120447200Y-76279200I0J-50000D01*
G01*
X120447200Y-77979200D01*
G75*
G02*
X120397200Y-78029200I-50000J0D01*
G01*
X118697200Y-78029200D01*
G75*
G02*
X118647200Y-77979200I0J50000D01*
G01*
G37*
X103951600Y-94604400D03*
G36*
G01*
X103051600Y-92914400D02*
X103051600Y-91214400D01*
G75*
G02*
X103101600Y-91164400I50000J0D01*
G01*
X104801600Y-91164400D01*
G75*
G02*
X104851600Y-91214400I0J-50000D01*
G01*
X104851600Y-92914400D01*
G75*
G02*
X104801600Y-92964400I-50000J0D01*
G01*
X103101600Y-92964400D01*
G75*
G02*
X103051600Y-92914400I0J50000D01*
G01*
G37*
X35778000Y-79161200D03*
X35778000Y-81701200D03*
X35778000Y-84241200D03*
X35778000Y-86781200D03*
G36*
G01*
X36678000Y-88471200D02*
X36678000Y-90171200D01*
G75*
G02*
X36628000Y-90221200I-50000J0D01*
G01*
X34928000Y-90221200D01*
G75*
G02*
X34878000Y-90171200I0J50000D01*
G01*
X34878000Y-88471200D01*
G75*
G02*
X34928000Y-88421200I50000J0D01*
G01*
X36628000Y-88421200D01*
G75*
G02*
X36678000Y-88471200I0J-50000D01*
G01*
G37*
D14*
X126497600Y-83985200D03*
X126497600Y-92625200D03*
X122697600Y-92625200D03*
X122697600Y-83985200D03*
M02*
