G04 #@! TF.GenerationSoftware,KiCad,Pcbnew,(5.1.9)-1*
G04 #@! TF.CreationDate,2021-03-16T21:00:22+08:00*
G04 #@! TF.ProjectId,mcu,6d63752e-6b69-4636-9164-5f7063625858,v1.0*
G04 #@! TF.SameCoordinates,Original*
G04 #@! TF.FileFunction,Soldermask,Top*
G04 #@! TF.FilePolarity,Negative*
%FSLAX46Y46*%
G04 Gerber Fmt 4.6, Leading zero omitted, Abs format (unit mm)*
G04 Created by KiCad (PCBNEW (5.1.9)-1) date 2021-03-16 21:00:22*
%MOMM*%
%LPD*%
G01*
G04 APERTURE LIST*
%ADD10C,1.208000*%
%ADD11O,1.500000X1.500000*%
%ADD12C,1.500000*%
%ADD13O,1.800000X1.800000*%
%ADD14O,1.800000X1.200000*%
G04 APERTURE END LIST*
G36*
G01*
X75026000Y-93058612D02*
X75026000Y-92107388D01*
G75*
G02*
X75300388Y-91833000I274388J0D01*
G01*
X75876612Y-91833000D01*
G75*
G02*
X76151000Y-92107388I0J-274388D01*
G01*
X76151000Y-93058612D01*
G75*
G02*
X75876612Y-93333000I-274388J0D01*
G01*
X75300388Y-93333000D01*
G75*
G02*
X75026000Y-93058612I0J274388D01*
G01*
G37*
G36*
G01*
X73201000Y-93058612D02*
X73201000Y-92107388D01*
G75*
G02*
X73475388Y-91833000I274388J0D01*
G01*
X74051612Y-91833000D01*
G75*
G02*
X74326000Y-92107388I0J-274388D01*
G01*
X74326000Y-93058612D01*
G75*
G02*
X74051612Y-93333000I-274388J0D01*
G01*
X73475388Y-93333000D01*
G75*
G02*
X73201000Y-93058612I0J274388D01*
G01*
G37*
G36*
G01*
X77963000Y-93453000D02*
X79263000Y-93453000D01*
G75*
G02*
X79463000Y-93653000I0J-200000D01*
G01*
X79463000Y-94053000D01*
G75*
G02*
X79263000Y-94253000I-200000J0D01*
G01*
X77963000Y-94253000D01*
G75*
G02*
X77763000Y-94053000I0J200000D01*
G01*
X77763000Y-93653000D01*
G75*
G02*
X77963000Y-93453000I200000J0D01*
G01*
G37*
G36*
G01*
X79000500Y-94453000D02*
X79225500Y-94453000D01*
G75*
G02*
X79338000Y-94565500I0J-112500D01*
G01*
X79338000Y-94990500D01*
G75*
G02*
X79225500Y-95103000I-112500J0D01*
G01*
X79000500Y-95103000D01*
G75*
G02*
X78888000Y-94990500I0J112500D01*
G01*
X78888000Y-94565500D01*
G75*
G02*
X79000500Y-94453000I112500J0D01*
G01*
G37*
G36*
G01*
X78000500Y-94453000D02*
X78225500Y-94453000D01*
G75*
G02*
X78338000Y-94565500I0J-112500D01*
G01*
X78338000Y-94990500D01*
G75*
G02*
X78225500Y-95103000I-112500J0D01*
G01*
X78000500Y-95103000D01*
G75*
G02*
X77888000Y-94990500I0J112500D01*
G01*
X77888000Y-94565500D01*
G75*
G02*
X78000500Y-94453000I112500J0D01*
G01*
G37*
G36*
G01*
X78000500Y-92603000D02*
X78225500Y-92603000D01*
G75*
G02*
X78338000Y-92715500I0J-112500D01*
G01*
X78338000Y-93140500D01*
G75*
G02*
X78225500Y-93253000I-112500J0D01*
G01*
X78000500Y-93253000D01*
G75*
G02*
X77888000Y-93140500I0J112500D01*
G01*
X77888000Y-92715500D01*
G75*
G02*
X78000500Y-92603000I112500J0D01*
G01*
G37*
G36*
G01*
X79000500Y-92603000D02*
X79225500Y-92603000D01*
G75*
G02*
X79338000Y-92715500I0J-112500D01*
G01*
X79338000Y-93140500D01*
G75*
G02*
X79225500Y-93253000I-112500J0D01*
G01*
X79000500Y-93253000D01*
G75*
G02*
X78888000Y-93140500I0J112500D01*
G01*
X78888000Y-92715500D01*
G75*
G02*
X79000500Y-92603000I112500J0D01*
G01*
G37*
G36*
G01*
X68984296Y-74834042D02*
X68984296Y-74834042D01*
G75*
G02*
X69443916Y-74037958I627852J168232D01*
G01*
X70216656Y-73830902D01*
G75*
G02*
X71012740Y-74290522I168232J-627852D01*
G01*
X71012740Y-74290522D01*
G75*
G02*
X70553120Y-75086606I-627852J-168232D01*
G01*
X69780380Y-75293662D01*
G75*
G02*
X68984296Y-74834042I-168232J627852D01*
G01*
G37*
G36*
G01*
X64009778Y-76166960D02*
X64009778Y-76166960D01*
G75*
G02*
X64469398Y-75370876I627852J168232D01*
G01*
X65242138Y-75163820D01*
G75*
G02*
X66038222Y-75623440I168232J-627852D01*
G01*
X66038222Y-75623440D01*
G75*
G02*
X65578602Y-76419524I-627852J-168232D01*
G01*
X64805862Y-76626580D01*
G75*
G02*
X64009778Y-76166960I-168232J627852D01*
G01*
G37*
G36*
G01*
X59035260Y-77499878D02*
X59035260Y-77499878D01*
G75*
G02*
X59494880Y-76703794I627852J168232D01*
G01*
X60267620Y-76496738D01*
G75*
G02*
X61063704Y-76956358I168232J-627852D01*
G01*
X61063704Y-76956358D01*
G75*
G02*
X60604084Y-77752442I-627852J-168232D01*
G01*
X59831344Y-77959498D01*
G75*
G02*
X59035260Y-77499878I-168232J627852D01*
G01*
G37*
G36*
G01*
X56645600Y-79702400D02*
X57745600Y-79702400D01*
G75*
G02*
X57795600Y-79752400I0J-50000D01*
G01*
X57795600Y-82352400D01*
G75*
G02*
X57745600Y-82402400I-50000J0D01*
G01*
X56645600Y-82402400D01*
G75*
G02*
X56595600Y-82352400I0J50000D01*
G01*
X56595600Y-79752400D01*
G75*
G02*
X56645600Y-79702400I50000J0D01*
G01*
G37*
G36*
G01*
X54645600Y-79702400D02*
X55745600Y-79702400D01*
G75*
G02*
X55795600Y-79752400I0J-50000D01*
G01*
X55795600Y-82352400D01*
G75*
G02*
X55745600Y-82402400I-50000J0D01*
G01*
X54645600Y-82402400D01*
G75*
G02*
X54595600Y-82352400I0J50000D01*
G01*
X54595600Y-79752400D01*
G75*
G02*
X54645600Y-79702400I50000J0D01*
G01*
G37*
G36*
G01*
X52645600Y-79702400D02*
X53745600Y-79702400D01*
G75*
G02*
X53795600Y-79752400I0J-50000D01*
G01*
X53795600Y-82352400D01*
G75*
G02*
X53745600Y-82402400I-50000J0D01*
G01*
X52645600Y-82402400D01*
G75*
G02*
X52595600Y-82352400I0J50000D01*
G01*
X52595600Y-79752400D01*
G75*
G02*
X52645600Y-79702400I50000J0D01*
G01*
G37*
G36*
G01*
X50645600Y-79702400D02*
X51745600Y-79702400D01*
G75*
G02*
X51795600Y-79752400I0J-50000D01*
G01*
X51795600Y-82352400D01*
G75*
G02*
X51745600Y-82402400I-50000J0D01*
G01*
X50645600Y-82402400D01*
G75*
G02*
X50595600Y-82352400I0J50000D01*
G01*
X50595600Y-79752400D01*
G75*
G02*
X50645600Y-79702400I50000J0D01*
G01*
G37*
G36*
G01*
X48645600Y-79702400D02*
X49745600Y-79702400D01*
G75*
G02*
X49795600Y-79752400I0J-50000D01*
G01*
X49795600Y-82352400D01*
G75*
G02*
X49745600Y-82402400I-50000J0D01*
G01*
X48645600Y-82402400D01*
G75*
G02*
X48595600Y-82352400I0J50000D01*
G01*
X48595600Y-79752400D01*
G75*
G02*
X48645600Y-79702400I50000J0D01*
G01*
G37*
G36*
G01*
X46645600Y-79702400D02*
X47745600Y-79702400D01*
G75*
G02*
X47795600Y-79752400I0J-50000D01*
G01*
X47795600Y-82352400D01*
G75*
G02*
X47745600Y-82402400I-50000J0D01*
G01*
X46645600Y-82402400D01*
G75*
G02*
X46595600Y-82352400I0J50000D01*
G01*
X46595600Y-79752400D01*
G75*
G02*
X46645600Y-79702400I50000J0D01*
G01*
G37*
G36*
G01*
X44645600Y-79702400D02*
X45745600Y-79702400D01*
G75*
G02*
X45795600Y-79752400I0J-50000D01*
G01*
X45795600Y-82352400D01*
G75*
G02*
X45745600Y-82402400I-50000J0D01*
G01*
X44645600Y-82402400D01*
G75*
G02*
X44595600Y-82352400I0J50000D01*
G01*
X44595600Y-79752400D01*
G75*
G02*
X44645600Y-79702400I50000J0D01*
G01*
G37*
G36*
G01*
X42645600Y-79702400D02*
X43745600Y-79702400D01*
G75*
G02*
X43795600Y-79752400I0J-50000D01*
G01*
X43795600Y-82352400D01*
G75*
G02*
X43745600Y-82402400I-50000J0D01*
G01*
X42645600Y-82402400D01*
G75*
G02*
X42595600Y-82352400I0J50000D01*
G01*
X42595600Y-79752400D01*
G75*
G02*
X42645600Y-79702400I50000J0D01*
G01*
G37*
G36*
G01*
X42645600Y-95702400D02*
X43745600Y-95702400D01*
G75*
G02*
X43795600Y-95752400I0J-50000D01*
G01*
X43795600Y-98352400D01*
G75*
G02*
X43745600Y-98402400I-50000J0D01*
G01*
X42645600Y-98402400D01*
G75*
G02*
X42595600Y-98352400I0J50000D01*
G01*
X42595600Y-95752400D01*
G75*
G02*
X42645600Y-95702400I50000J0D01*
G01*
G37*
G36*
G01*
X44645600Y-95702400D02*
X45745600Y-95702400D01*
G75*
G02*
X45795600Y-95752400I0J-50000D01*
G01*
X45795600Y-98352400D01*
G75*
G02*
X45745600Y-98402400I-50000J0D01*
G01*
X44645600Y-98402400D01*
G75*
G02*
X44595600Y-98352400I0J50000D01*
G01*
X44595600Y-95752400D01*
G75*
G02*
X44645600Y-95702400I50000J0D01*
G01*
G37*
G36*
G01*
X46645600Y-95702400D02*
X47745600Y-95702400D01*
G75*
G02*
X47795600Y-95752400I0J-50000D01*
G01*
X47795600Y-98352400D01*
G75*
G02*
X47745600Y-98402400I-50000J0D01*
G01*
X46645600Y-98402400D01*
G75*
G02*
X46595600Y-98352400I0J50000D01*
G01*
X46595600Y-95752400D01*
G75*
G02*
X46645600Y-95702400I50000J0D01*
G01*
G37*
G36*
G01*
X48645600Y-95702400D02*
X49745600Y-95702400D01*
G75*
G02*
X49795600Y-95752400I0J-50000D01*
G01*
X49795600Y-98352400D01*
G75*
G02*
X49745600Y-98402400I-50000J0D01*
G01*
X48645600Y-98402400D01*
G75*
G02*
X48595600Y-98352400I0J50000D01*
G01*
X48595600Y-95752400D01*
G75*
G02*
X48645600Y-95702400I50000J0D01*
G01*
G37*
G36*
G01*
X50645600Y-95702400D02*
X51745600Y-95702400D01*
G75*
G02*
X51795600Y-95752400I0J-50000D01*
G01*
X51795600Y-98352400D01*
G75*
G02*
X51745600Y-98402400I-50000J0D01*
G01*
X50645600Y-98402400D01*
G75*
G02*
X50595600Y-98352400I0J50000D01*
G01*
X50595600Y-95752400D01*
G75*
G02*
X50645600Y-95702400I50000J0D01*
G01*
G37*
G36*
G01*
X52645600Y-95702400D02*
X53745600Y-95702400D01*
G75*
G02*
X53795600Y-95752400I0J-50000D01*
G01*
X53795600Y-98352400D01*
G75*
G02*
X53745600Y-98402400I-50000J0D01*
G01*
X52645600Y-98402400D01*
G75*
G02*
X52595600Y-98352400I0J50000D01*
G01*
X52595600Y-95752400D01*
G75*
G02*
X52645600Y-95702400I50000J0D01*
G01*
G37*
G36*
G01*
X54645600Y-95702400D02*
X55745600Y-95702400D01*
G75*
G02*
X55795600Y-95752400I0J-50000D01*
G01*
X55795600Y-98352400D01*
G75*
G02*
X55745600Y-98402400I-50000J0D01*
G01*
X54645600Y-98402400D01*
G75*
G02*
X54595600Y-98352400I0J50000D01*
G01*
X54595600Y-95752400D01*
G75*
G02*
X54645600Y-95702400I50000J0D01*
G01*
G37*
G36*
G01*
X56645600Y-95702400D02*
X57745600Y-95702400D01*
G75*
G02*
X57795600Y-95752400I0J-50000D01*
G01*
X57795600Y-98352400D01*
G75*
G02*
X57745600Y-98402400I-50000J0D01*
G01*
X56645600Y-98402400D01*
G75*
G02*
X56595600Y-98352400I0J50000D01*
G01*
X56595600Y-95752400D01*
G75*
G02*
X56645600Y-95702400I50000J0D01*
G01*
G37*
G36*
G01*
X50895600Y-87402400D02*
X54095600Y-87402400D01*
G75*
G02*
X54145600Y-87452400I0J-50000D01*
G01*
X54145600Y-90652400D01*
G75*
G02*
X54095600Y-90702400I-50000J0D01*
G01*
X50895600Y-90702400D01*
G75*
G02*
X50845600Y-90652400I0J50000D01*
G01*
X50845600Y-87452400D01*
G75*
G02*
X50895600Y-87402400I50000J0D01*
G01*
G37*
G36*
G01*
X51610696Y-74834042D02*
X51610696Y-74834042D01*
G75*
G02*
X52070316Y-74037958I627852J168232D01*
G01*
X52843056Y-73830902D01*
G75*
G02*
X53639140Y-74290522I168232J-627852D01*
G01*
X53639140Y-74290522D01*
G75*
G02*
X53179520Y-75086606I-627852J-168232D01*
G01*
X52406780Y-75293662D01*
G75*
G02*
X51610696Y-74834042I-168232J627852D01*
G01*
G37*
G36*
G01*
X46636178Y-76166960D02*
X46636178Y-76166960D01*
G75*
G02*
X47095798Y-75370876I627852J168232D01*
G01*
X47868538Y-75163820D01*
G75*
G02*
X48664622Y-75623440I168232J-627852D01*
G01*
X48664622Y-75623440D01*
G75*
G02*
X48205002Y-76419524I-627852J-168232D01*
G01*
X47432262Y-76626580D01*
G75*
G02*
X46636178Y-76166960I-168232J627852D01*
G01*
G37*
G36*
G01*
X41661660Y-77499878D02*
X41661660Y-77499878D01*
G75*
G02*
X42121280Y-76703794I627852J168232D01*
G01*
X42894020Y-76496738D01*
G75*
G02*
X43690104Y-76956358I168232J-627852D01*
G01*
X43690104Y-76956358D01*
G75*
G02*
X43230484Y-77752442I-627852J-168232D01*
G01*
X42457744Y-77959498D01*
G75*
G02*
X41661660Y-77499878I-168232J627852D01*
G01*
G37*
D10*
X93926920Y-71969760D03*
X92326920Y-71969760D03*
G36*
G01*
X97920532Y-73008760D02*
X96969308Y-73008760D01*
G75*
G02*
X96694920Y-72734372I0J274388D01*
G01*
X96694920Y-72158148D01*
G75*
G02*
X96969308Y-71883760I274388J0D01*
G01*
X97920532Y-71883760D01*
G75*
G02*
X98194920Y-72158148I0J-274388D01*
G01*
X98194920Y-72734372D01*
G75*
G02*
X97920532Y-73008760I-274388J0D01*
G01*
G37*
G36*
G01*
X97920532Y-74833760D02*
X96969308Y-74833760D01*
G75*
G02*
X96694920Y-74559372I0J274388D01*
G01*
X96694920Y-73983148D01*
G75*
G02*
X96969308Y-73708760I274388J0D01*
G01*
X97920532Y-73708760D01*
G75*
G02*
X98194920Y-73983148I0J-274388D01*
G01*
X98194920Y-74559372D01*
G75*
G02*
X97920532Y-74833760I-274388J0D01*
G01*
G37*
G36*
G01*
X92372920Y-86204760D02*
X93372920Y-86204760D01*
G75*
G02*
X93647920Y-86479760I0J-275000D01*
G01*
X93647920Y-87029760D01*
G75*
G02*
X93372920Y-87304760I-275000J0D01*
G01*
X92372920Y-87304760D01*
G75*
G02*
X92097920Y-87029760I0J275000D01*
G01*
X92097920Y-86479760D01*
G75*
G02*
X92372920Y-86204760I275000J0D01*
G01*
G37*
G36*
G01*
X92372920Y-84304760D02*
X93372920Y-84304760D01*
G75*
G02*
X93647920Y-84579760I0J-275000D01*
G01*
X93647920Y-85129760D01*
G75*
G02*
X93372920Y-85404760I-275000J0D01*
G01*
X92372920Y-85404760D01*
G75*
G02*
X92097920Y-85129760I0J275000D01*
G01*
X92097920Y-84579760D01*
G75*
G02*
X92372920Y-84304760I275000J0D01*
G01*
G37*
G36*
G01*
X104929920Y-72958760D02*
X103929920Y-72958760D01*
G75*
G02*
X103654920Y-72683760I0J275000D01*
G01*
X103654920Y-72133760D01*
G75*
G02*
X103929920Y-71858760I275000J0D01*
G01*
X104929920Y-71858760D01*
G75*
G02*
X105204920Y-72133760I0J-275000D01*
G01*
X105204920Y-72683760D01*
G75*
G02*
X104929920Y-72958760I-275000J0D01*
G01*
G37*
G36*
G01*
X104929920Y-74858760D02*
X103929920Y-74858760D01*
G75*
G02*
X103654920Y-74583760I0J275000D01*
G01*
X103654920Y-74033760D01*
G75*
G02*
X103929920Y-73758760I275000J0D01*
G01*
X104929920Y-73758760D01*
G75*
G02*
X105204920Y-74033760I0J-275000D01*
G01*
X105204920Y-74583760D01*
G75*
G02*
X104929920Y-74858760I-275000J0D01*
G01*
G37*
G36*
G01*
X99455920Y-73887760D02*
X100005920Y-73887760D01*
G75*
G02*
X100255920Y-74137760I0J-250000D01*
G01*
X100255920Y-74637760D01*
G75*
G02*
X100005920Y-74887760I-250000J0D01*
G01*
X99455920Y-74887760D01*
G75*
G02*
X99205920Y-74637760I0J250000D01*
G01*
X99205920Y-74137760D01*
G75*
G02*
X99455920Y-73887760I250000J0D01*
G01*
G37*
G36*
G01*
X99455920Y-72337760D02*
X100005920Y-72337760D01*
G75*
G02*
X100255920Y-72587760I0J-250000D01*
G01*
X100255920Y-73087760D01*
G75*
G02*
X100005920Y-73337760I-250000J0D01*
G01*
X99455920Y-73337760D01*
G75*
G02*
X99205920Y-73087760I0J250000D01*
G01*
X99205920Y-72587760D01*
G75*
G02*
X99455920Y-72337760I250000J0D01*
G01*
G37*
G36*
G01*
X102404400Y-77024800D02*
X102404400Y-76674800D01*
G75*
G02*
X102579400Y-76499800I175000J0D01*
G01*
X104279400Y-76499800D01*
G75*
G02*
X104454400Y-76674800I0J-175000D01*
G01*
X104454400Y-77024800D01*
G75*
G02*
X104279400Y-77199800I-175000J0D01*
G01*
X102579400Y-77199800D01*
G75*
G02*
X102404400Y-77024800I0J175000D01*
G01*
G37*
G36*
G01*
X102404400Y-78294800D02*
X102404400Y-77944800D01*
G75*
G02*
X102579400Y-77769800I175000J0D01*
G01*
X104279400Y-77769800D01*
G75*
G02*
X104454400Y-77944800I0J-175000D01*
G01*
X104454400Y-78294800D01*
G75*
G02*
X104279400Y-78469800I-175000J0D01*
G01*
X102579400Y-78469800D01*
G75*
G02*
X102404400Y-78294800I0J175000D01*
G01*
G37*
G36*
G01*
X102404400Y-79564800D02*
X102404400Y-79214800D01*
G75*
G02*
X102579400Y-79039800I175000J0D01*
G01*
X104279400Y-79039800D01*
G75*
G02*
X104454400Y-79214800I0J-175000D01*
G01*
X104454400Y-79564800D01*
G75*
G02*
X104279400Y-79739800I-175000J0D01*
G01*
X102579400Y-79739800D01*
G75*
G02*
X102404400Y-79564800I0J175000D01*
G01*
G37*
G36*
G01*
X102404400Y-80834800D02*
X102404400Y-80484800D01*
G75*
G02*
X102579400Y-80309800I175000J0D01*
G01*
X104279400Y-80309800D01*
G75*
G02*
X104454400Y-80484800I0J-175000D01*
G01*
X104454400Y-80834800D01*
G75*
G02*
X104279400Y-81009800I-175000J0D01*
G01*
X102579400Y-81009800D01*
G75*
G02*
X102404400Y-80834800I0J175000D01*
G01*
G37*
G36*
G01*
X97454400Y-80834800D02*
X97454400Y-80484800D01*
G75*
G02*
X97629400Y-80309800I175000J0D01*
G01*
X99329400Y-80309800D01*
G75*
G02*
X99504400Y-80484800I0J-175000D01*
G01*
X99504400Y-80834800D01*
G75*
G02*
X99329400Y-81009800I-175000J0D01*
G01*
X97629400Y-81009800D01*
G75*
G02*
X97454400Y-80834800I0J175000D01*
G01*
G37*
G36*
G01*
X97454400Y-79564800D02*
X97454400Y-79214800D01*
G75*
G02*
X97629400Y-79039800I175000J0D01*
G01*
X99329400Y-79039800D01*
G75*
G02*
X99504400Y-79214800I0J-175000D01*
G01*
X99504400Y-79564800D01*
G75*
G02*
X99329400Y-79739800I-175000J0D01*
G01*
X97629400Y-79739800D01*
G75*
G02*
X97454400Y-79564800I0J175000D01*
G01*
G37*
G36*
G01*
X97454400Y-78294800D02*
X97454400Y-77944800D01*
G75*
G02*
X97629400Y-77769800I175000J0D01*
G01*
X99329400Y-77769800D01*
G75*
G02*
X99504400Y-77944800I0J-175000D01*
G01*
X99504400Y-78294800D01*
G75*
G02*
X99329400Y-78469800I-175000J0D01*
G01*
X97629400Y-78469800D01*
G75*
G02*
X97454400Y-78294800I0J175000D01*
G01*
G37*
G36*
G01*
X97454400Y-77024800D02*
X97454400Y-76674800D01*
G75*
G02*
X97629400Y-76499800I175000J0D01*
G01*
X99329400Y-76499800D01*
G75*
G02*
X99504400Y-76674800I0J-175000D01*
G01*
X99504400Y-77024800D01*
G75*
G02*
X99329400Y-77199800I-175000J0D01*
G01*
X97629400Y-77199800D01*
G75*
G02*
X97454400Y-77024800I0J175000D01*
G01*
G37*
G36*
G01*
X53979400Y-77906200D02*
X53979400Y-78456200D01*
G75*
G02*
X53729400Y-78706200I-250000J0D01*
G01*
X53229400Y-78706200D01*
G75*
G02*
X52979400Y-78456200I0J250000D01*
G01*
X52979400Y-77906200D01*
G75*
G02*
X53229400Y-77656200I250000J0D01*
G01*
X53729400Y-77656200D01*
G75*
G02*
X53979400Y-77906200I0J-250000D01*
G01*
G37*
G36*
G01*
X55529400Y-77906200D02*
X55529400Y-78456200D01*
G75*
G02*
X55279400Y-78706200I-250000J0D01*
G01*
X54779400Y-78706200D01*
G75*
G02*
X54529400Y-78456200I0J250000D01*
G01*
X54529400Y-77906200D01*
G75*
G02*
X54779400Y-77656200I250000J0D01*
G01*
X55279400Y-77656200D01*
G75*
G02*
X55529400Y-77906200I0J-250000D01*
G01*
G37*
G36*
G01*
X99378600Y-95294600D02*
X99378600Y-95844600D01*
G75*
G02*
X99128600Y-96094600I-250000J0D01*
G01*
X98628600Y-96094600D01*
G75*
G02*
X98378600Y-95844600I0J250000D01*
G01*
X98378600Y-95294600D01*
G75*
G02*
X98628600Y-95044600I250000J0D01*
G01*
X99128600Y-95044600D01*
G75*
G02*
X99378600Y-95294600I0J-250000D01*
G01*
G37*
G36*
G01*
X100928600Y-95294600D02*
X100928600Y-95844600D01*
G75*
G02*
X100678600Y-96094600I-250000J0D01*
G01*
X100178600Y-96094600D01*
G75*
G02*
X99928600Y-95844600I0J250000D01*
G01*
X99928600Y-95294600D01*
G75*
G02*
X100178600Y-95044600I250000J0D01*
G01*
X100678600Y-95044600D01*
G75*
G02*
X100928600Y-95294600I0J-250000D01*
G01*
G37*
G36*
G01*
X103815920Y-84047760D02*
X103815920Y-83497760D01*
G75*
G02*
X104065920Y-83247760I250000J0D01*
G01*
X104565920Y-83247760D01*
G75*
G02*
X104815920Y-83497760I0J-250000D01*
G01*
X104815920Y-84047760D01*
G75*
G02*
X104565920Y-84297760I-250000J0D01*
G01*
X104065920Y-84297760D01*
G75*
G02*
X103815920Y-84047760I0J250000D01*
G01*
G37*
G36*
G01*
X102265920Y-84047760D02*
X102265920Y-83497760D01*
G75*
G02*
X102515920Y-83247760I250000J0D01*
G01*
X103015920Y-83247760D01*
G75*
G02*
X103265920Y-83497760I0J-250000D01*
G01*
X103265920Y-84047760D01*
G75*
G02*
X103015920Y-84297760I-250000J0D01*
G01*
X102515920Y-84297760D01*
G75*
G02*
X102265920Y-84047760I0J250000D01*
G01*
G37*
G36*
G01*
X93101400Y-76701800D02*
X92551400Y-76701800D01*
G75*
G02*
X92301400Y-76451800I0J250000D01*
G01*
X92301400Y-75951800D01*
G75*
G02*
X92551400Y-75701800I250000J0D01*
G01*
X93101400Y-75701800D01*
G75*
G02*
X93351400Y-75951800I0J-250000D01*
G01*
X93351400Y-76451800D01*
G75*
G02*
X93101400Y-76701800I-250000J0D01*
G01*
G37*
G36*
G01*
X93101400Y-78251800D02*
X92551400Y-78251800D01*
G75*
G02*
X92301400Y-78001800I0J250000D01*
G01*
X92301400Y-77501800D01*
G75*
G02*
X92551400Y-77251800I250000J0D01*
G01*
X93101400Y-77251800D01*
G75*
G02*
X93351400Y-77501800I0J-250000D01*
G01*
X93351400Y-78001800D01*
G75*
G02*
X93101400Y-78251800I-250000J0D01*
G01*
G37*
G36*
G01*
X87877800Y-91577400D02*
X88427800Y-91577400D01*
G75*
G02*
X88677800Y-91827400I0J-250000D01*
G01*
X88677800Y-92327400D01*
G75*
G02*
X88427800Y-92577400I-250000J0D01*
G01*
X87877800Y-92577400D01*
G75*
G02*
X87627800Y-92327400I0J250000D01*
G01*
X87627800Y-91827400D01*
G75*
G02*
X87877800Y-91577400I250000J0D01*
G01*
G37*
G36*
G01*
X87877800Y-90027400D02*
X88427800Y-90027400D01*
G75*
G02*
X88677800Y-90277400I0J-250000D01*
G01*
X88677800Y-90777400D01*
G75*
G02*
X88427800Y-91027400I-250000J0D01*
G01*
X87877800Y-91027400D01*
G75*
G02*
X87627800Y-90777400I0J250000D01*
G01*
X87627800Y-90277400D01*
G75*
G02*
X87877800Y-90027400I250000J0D01*
G01*
G37*
D11*
X116702400Y-72557200D03*
D12*
X114162400Y-72557200D03*
D13*
X119547200Y-79669200D03*
G36*
G01*
X118647200Y-77979200D02*
X118647200Y-76279200D01*
G75*
G02*
X118697200Y-76229200I50000J0D01*
G01*
X120397200Y-76229200D01*
G75*
G02*
X120447200Y-76279200I0J-50000D01*
G01*
X120447200Y-77979200D01*
G75*
G02*
X120397200Y-78029200I-50000J0D01*
G01*
X118697200Y-78029200D01*
G75*
G02*
X118647200Y-77979200I0J50000D01*
G01*
G37*
X103951600Y-94604400D03*
G36*
G01*
X103051600Y-92914400D02*
X103051600Y-91214400D01*
G75*
G02*
X103101600Y-91164400I50000J0D01*
G01*
X104801600Y-91164400D01*
G75*
G02*
X104851600Y-91214400I0J-50000D01*
G01*
X104851600Y-92914400D01*
G75*
G02*
X104801600Y-92964400I-50000J0D01*
G01*
X103101600Y-92964400D01*
G75*
G02*
X103051600Y-92914400I0J50000D01*
G01*
G37*
G36*
G01*
X112250412Y-80587300D02*
X111299188Y-80587300D01*
G75*
G02*
X111024800Y-80312912I0J274388D01*
G01*
X111024800Y-79736688D01*
G75*
G02*
X111299188Y-79462300I274388J0D01*
G01*
X112250412Y-79462300D01*
G75*
G02*
X112524800Y-79736688I0J-274388D01*
G01*
X112524800Y-80312912D01*
G75*
G02*
X112250412Y-80587300I-274388J0D01*
G01*
G37*
G36*
G01*
X112250412Y-82412300D02*
X111299188Y-82412300D01*
G75*
G02*
X111024800Y-82137912I0J274388D01*
G01*
X111024800Y-81561688D01*
G75*
G02*
X111299188Y-81287300I274388J0D01*
G01*
X112250412Y-81287300D01*
G75*
G02*
X112524800Y-81561688I0J-274388D01*
G01*
X112524800Y-82137912D01*
G75*
G02*
X112250412Y-82412300I-274388J0D01*
G01*
G37*
X35778000Y-79161200D03*
X35778000Y-81701200D03*
X35778000Y-84241200D03*
X35778000Y-86781200D03*
G36*
G01*
X36678000Y-88471200D02*
X36678000Y-90171200D01*
G75*
G02*
X36628000Y-90221200I-50000J0D01*
G01*
X34928000Y-90221200D01*
G75*
G02*
X34878000Y-90171200I0J50000D01*
G01*
X34878000Y-88471200D01*
G75*
G02*
X34928000Y-88421200I50000J0D01*
G01*
X36628000Y-88421200D01*
G75*
G02*
X36678000Y-88471200I0J-50000D01*
G01*
G37*
G36*
G01*
X88790000Y-84635800D02*
X88790000Y-84335800D01*
G75*
G02*
X88840000Y-84285800I50000J0D01*
G01*
X90240000Y-84285800D01*
G75*
G02*
X90290000Y-84335800I0J-50000D01*
G01*
X90290000Y-84635800D01*
G75*
G02*
X90240000Y-84685800I-50000J0D01*
G01*
X88840000Y-84685800D01*
G75*
G02*
X88790000Y-84635800I0J50000D01*
G01*
G37*
G36*
G01*
X88790000Y-85135800D02*
X88790000Y-84835800D01*
G75*
G02*
X88840000Y-84785800I50000J0D01*
G01*
X90240000Y-84785800D01*
G75*
G02*
X90290000Y-84835800I0J-50000D01*
G01*
X90290000Y-85135800D01*
G75*
G02*
X90240000Y-85185800I-50000J0D01*
G01*
X88840000Y-85185800D01*
G75*
G02*
X88790000Y-85135800I0J50000D01*
G01*
G37*
G36*
G01*
X88790000Y-85635800D02*
X88790000Y-85335800D01*
G75*
G02*
X88840000Y-85285800I50000J0D01*
G01*
X90240000Y-85285800D01*
G75*
G02*
X90290000Y-85335800I0J-50000D01*
G01*
X90290000Y-85635800D01*
G75*
G02*
X90240000Y-85685800I-50000J0D01*
G01*
X88840000Y-85685800D01*
G75*
G02*
X88790000Y-85635800I0J50000D01*
G01*
G37*
G36*
G01*
X88790000Y-86135800D02*
X88790000Y-85835800D01*
G75*
G02*
X88840000Y-85785800I50000J0D01*
G01*
X90240000Y-85785800D01*
G75*
G02*
X90290000Y-85835800I0J-50000D01*
G01*
X90290000Y-86135800D01*
G75*
G02*
X90240000Y-86185800I-50000J0D01*
G01*
X88840000Y-86185800D01*
G75*
G02*
X88790000Y-86135800I0J50000D01*
G01*
G37*
G36*
G01*
X88790000Y-86635800D02*
X88790000Y-86335800D01*
G75*
G02*
X88840000Y-86285800I50000J0D01*
G01*
X90240000Y-86285800D01*
G75*
G02*
X90290000Y-86335800I0J-50000D01*
G01*
X90290000Y-86635800D01*
G75*
G02*
X90240000Y-86685800I-50000J0D01*
G01*
X88840000Y-86685800D01*
G75*
G02*
X88790000Y-86635800I0J50000D01*
G01*
G37*
G36*
G01*
X84390000Y-86635800D02*
X84390000Y-86335800D01*
G75*
G02*
X84440000Y-86285800I50000J0D01*
G01*
X85840000Y-86285800D01*
G75*
G02*
X85890000Y-86335800I0J-50000D01*
G01*
X85890000Y-86635800D01*
G75*
G02*
X85840000Y-86685800I-50000J0D01*
G01*
X84440000Y-86685800D01*
G75*
G02*
X84390000Y-86635800I0J50000D01*
G01*
G37*
G36*
G01*
X84390000Y-86135800D02*
X84390000Y-85835800D01*
G75*
G02*
X84440000Y-85785800I50000J0D01*
G01*
X85840000Y-85785800D01*
G75*
G02*
X85890000Y-85835800I0J-50000D01*
G01*
X85890000Y-86135800D01*
G75*
G02*
X85840000Y-86185800I-50000J0D01*
G01*
X84440000Y-86185800D01*
G75*
G02*
X84390000Y-86135800I0J50000D01*
G01*
G37*
G36*
G01*
X84390000Y-85635800D02*
X84390000Y-85335800D01*
G75*
G02*
X84440000Y-85285800I50000J0D01*
G01*
X85840000Y-85285800D01*
G75*
G02*
X85890000Y-85335800I0J-50000D01*
G01*
X85890000Y-85635800D01*
G75*
G02*
X85840000Y-85685800I-50000J0D01*
G01*
X84440000Y-85685800D01*
G75*
G02*
X84390000Y-85635800I0J50000D01*
G01*
G37*
G36*
G01*
X84390000Y-85135800D02*
X84390000Y-84835800D01*
G75*
G02*
X84440000Y-84785800I50000J0D01*
G01*
X85840000Y-84785800D01*
G75*
G02*
X85890000Y-84835800I0J-50000D01*
G01*
X85890000Y-85135800D01*
G75*
G02*
X85840000Y-85185800I-50000J0D01*
G01*
X84440000Y-85185800D01*
G75*
G02*
X84390000Y-85135800I0J50000D01*
G01*
G37*
G36*
G01*
X84390000Y-84635800D02*
X84390000Y-84335800D01*
G75*
G02*
X84440000Y-84285800I50000J0D01*
G01*
X85840000Y-84285800D01*
G75*
G02*
X85890000Y-84335800I0J-50000D01*
G01*
X85890000Y-84635800D01*
G75*
G02*
X85840000Y-84685800I-50000J0D01*
G01*
X84440000Y-84685800D01*
G75*
G02*
X84390000Y-84635800I0J50000D01*
G01*
G37*
G36*
G01*
X106269988Y-81289200D02*
X107221212Y-81289200D01*
G75*
G02*
X107495600Y-81563588I0J-274388D01*
G01*
X107495600Y-82139812D01*
G75*
G02*
X107221212Y-82414200I-274388J0D01*
G01*
X106269988Y-82414200D01*
G75*
G02*
X105995600Y-82139812I0J274388D01*
G01*
X105995600Y-81563588D01*
G75*
G02*
X106269988Y-81289200I274388J0D01*
G01*
G37*
G36*
G01*
X106269988Y-79464200D02*
X107221212Y-79464200D01*
G75*
G02*
X107495600Y-79738588I0J-274388D01*
G01*
X107495600Y-80314812D01*
G75*
G02*
X107221212Y-80589200I-274388J0D01*
G01*
X106269988Y-80589200D01*
G75*
G02*
X105995600Y-80314812I0J274388D01*
G01*
X105995600Y-79738588D01*
G75*
G02*
X106269988Y-79464200I274388J0D01*
G01*
G37*
G36*
G01*
X107221212Y-76626800D02*
X106269988Y-76626800D01*
G75*
G02*
X105995600Y-76352412I0J274388D01*
G01*
X105995600Y-75776188D01*
G75*
G02*
X106269988Y-75501800I274388J0D01*
G01*
X107221212Y-75501800D01*
G75*
G02*
X107495600Y-75776188I0J-274388D01*
G01*
X107495600Y-76352412D01*
G75*
G02*
X107221212Y-76626800I-274388J0D01*
G01*
G37*
G36*
G01*
X107221212Y-78451800D02*
X106269988Y-78451800D01*
G75*
G02*
X105995600Y-78177412I0J274388D01*
G01*
X105995600Y-77601188D01*
G75*
G02*
X106269988Y-77326800I274388J0D01*
G01*
X107221212Y-77326800D01*
G75*
G02*
X107495600Y-77601188I0J-274388D01*
G01*
X107495600Y-78177412D01*
G75*
G02*
X107221212Y-78451800I-274388J0D01*
G01*
G37*
G36*
G01*
X108759188Y-77326800D02*
X109710412Y-77326800D01*
G75*
G02*
X109984800Y-77601188I0J-274388D01*
G01*
X109984800Y-78177412D01*
G75*
G02*
X109710412Y-78451800I-274388J0D01*
G01*
X108759188Y-78451800D01*
G75*
G02*
X108484800Y-78177412I0J274388D01*
G01*
X108484800Y-77601188D01*
G75*
G02*
X108759188Y-77326800I274388J0D01*
G01*
G37*
G36*
G01*
X108759188Y-75501800D02*
X109710412Y-75501800D01*
G75*
G02*
X109984800Y-75776188I0J-274388D01*
G01*
X109984800Y-76352412D01*
G75*
G02*
X109710412Y-76626800I-274388J0D01*
G01*
X108759188Y-76626800D01*
G75*
G02*
X108484800Y-76352412I0J274388D01*
G01*
X108484800Y-75776188D01*
G75*
G02*
X108759188Y-75501800I274388J0D01*
G01*
G37*
G36*
G01*
X109710412Y-80589200D02*
X108759188Y-80589200D01*
G75*
G02*
X108484800Y-80314812I0J274388D01*
G01*
X108484800Y-79738588D01*
G75*
G02*
X108759188Y-79464200I274388J0D01*
G01*
X109710412Y-79464200D01*
G75*
G02*
X109984800Y-79738588I0J-274388D01*
G01*
X109984800Y-80314812D01*
G75*
G02*
X109710412Y-80589200I-274388J0D01*
G01*
G37*
G36*
G01*
X109710412Y-82414200D02*
X108759188Y-82414200D01*
G75*
G02*
X108484800Y-82139812I0J274388D01*
G01*
X108484800Y-81563588D01*
G75*
G02*
X108759188Y-81289200I274388J0D01*
G01*
X109710412Y-81289200D01*
G75*
G02*
X109984800Y-81563588I0J-274388D01*
G01*
X109984800Y-82139812D01*
G75*
G02*
X109710412Y-82414200I-274388J0D01*
G01*
G37*
G36*
G01*
X111299188Y-77326800D02*
X112250412Y-77326800D01*
G75*
G02*
X112524800Y-77601188I0J-274388D01*
G01*
X112524800Y-78177412D01*
G75*
G02*
X112250412Y-78451800I-274388J0D01*
G01*
X111299188Y-78451800D01*
G75*
G02*
X111024800Y-78177412I0J274388D01*
G01*
X111024800Y-77601188D01*
G75*
G02*
X111299188Y-77326800I274388J0D01*
G01*
G37*
G36*
G01*
X111299188Y-75501800D02*
X112250412Y-75501800D01*
G75*
G02*
X112524800Y-75776188I0J-274388D01*
G01*
X112524800Y-76352412D01*
G75*
G02*
X112250412Y-76626800I-274388J0D01*
G01*
X111299188Y-76626800D01*
G75*
G02*
X111024800Y-76352412I0J274388D01*
G01*
X111024800Y-75776188D01*
G75*
G02*
X111299188Y-75501800I274388J0D01*
G01*
G37*
G36*
G01*
X94789188Y-77328700D02*
X95740412Y-77328700D01*
G75*
G02*
X96014800Y-77603088I0J-274388D01*
G01*
X96014800Y-78179312D01*
G75*
G02*
X95740412Y-78453700I-274388J0D01*
G01*
X94789188Y-78453700D01*
G75*
G02*
X94514800Y-78179312I0J274388D01*
G01*
X94514800Y-77603088D01*
G75*
G02*
X94789188Y-77328700I274388J0D01*
G01*
G37*
G36*
G01*
X94789188Y-75503700D02*
X95740412Y-75503700D01*
G75*
G02*
X96014800Y-75778088I0J-274388D01*
G01*
X96014800Y-76354312D01*
G75*
G02*
X95740412Y-76628700I-274388J0D01*
G01*
X94789188Y-76628700D01*
G75*
G02*
X94514800Y-76354312I0J274388D01*
G01*
X94514800Y-75778088D01*
G75*
G02*
X94789188Y-75503700I274388J0D01*
G01*
G37*
G36*
G01*
X94789188Y-81187600D02*
X95740412Y-81187600D01*
G75*
G02*
X96014800Y-81461988I0J-274388D01*
G01*
X96014800Y-82038212D01*
G75*
G02*
X95740412Y-82312600I-274388J0D01*
G01*
X94789188Y-82312600D01*
G75*
G02*
X94514800Y-82038212I0J274388D01*
G01*
X94514800Y-81461988D01*
G75*
G02*
X94789188Y-81187600I274388J0D01*
G01*
G37*
G36*
G01*
X94789188Y-79362600D02*
X95740412Y-79362600D01*
G75*
G02*
X96014800Y-79636988I0J-274388D01*
G01*
X96014800Y-80213212D01*
G75*
G02*
X95740412Y-80487600I-274388J0D01*
G01*
X94789188Y-80487600D01*
G75*
G02*
X94514800Y-80213212I0J274388D01*
G01*
X94514800Y-79636988D01*
G75*
G02*
X94789188Y-79362600I274388J0D01*
G01*
G37*
G36*
G01*
X93302012Y-80487600D02*
X92350788Y-80487600D01*
G75*
G02*
X92076400Y-80213212I0J274388D01*
G01*
X92076400Y-79636988D01*
G75*
G02*
X92350788Y-79362600I274388J0D01*
G01*
X93302012Y-79362600D01*
G75*
G02*
X93576400Y-79636988I0J-274388D01*
G01*
X93576400Y-80213212D01*
G75*
G02*
X93302012Y-80487600I-274388J0D01*
G01*
G37*
G36*
G01*
X93302012Y-82312600D02*
X92350788Y-82312600D01*
G75*
G02*
X92076400Y-82038212I0J274388D01*
G01*
X92076400Y-81461988D01*
G75*
G02*
X92350788Y-81187600I274388J0D01*
G01*
X93302012Y-81187600D01*
G75*
G02*
X93576400Y-81461988I0J-274388D01*
G01*
X93576400Y-82038212D01*
G75*
G02*
X93302012Y-82312600I-274388J0D01*
G01*
G37*
G36*
G01*
X102492532Y-73008760D02*
X101541308Y-73008760D01*
G75*
G02*
X101266920Y-72734372I0J274388D01*
G01*
X101266920Y-72158148D01*
G75*
G02*
X101541308Y-71883760I274388J0D01*
G01*
X102492532Y-71883760D01*
G75*
G02*
X102766920Y-72158148I0J-274388D01*
G01*
X102766920Y-72734372D01*
G75*
G02*
X102492532Y-73008760I-274388J0D01*
G01*
G37*
G36*
G01*
X102492532Y-74833760D02*
X101541308Y-74833760D01*
G75*
G02*
X101266920Y-74559372I0J274388D01*
G01*
X101266920Y-73983148D01*
G75*
G02*
X101541308Y-73708760I274388J0D01*
G01*
X102492532Y-73708760D01*
G75*
G02*
X102766920Y-73983148I0J-274388D01*
G01*
X102766920Y-74559372D01*
G75*
G02*
X102492532Y-74833760I-274388J0D01*
G01*
G37*
G36*
G01*
X99283600Y-92553988D02*
X99283600Y-93505212D01*
G75*
G02*
X99009212Y-93779600I-274388J0D01*
G01*
X98432988Y-93779600D01*
G75*
G02*
X98158600Y-93505212I0J274388D01*
G01*
X98158600Y-92553988D01*
G75*
G02*
X98432988Y-92279600I274388J0D01*
G01*
X99009212Y-92279600D01*
G75*
G02*
X99283600Y-92553988I0J-274388D01*
G01*
G37*
G36*
G01*
X101108600Y-92553988D02*
X101108600Y-93505212D01*
G75*
G02*
X100834212Y-93779600I-274388J0D01*
G01*
X100257988Y-93779600D01*
G75*
G02*
X99983600Y-93505212I0J274388D01*
G01*
X99983600Y-92553988D01*
G75*
G02*
X100257988Y-92279600I274388J0D01*
G01*
X100834212Y-92279600D01*
G75*
G02*
X101108600Y-92553988I0J-274388D01*
G01*
G37*
G36*
G01*
X99983600Y-91066812D02*
X99983600Y-90115588D01*
G75*
G02*
X100257988Y-89841200I274388J0D01*
G01*
X100834212Y-89841200D01*
G75*
G02*
X101108600Y-90115588I0J-274388D01*
G01*
X101108600Y-91066812D01*
G75*
G02*
X100834212Y-91341200I-274388J0D01*
G01*
X100257988Y-91341200D01*
G75*
G02*
X99983600Y-91066812I0J274388D01*
G01*
G37*
G36*
G01*
X98158600Y-91066812D02*
X98158600Y-90115588D01*
G75*
G02*
X98432988Y-89841200I274388J0D01*
G01*
X99009212Y-89841200D01*
G75*
G02*
X99283600Y-90115588I0J-274388D01*
G01*
X99283600Y-91066812D01*
G75*
G02*
X99009212Y-91341200I-274388J0D01*
G01*
X98432988Y-91341200D01*
G75*
G02*
X98158600Y-91066812I0J274388D01*
G01*
G37*
G36*
G01*
X93217400Y-90884000D02*
X92567400Y-90884000D01*
G75*
G02*
X92517400Y-90834000I0J50000D01*
G01*
X92517400Y-89774000D01*
G75*
G02*
X92567400Y-89724000I50000J0D01*
G01*
X93217400Y-89724000D01*
G75*
G02*
X93267400Y-89774000I0J-50000D01*
G01*
X93267400Y-90834000D01*
G75*
G02*
X93217400Y-90884000I-50000J0D01*
G01*
G37*
G36*
G01*
X95117400Y-90884000D02*
X94467400Y-90884000D01*
G75*
G02*
X94417400Y-90834000I0J50000D01*
G01*
X94417400Y-89774000D01*
G75*
G02*
X94467400Y-89724000I50000J0D01*
G01*
X95117400Y-89724000D01*
G75*
G02*
X95167400Y-89774000I0J-50000D01*
G01*
X95167400Y-90834000D01*
G75*
G02*
X95117400Y-90884000I-50000J0D01*
G01*
G37*
G36*
G01*
X95117400Y-93084000D02*
X94467400Y-93084000D01*
G75*
G02*
X94417400Y-93034000I0J50000D01*
G01*
X94417400Y-91974000D01*
G75*
G02*
X94467400Y-91924000I50000J0D01*
G01*
X95117400Y-91924000D01*
G75*
G02*
X95167400Y-91974000I0J-50000D01*
G01*
X95167400Y-93034000D01*
G75*
G02*
X95117400Y-93084000I-50000J0D01*
G01*
G37*
G36*
G01*
X94167400Y-93084000D02*
X93517400Y-93084000D01*
G75*
G02*
X93467400Y-93034000I0J50000D01*
G01*
X93467400Y-91974000D01*
G75*
G02*
X93517400Y-91924000I50000J0D01*
G01*
X94167400Y-91924000D01*
G75*
G02*
X94217400Y-91974000I0J-50000D01*
G01*
X94217400Y-93034000D01*
G75*
G02*
X94167400Y-93084000I-50000J0D01*
G01*
G37*
G36*
G01*
X93217400Y-93084000D02*
X92567400Y-93084000D01*
G75*
G02*
X92517400Y-93034000I0J50000D01*
G01*
X92517400Y-91974000D01*
G75*
G02*
X92567400Y-91924000I50000J0D01*
G01*
X93217400Y-91924000D01*
G75*
G02*
X93267400Y-91974000I0J-50000D01*
G01*
X93267400Y-93034000D01*
G75*
G02*
X93217400Y-93084000I-50000J0D01*
G01*
G37*
G36*
G01*
X117098400Y-91744200D02*
X117098400Y-91094200D01*
G75*
G02*
X117148400Y-91044200I50000J0D01*
G01*
X118368400Y-91044200D01*
G75*
G02*
X118418400Y-91094200I0J-50000D01*
G01*
X118418400Y-91744200D01*
G75*
G02*
X118368400Y-91794200I-50000J0D01*
G01*
X117148400Y-91794200D01*
G75*
G02*
X117098400Y-91744200I0J50000D01*
G01*
G37*
G36*
G01*
X117098400Y-93644200D02*
X117098400Y-92994200D01*
G75*
G02*
X117148400Y-92944200I50000J0D01*
G01*
X118368400Y-92944200D01*
G75*
G02*
X118418400Y-92994200I0J-50000D01*
G01*
X118418400Y-93644200D01*
G75*
G02*
X118368400Y-93694200I-50000J0D01*
G01*
X117148400Y-93694200D01*
G75*
G02*
X117098400Y-93644200I0J50000D01*
G01*
G37*
G36*
G01*
X114478400Y-93644200D02*
X114478400Y-92994200D01*
G75*
G02*
X114528400Y-92944200I50000J0D01*
G01*
X115748400Y-92944200D01*
G75*
G02*
X115798400Y-92994200I0J-50000D01*
G01*
X115798400Y-93644200D01*
G75*
G02*
X115748400Y-93694200I-50000J0D01*
G01*
X114528400Y-93694200D01*
G75*
G02*
X114478400Y-93644200I0J50000D01*
G01*
G37*
G36*
G01*
X114478400Y-92694200D02*
X114478400Y-92044200D01*
G75*
G02*
X114528400Y-91994200I50000J0D01*
G01*
X115748400Y-91994200D01*
G75*
G02*
X115798400Y-92044200I0J-50000D01*
G01*
X115798400Y-92694200D01*
G75*
G02*
X115748400Y-92744200I-50000J0D01*
G01*
X114528400Y-92744200D01*
G75*
G02*
X114478400Y-92694200I0J50000D01*
G01*
G37*
G36*
G01*
X114478400Y-91744200D02*
X114478400Y-91094200D01*
G75*
G02*
X114528400Y-91044200I50000J0D01*
G01*
X115748400Y-91044200D01*
G75*
G02*
X115798400Y-91094200I0J-50000D01*
G01*
X115798400Y-91744200D01*
G75*
G02*
X115748400Y-91794200I-50000J0D01*
G01*
X114528400Y-91794200D01*
G75*
G02*
X114478400Y-91744200I0J50000D01*
G01*
G37*
G36*
G01*
X113039200Y-89288812D02*
X113039200Y-88337588D01*
G75*
G02*
X113313588Y-88063200I274388J0D01*
G01*
X113889812Y-88063200D01*
G75*
G02*
X114164200Y-88337588I0J-274388D01*
G01*
X114164200Y-89288812D01*
G75*
G02*
X113889812Y-89563200I-274388J0D01*
G01*
X113313588Y-89563200D01*
G75*
G02*
X113039200Y-89288812I0J274388D01*
G01*
G37*
G36*
G01*
X111214200Y-89288812D02*
X111214200Y-88337588D01*
G75*
G02*
X111488588Y-88063200I274388J0D01*
G01*
X112064812Y-88063200D01*
G75*
G02*
X112339200Y-88337588I0J-274388D01*
G01*
X112339200Y-89288812D01*
G75*
G02*
X112064812Y-89563200I-274388J0D01*
G01*
X111488588Y-89563200D01*
G75*
G02*
X111214200Y-89288812I0J274388D01*
G01*
G37*
D14*
X126497600Y-83985200D03*
X126497600Y-92625200D03*
X122697600Y-92625200D03*
X122697600Y-83985200D03*
G36*
G01*
X122097600Y-88405200D02*
X123297600Y-88405200D01*
G75*
G02*
X123347600Y-88455200I0J-50000D01*
G01*
X123347600Y-89155200D01*
G75*
G02*
X123297600Y-89205200I-50000J0D01*
G01*
X122097600Y-89205200D01*
G75*
G02*
X122047600Y-89155200I0J50000D01*
G01*
X122047600Y-88455200D01*
G75*
G02*
X122097600Y-88405200I50000J0D01*
G01*
G37*
G36*
G01*
X122097600Y-87405200D02*
X123297600Y-87405200D01*
G75*
G02*
X123347600Y-87455200I0J-50000D01*
G01*
X123347600Y-88155200D01*
G75*
G02*
X123297600Y-88205200I-50000J0D01*
G01*
X122097600Y-88205200D01*
G75*
G02*
X122047600Y-88155200I0J50000D01*
G01*
X122047600Y-87455200D01*
G75*
G02*
X122097600Y-87405200I50000J0D01*
G01*
G37*
G36*
G01*
X123297600Y-90235200D02*
X122097600Y-90235200D01*
G75*
G02*
X122047600Y-90185200I0J50000D01*
G01*
X122047600Y-89425200D01*
G75*
G02*
X122097600Y-89375200I50000J0D01*
G01*
X123297600Y-89375200D01*
G75*
G02*
X123347600Y-89425200I0J-50000D01*
G01*
X123347600Y-90185200D01*
G75*
G02*
X123297600Y-90235200I-50000J0D01*
G01*
G37*
G36*
G01*
X123297600Y-91505200D02*
X122097600Y-91505200D01*
G75*
G02*
X122047600Y-91455200I0J50000D01*
G01*
X122047600Y-90655200D01*
G75*
G02*
X122097600Y-90605200I50000J0D01*
G01*
X123297600Y-90605200D01*
G75*
G02*
X123347600Y-90655200I0J-50000D01*
G01*
X123347600Y-91455200D01*
G75*
G02*
X123297600Y-91505200I-50000J0D01*
G01*
G37*
G36*
G01*
X123297600Y-87235200D02*
X122097600Y-87235200D01*
G75*
G02*
X122047600Y-87185200I0J50000D01*
G01*
X122047600Y-86425200D01*
G75*
G02*
X122097600Y-86375200I50000J0D01*
G01*
X123297600Y-86375200D01*
G75*
G02*
X123347600Y-86425200I0J-50000D01*
G01*
X123347600Y-87185200D01*
G75*
G02*
X123297600Y-87235200I-50000J0D01*
G01*
G37*
G36*
G01*
X123297600Y-86005200D02*
X122097600Y-86005200D01*
G75*
G02*
X122047600Y-85955200I0J50000D01*
G01*
X122047600Y-85155200D01*
G75*
G02*
X122097600Y-85105200I50000J0D01*
G01*
X123297600Y-85105200D01*
G75*
G02*
X123347600Y-85155200I0J-50000D01*
G01*
X123347600Y-85955200D01*
G75*
G02*
X123297600Y-86005200I-50000J0D01*
G01*
G37*
G36*
G01*
X111959588Y-92820800D02*
X112910812Y-92820800D01*
G75*
G02*
X113185200Y-93095188I0J-274388D01*
G01*
X113185200Y-93671412D01*
G75*
G02*
X112910812Y-93945800I-274388J0D01*
G01*
X111959588Y-93945800D01*
G75*
G02*
X111685200Y-93671412I0J274388D01*
G01*
X111685200Y-93095188D01*
G75*
G02*
X111959588Y-92820800I274388J0D01*
G01*
G37*
G36*
G01*
X111959588Y-90995800D02*
X112910812Y-90995800D01*
G75*
G02*
X113185200Y-91270188I0J-274388D01*
G01*
X113185200Y-91846412D01*
G75*
G02*
X112910812Y-92120800I-274388J0D01*
G01*
X111959588Y-92120800D01*
G75*
G02*
X111685200Y-91846412I0J274388D01*
G01*
X111685200Y-91270188D01*
G75*
G02*
X111959588Y-90995800I274388J0D01*
G01*
G37*
G36*
G01*
X75026000Y-95598612D02*
X75026000Y-94647388D01*
G75*
G02*
X75300388Y-94373000I274388J0D01*
G01*
X75876612Y-94373000D01*
G75*
G02*
X76151000Y-94647388I0J-274388D01*
G01*
X76151000Y-95598612D01*
G75*
G02*
X75876612Y-95873000I-274388J0D01*
G01*
X75300388Y-95873000D01*
G75*
G02*
X75026000Y-95598612I0J274388D01*
G01*
G37*
G36*
G01*
X73201000Y-95598612D02*
X73201000Y-94647388D01*
G75*
G02*
X73475388Y-94373000I274388J0D01*
G01*
X74051612Y-94373000D01*
G75*
G02*
X74326000Y-94647388I0J-274388D01*
G01*
X74326000Y-95598612D01*
G75*
G02*
X74051612Y-95873000I-274388J0D01*
G01*
X73475388Y-95873000D01*
G75*
G02*
X73201000Y-95598612I0J274388D01*
G01*
G37*
G36*
G01*
X116301600Y-88337588D02*
X116301600Y-89288812D01*
G75*
G02*
X116027212Y-89563200I-274388J0D01*
G01*
X115450988Y-89563200D01*
G75*
G02*
X115176600Y-89288812I0J274388D01*
G01*
X115176600Y-88337588D01*
G75*
G02*
X115450988Y-88063200I274388J0D01*
G01*
X116027212Y-88063200D01*
G75*
G02*
X116301600Y-88337588I0J-274388D01*
G01*
G37*
G36*
G01*
X118126600Y-88337588D02*
X118126600Y-89288812D01*
G75*
G02*
X117852212Y-89563200I-274388J0D01*
G01*
X117275988Y-89563200D01*
G75*
G02*
X117001600Y-89288812I0J274388D01*
G01*
X117001600Y-88337588D01*
G75*
G02*
X117275988Y-88063200I274388J0D01*
G01*
X117852212Y-88063200D01*
G75*
G02*
X118126600Y-88337588I0J-274388D01*
G01*
G37*
G36*
G01*
X106956800Y-93734400D02*
X107956800Y-93734400D01*
G75*
G02*
X108231800Y-94009400I0J-275000D01*
G01*
X108231800Y-94559400D01*
G75*
G02*
X107956800Y-94834400I-275000J0D01*
G01*
X106956800Y-94834400D01*
G75*
G02*
X106681800Y-94559400I0J275000D01*
G01*
X106681800Y-94009400D01*
G75*
G02*
X106956800Y-93734400I275000J0D01*
G01*
G37*
G36*
G01*
X106956800Y-91834400D02*
X107956800Y-91834400D01*
G75*
G02*
X108231800Y-92109400I0J-275000D01*
G01*
X108231800Y-92659400D01*
G75*
G02*
X107956800Y-92934400I-275000J0D01*
G01*
X106956800Y-92934400D01*
G75*
G02*
X106681800Y-92659400I0J275000D01*
G01*
X106681800Y-92109400D01*
G75*
G02*
X106956800Y-91834400I275000J0D01*
G01*
G37*
G36*
G01*
X81363480Y-94159240D02*
X82363480Y-94159240D01*
G75*
G02*
X82638480Y-94434240I0J-275000D01*
G01*
X82638480Y-94984240D01*
G75*
G02*
X82363480Y-95259240I-275000J0D01*
G01*
X81363480Y-95259240D01*
G75*
G02*
X81088480Y-94984240I0J275000D01*
G01*
X81088480Y-94434240D01*
G75*
G02*
X81363480Y-94159240I275000J0D01*
G01*
G37*
G36*
G01*
X81363480Y-92259240D02*
X82363480Y-92259240D01*
G75*
G02*
X82638480Y-92534240I0J-275000D01*
G01*
X82638480Y-93084240D01*
G75*
G02*
X82363480Y-93359240I-275000J0D01*
G01*
X81363480Y-93359240D01*
G75*
G02*
X81088480Y-93084240I0J275000D01*
G01*
X81088480Y-92534240D01*
G75*
G02*
X81363480Y-92259240I275000J0D01*
G01*
G37*
G36*
G01*
X90108134Y-91702400D02*
X91108134Y-91702400D01*
G75*
G02*
X91383134Y-91977400I0J-275000D01*
G01*
X91383134Y-92527400D01*
G75*
G02*
X91108134Y-92802400I-275000J0D01*
G01*
X90108134Y-92802400D01*
G75*
G02*
X89833134Y-92527400I0J275000D01*
G01*
X89833134Y-91977400D01*
G75*
G02*
X90108134Y-91702400I275000J0D01*
G01*
G37*
G36*
G01*
X90108134Y-89802400D02*
X91108134Y-89802400D01*
G75*
G02*
X91383134Y-90077400I0J-275000D01*
G01*
X91383134Y-90627400D01*
G75*
G02*
X91108134Y-90902400I-275000J0D01*
G01*
X90108134Y-90902400D01*
G75*
G02*
X89833134Y-90627400I0J275000D01*
G01*
X89833134Y-90077400D01*
G75*
G02*
X90108134Y-89802400I275000J0D01*
G01*
G37*
G36*
G01*
X116099200Y-95374400D02*
X116099200Y-96374400D01*
G75*
G02*
X115824200Y-96649400I-275000J0D01*
G01*
X115274200Y-96649400D01*
G75*
G02*
X114999200Y-96374400I0J275000D01*
G01*
X114999200Y-95374400D01*
G75*
G02*
X115274200Y-95099400I275000J0D01*
G01*
X115824200Y-95099400D01*
G75*
G02*
X116099200Y-95374400I0J-275000D01*
G01*
G37*
G36*
G01*
X117999200Y-95374400D02*
X117999200Y-96374400D01*
G75*
G02*
X117724200Y-96649400I-275000J0D01*
G01*
X117174200Y-96649400D01*
G75*
G02*
X116899200Y-96374400I0J275000D01*
G01*
X116899200Y-95374400D01*
G75*
G02*
X117174200Y-95099400I275000J0D01*
G01*
X117724200Y-95099400D01*
G75*
G02*
X117999200Y-95374400I0J-275000D01*
G01*
G37*
G36*
G01*
X92106267Y-95969600D02*
X93106267Y-95969600D01*
G75*
G02*
X93381267Y-96244600I0J-275000D01*
G01*
X93381267Y-96794600D01*
G75*
G02*
X93106267Y-97069600I-275000J0D01*
G01*
X92106267Y-97069600D01*
G75*
G02*
X91831267Y-96794600I0J275000D01*
G01*
X91831267Y-96244600D01*
G75*
G02*
X92106267Y-95969600I275000J0D01*
G01*
G37*
G36*
G01*
X92106267Y-94069600D02*
X93106267Y-94069600D01*
G75*
G02*
X93381267Y-94344600I0J-275000D01*
G01*
X93381267Y-94894600D01*
G75*
G02*
X93106267Y-95169600I-275000J0D01*
G01*
X92106267Y-95169600D01*
G75*
G02*
X91831267Y-94894600I0J275000D01*
G01*
X91831267Y-94344600D01*
G75*
G02*
X92106267Y-94069600I275000J0D01*
G01*
G37*
G36*
G01*
X94561600Y-95969600D02*
X95561600Y-95969600D01*
G75*
G02*
X95836600Y-96244600I0J-275000D01*
G01*
X95836600Y-96794600D01*
G75*
G02*
X95561600Y-97069600I-275000J0D01*
G01*
X94561600Y-97069600D01*
G75*
G02*
X94286600Y-96794600I0J275000D01*
G01*
X94286600Y-96244600D01*
G75*
G02*
X94561600Y-95969600I275000J0D01*
G01*
G37*
G36*
G01*
X94561600Y-94069600D02*
X95561600Y-94069600D01*
G75*
G02*
X95836600Y-94344600I0J-275000D01*
G01*
X95836600Y-94894600D01*
G75*
G02*
X95561600Y-95169600I-275000J0D01*
G01*
X94561600Y-95169600D01*
G75*
G02*
X94286600Y-94894600I0J275000D01*
G01*
X94286600Y-94344600D01*
G75*
G02*
X94561600Y-94069600I275000J0D01*
G01*
G37*
M02*
