M48
; DRILL file {KiCad (5.1.9)-1} date 03/16/21 21:00:27
; FORMAT={-:-/ absolute / metric / decimal}
; #@! TF.CreationDate,2021-03-16T21:00:27+08:00
; #@! TF.GenerationSoftware,Kicad,Pcbnew,(5.1.9)-1
FMAT,2
METRIC
T1C0.400
T2C0.500
T3C0.600
T4C0.700
T5C0.800
T6C1.000
%
G90
G05
T1
X41.129Y-87.442
X41.129Y-91.252
X43.834Y-69.403
X45.193Y-87.442
X45.193Y-91.252
X47.898Y-69.403
X49.403Y-85.725
X49.403Y-94.996
X51.196Y-95.011
X51.962Y-69.403
X53.213Y-94.996
X56.026Y-69.403
X65.424Y-69.149
X67.752Y-78.721
X67.752Y-82.785
X67.752Y-86.849
X67.752Y-90.913
X69.488Y-69.149
X69.977Y-92.202
X69.977Y-99.822
X72.028Y-76.769
X72.028Y-81.087
X72.409Y-88.707
X73.552Y-69.149
X76.092Y-76.769
X76.092Y-81.087
X76.473Y-88.707
X77.616Y-69.149
X80.156Y-76.769
X80.156Y-81.087
X80.537Y-88.707
X83.312Y-84.582
X83.312Y-86.487
X84.22Y-76.769
X84.22Y-81.087
X84.601Y-88.707
X85.236Y-69.149
X85.852Y-92.964
X85.852Y-96.647
X88.138Y-85.496
X88.138Y-88.798
X89.22Y-72.917
X89.22Y-76.981
X89.22Y-81.045
X89.3Y-69.149
X91.421Y-98.237
X93.364Y-69.149
X93.842Y-91.404
X95.485Y-98.237
X96.52Y-91.44
X97.136Y-87.569
X97.155Y-75.819
X97.428Y-69.149
X98.298Y-94.234
X99.822Y-83.693
X100.057Y-98.237
X101.2Y-87.569
X104.121Y-98.237
X105.264Y-87.569
X106.426Y-76.073
X106.572Y-69.276
X107.95Y-78.994
X108.077Y-72.136
X108.077Y-73.787
X108.185Y-98.237
X109.328Y-87.569
X110.49Y-81.026
X110.636Y-69.276
X111.252Y-72.136
X111.252Y-73.787
X112.249Y-98.237
X114.7Y-69.276
X115.189Y-99.441
X116.586Y-99.441
X118.764Y-69.276
X122.409Y-76.393
X122.409Y-80.203
X126.473Y-76.393
X126.473Y-80.203
T2
X47.244Y-83.058
X54.991Y-99.441
X69.088Y-96.901
X73.763Y-92.583
X73.763Y-95.227
X88.519Y-96.139
X95.377Y-83.312
T3
X92.327Y-71.97
X93.927Y-71.97
T4
X114.162Y-72.557
X116.702Y-72.557
T5
X42.676Y-77.228
X47.65Y-75.895
X52.625Y-74.562
X60.049Y-77.228
X65.024Y-75.895
X69.999Y-74.562
T6
X35.778Y-79.161
X35.778Y-81.701
X35.778Y-84.241
X35.778Y-86.781
X35.778Y-89.321
X103.952Y-92.064
X103.952Y-94.604
X119.547Y-77.129
X119.547Y-79.669
T3
G00X122.998Y-83.985
M15
G01X122.398Y-83.985
M16
G05
G00X122.998Y-92.625
M15
G01X122.398Y-92.625
M16
G05
G00X126.798Y-83.985
M15
G01X126.198Y-83.985
M16
G05
G00X126.798Y-92.625
M15
G01X126.198Y-92.625
M16
G05
T0
M30
