G04 #@! TF.GenerationSoftware,KiCad,Pcbnew,(5.1.9)-1*
G04 #@! TF.CreationDate,2021-03-16T21:09:54+08:00*
G04 #@! TF.ProjectId,driver,64726976-6572-42e6-9b69-6361645f7063,v1.0*
G04 #@! TF.SameCoordinates,Original*
G04 #@! TF.FileFunction,Legend,Bot*
G04 #@! TF.FilePolarity,Positive*
%FSLAX46Y46*%
G04 Gerber Fmt 4.6, Leading zero omitted, Abs format (unit mm)*
G04 Created by KiCad (PCBNEW (5.1.9)-1) date 2021-03-16 21:09:54*
%MOMM*%
%LPD*%
G01*
G04 APERTURE LIST*
%ADD10C,0.120000*%
%ADD11C,0.150000*%
%ADD12O,1.800000X1.800000*%
%ADD13C,1.100000*%
G04 APERTURE END LIST*
D10*
X34498800Y-43642800D02*
X37158800Y-43642800D01*
X34498800Y-53862800D02*
X34498800Y-43642800D01*
X37158800Y-53862800D02*
X37158800Y-43642800D01*
X34498800Y-53862800D02*
X37158800Y-53862800D01*
X34498800Y-55132800D02*
X34498800Y-56462800D01*
X34498800Y-56462800D02*
X35828800Y-56462800D01*
X111641736Y-59305400D02*
X112095864Y-59305400D01*
X111641736Y-57835400D02*
X112095864Y-57835400D01*
X97022000Y-49274000D02*
X97022000Y-53134000D01*
X97022000Y-53134000D02*
X96757000Y-53134000D01*
X97022000Y-49274000D02*
X97022000Y-45414000D01*
X97022000Y-45414000D02*
X96757000Y-45414000D01*
X81402000Y-49274000D02*
X81402000Y-53134000D01*
X81402000Y-53134000D02*
X81667000Y-53134000D01*
X81402000Y-49274000D02*
X81402000Y-45414000D01*
X81402000Y-45414000D02*
X81667000Y-45414000D01*
X81667000Y-45414000D02*
X81667000Y-43599000D01*
X91626536Y-59305400D02*
X92080664Y-59305400D01*
X91626536Y-57835400D02*
X92080664Y-57835400D01*
X117037200Y-49274000D02*
X117037200Y-53134000D01*
X117037200Y-53134000D02*
X116772200Y-53134000D01*
X117037200Y-49274000D02*
X117037200Y-45414000D01*
X117037200Y-45414000D02*
X116772200Y-45414000D01*
X101417200Y-49274000D02*
X101417200Y-53134000D01*
X101417200Y-53134000D02*
X101682200Y-53134000D01*
X101417200Y-49274000D02*
X101417200Y-45414000D01*
X101417200Y-45414000D02*
X101682200Y-45414000D01*
X101682200Y-45414000D02*
X101682200Y-43599000D01*
X107304052Y-57835400D02*
X106781548Y-57835400D01*
X107304052Y-59305400D02*
X106781548Y-59305400D01*
X87288852Y-57835400D02*
X86766348Y-57835400D01*
X87288852Y-59305400D02*
X86766348Y-59305400D01*
X56991600Y-49274000D02*
X56991600Y-53134000D01*
X56991600Y-53134000D02*
X56726600Y-53134000D01*
X56991600Y-49274000D02*
X56991600Y-45414000D01*
X56991600Y-45414000D02*
X56726600Y-45414000D01*
X41371600Y-49274000D02*
X41371600Y-53134000D01*
X41371600Y-53134000D02*
X41636600Y-53134000D01*
X41371600Y-49274000D02*
X41371600Y-45414000D01*
X41371600Y-45414000D02*
X41636600Y-45414000D01*
X41636600Y-45414000D02*
X41636600Y-43599000D01*
X71611336Y-59305400D02*
X72065464Y-59305400D01*
X71611336Y-57835400D02*
X72065464Y-57835400D01*
X51596136Y-59305400D02*
X52050264Y-59305400D01*
X51596136Y-57835400D02*
X52050264Y-57835400D01*
X77006800Y-49274000D02*
X77006800Y-53134000D01*
X77006800Y-53134000D02*
X76741800Y-53134000D01*
X77006800Y-49274000D02*
X77006800Y-45414000D01*
X77006800Y-45414000D02*
X76741800Y-45414000D01*
X61386800Y-49274000D02*
X61386800Y-53134000D01*
X61386800Y-53134000D02*
X61651800Y-53134000D01*
X61386800Y-49274000D02*
X61386800Y-45414000D01*
X61386800Y-45414000D02*
X61651800Y-45414000D01*
X61651800Y-45414000D02*
X61651800Y-43599000D01*
X67273652Y-57835400D02*
X66751148Y-57835400D01*
X67273652Y-59305400D02*
X66751148Y-59305400D01*
X47258452Y-57835400D02*
X46735948Y-57835400D01*
X47258452Y-59305400D02*
X46735948Y-59305400D01*
D11*
X36162133Y-56915180D02*
X36162133Y-57629466D01*
X36209752Y-57772323D01*
X36304990Y-57867561D01*
X36447847Y-57915180D01*
X36543085Y-57915180D01*
X35733561Y-57010419D02*
X35685942Y-56962800D01*
X35590704Y-56915180D01*
X35352609Y-56915180D01*
X35257371Y-56962800D01*
X35209752Y-57010419D01*
X35162133Y-57105657D01*
X35162133Y-57200895D01*
X35209752Y-57343752D01*
X35781180Y-57915180D01*
X35162133Y-57915180D01*
X112402857Y-60904380D02*
X112736190Y-60428190D01*
X112974285Y-60904380D02*
X112974285Y-59904380D01*
X112593333Y-59904380D01*
X112498095Y-59952000D01*
X112450476Y-59999619D01*
X112402857Y-60094857D01*
X112402857Y-60237714D01*
X112450476Y-60332952D01*
X112498095Y-60380571D01*
X112593333Y-60428190D01*
X112974285Y-60428190D01*
X111450476Y-60904380D02*
X112021904Y-60904380D01*
X111736190Y-60904380D02*
X111736190Y-59904380D01*
X111831428Y-60047238D01*
X111926666Y-60142476D01*
X112021904Y-60190095D01*
X110593333Y-60237714D02*
X110593333Y-60904380D01*
X110831428Y-59856761D02*
X111069523Y-60571047D01*
X110450476Y-60571047D01*
X80014380Y-48035904D02*
X80823904Y-48035904D01*
X80919142Y-48083523D01*
X80966761Y-48131142D01*
X81014380Y-48226380D01*
X81014380Y-48416857D01*
X80966761Y-48512095D01*
X80919142Y-48559714D01*
X80823904Y-48607333D01*
X80014380Y-48607333D01*
X81014380Y-49607333D02*
X81014380Y-49035904D01*
X81014380Y-49321619D02*
X80014380Y-49321619D01*
X80157238Y-49226380D01*
X80252476Y-49131142D01*
X80300095Y-49035904D01*
X80014380Y-50226380D02*
X80014380Y-50321619D01*
X80062000Y-50416857D01*
X80109619Y-50464476D01*
X80204857Y-50512095D01*
X80395333Y-50559714D01*
X80633428Y-50559714D01*
X80823904Y-50512095D01*
X80919142Y-50464476D01*
X80966761Y-50416857D01*
X81014380Y-50321619D01*
X81014380Y-50226380D01*
X80966761Y-50131142D01*
X80919142Y-50083523D01*
X80823904Y-50035904D01*
X80633428Y-49988285D01*
X80395333Y-49988285D01*
X80204857Y-50035904D01*
X80109619Y-50083523D01*
X80062000Y-50131142D01*
X80014380Y-50226380D01*
X92496457Y-60904380D02*
X92829790Y-60428190D01*
X93067885Y-60904380D02*
X93067885Y-59904380D01*
X92686933Y-59904380D01*
X92591695Y-59952000D01*
X92544076Y-59999619D01*
X92496457Y-60094857D01*
X92496457Y-60237714D01*
X92544076Y-60332952D01*
X92591695Y-60380571D01*
X92686933Y-60428190D01*
X93067885Y-60428190D01*
X91544076Y-60904380D02*
X92115504Y-60904380D01*
X91829790Y-60904380D02*
X91829790Y-59904380D01*
X91925028Y-60047238D01*
X92020266Y-60142476D01*
X92115504Y-60190095D01*
X91210742Y-59904380D02*
X90591695Y-59904380D01*
X90925028Y-60285333D01*
X90782171Y-60285333D01*
X90686933Y-60332952D01*
X90639314Y-60380571D01*
X90591695Y-60475809D01*
X90591695Y-60713904D01*
X90639314Y-60809142D01*
X90686933Y-60856761D01*
X90782171Y-60904380D01*
X91067885Y-60904380D01*
X91163123Y-60856761D01*
X91210742Y-60809142D01*
X100029580Y-48035904D02*
X100839104Y-48035904D01*
X100934342Y-48083523D01*
X100981961Y-48131142D01*
X101029580Y-48226380D01*
X101029580Y-48416857D01*
X100981961Y-48512095D01*
X100934342Y-48559714D01*
X100839104Y-48607333D01*
X100029580Y-48607333D01*
X101029580Y-49607333D02*
X101029580Y-49035904D01*
X101029580Y-49321619D02*
X100029580Y-49321619D01*
X100172438Y-49226380D01*
X100267676Y-49131142D01*
X100315295Y-49035904D01*
X100124819Y-49988285D02*
X100077200Y-50035904D01*
X100029580Y-50131142D01*
X100029580Y-50369238D01*
X100077200Y-50464476D01*
X100124819Y-50512095D01*
X100220057Y-50559714D01*
X100315295Y-50559714D01*
X100458152Y-50512095D01*
X101029580Y-49940666D01*
X101029580Y-50559714D01*
X107830857Y-60809142D02*
X107878476Y-60856761D01*
X108021333Y-60904380D01*
X108116571Y-60904380D01*
X108259428Y-60856761D01*
X108354666Y-60761523D01*
X108402285Y-60666285D01*
X108449904Y-60475809D01*
X108449904Y-60332952D01*
X108402285Y-60142476D01*
X108354666Y-60047238D01*
X108259428Y-59952000D01*
X108116571Y-59904380D01*
X108021333Y-59904380D01*
X107878476Y-59952000D01*
X107830857Y-59999619D01*
X106878476Y-60904380D02*
X107449904Y-60904380D01*
X107164190Y-60904380D02*
X107164190Y-59904380D01*
X107259428Y-60047238D01*
X107354666Y-60142476D01*
X107449904Y-60190095D01*
X106497523Y-59999619D02*
X106449904Y-59952000D01*
X106354666Y-59904380D01*
X106116571Y-59904380D01*
X106021333Y-59952000D01*
X105973714Y-59999619D01*
X105926095Y-60094857D01*
X105926095Y-60190095D01*
X105973714Y-60332952D01*
X106545142Y-60904380D01*
X105926095Y-60904380D01*
X87670457Y-60809142D02*
X87718076Y-60856761D01*
X87860933Y-60904380D01*
X87956171Y-60904380D01*
X88099028Y-60856761D01*
X88194266Y-60761523D01*
X88241885Y-60666285D01*
X88289504Y-60475809D01*
X88289504Y-60332952D01*
X88241885Y-60142476D01*
X88194266Y-60047238D01*
X88099028Y-59952000D01*
X87956171Y-59904380D01*
X87860933Y-59904380D01*
X87718076Y-59952000D01*
X87670457Y-59999619D01*
X86718076Y-60904380D02*
X87289504Y-60904380D01*
X87003790Y-60904380D02*
X87003790Y-59904380D01*
X87099028Y-60047238D01*
X87194266Y-60142476D01*
X87289504Y-60190095D01*
X85765695Y-60904380D02*
X86337123Y-60904380D01*
X86051409Y-60904380D02*
X86051409Y-59904380D01*
X86146647Y-60047238D01*
X86241885Y-60142476D01*
X86337123Y-60190095D01*
X39983980Y-48512095D02*
X40793504Y-48512095D01*
X40888742Y-48559714D01*
X40936361Y-48607333D01*
X40983980Y-48702571D01*
X40983980Y-48893047D01*
X40936361Y-48988285D01*
X40888742Y-49035904D01*
X40793504Y-49083523D01*
X39983980Y-49083523D01*
X39983980Y-50035904D02*
X39983980Y-49559714D01*
X40460171Y-49512095D01*
X40412552Y-49559714D01*
X40364933Y-49654952D01*
X40364933Y-49893047D01*
X40412552Y-49988285D01*
X40460171Y-50035904D01*
X40555409Y-50083523D01*
X40793504Y-50083523D01*
X40888742Y-50035904D01*
X40936361Y-49988285D01*
X40983980Y-49893047D01*
X40983980Y-49654952D01*
X40936361Y-49559714D01*
X40888742Y-49512095D01*
X72481257Y-60904380D02*
X72814590Y-60428190D01*
X73052685Y-60904380D02*
X73052685Y-59904380D01*
X72671733Y-59904380D01*
X72576495Y-59952000D01*
X72528876Y-59999619D01*
X72481257Y-60094857D01*
X72481257Y-60237714D01*
X72528876Y-60332952D01*
X72576495Y-60380571D01*
X72671733Y-60428190D01*
X73052685Y-60428190D01*
X71528876Y-60904380D02*
X72100304Y-60904380D01*
X71814590Y-60904380D02*
X71814590Y-59904380D01*
X71909828Y-60047238D01*
X72005066Y-60142476D01*
X72100304Y-60190095D01*
X71147923Y-59999619D02*
X71100304Y-59952000D01*
X71005066Y-59904380D01*
X70766971Y-59904380D01*
X70671733Y-59952000D01*
X70624114Y-59999619D01*
X70576495Y-60094857D01*
X70576495Y-60190095D01*
X70624114Y-60332952D01*
X71195542Y-60904380D01*
X70576495Y-60904380D01*
X51982666Y-60904380D02*
X52316000Y-60428190D01*
X52554095Y-60904380D02*
X52554095Y-59904380D01*
X52173142Y-59904380D01*
X52077904Y-59952000D01*
X52030285Y-59999619D01*
X51982666Y-60094857D01*
X51982666Y-60237714D01*
X52030285Y-60332952D01*
X52077904Y-60380571D01*
X52173142Y-60428190D01*
X52554095Y-60428190D01*
X51506476Y-60904380D02*
X51316000Y-60904380D01*
X51220761Y-60856761D01*
X51173142Y-60809142D01*
X51077904Y-60666285D01*
X51030285Y-60475809D01*
X51030285Y-60094857D01*
X51077904Y-59999619D01*
X51125523Y-59952000D01*
X51220761Y-59904380D01*
X51411238Y-59904380D01*
X51506476Y-59952000D01*
X51554095Y-59999619D01*
X51601714Y-60094857D01*
X51601714Y-60332952D01*
X51554095Y-60428190D01*
X51506476Y-60475809D01*
X51411238Y-60523428D01*
X51220761Y-60523428D01*
X51125523Y-60475809D01*
X51077904Y-60428190D01*
X51030285Y-60332952D01*
X59999180Y-48512095D02*
X60808704Y-48512095D01*
X60903942Y-48559714D01*
X60951561Y-48607333D01*
X60999180Y-48702571D01*
X60999180Y-48893047D01*
X60951561Y-48988285D01*
X60903942Y-49035904D01*
X60808704Y-49083523D01*
X59999180Y-49083523D01*
X60427752Y-49702571D02*
X60380133Y-49607333D01*
X60332514Y-49559714D01*
X60237276Y-49512095D01*
X60189657Y-49512095D01*
X60094419Y-49559714D01*
X60046800Y-49607333D01*
X59999180Y-49702571D01*
X59999180Y-49893047D01*
X60046800Y-49988285D01*
X60094419Y-50035904D01*
X60189657Y-50083523D01*
X60237276Y-50083523D01*
X60332514Y-50035904D01*
X60380133Y-49988285D01*
X60427752Y-49893047D01*
X60427752Y-49702571D01*
X60475371Y-49607333D01*
X60522990Y-49559714D01*
X60618228Y-49512095D01*
X60808704Y-49512095D01*
X60903942Y-49559714D01*
X60951561Y-49607333D01*
X60999180Y-49702571D01*
X60999180Y-49893047D01*
X60951561Y-49988285D01*
X60903942Y-50035904D01*
X60808704Y-50083523D01*
X60618228Y-50083523D01*
X60522990Y-50035904D01*
X60475371Y-49988285D01*
X60427752Y-49893047D01*
X67179066Y-60809142D02*
X67226685Y-60856761D01*
X67369542Y-60904380D01*
X67464780Y-60904380D01*
X67607638Y-60856761D01*
X67702876Y-60761523D01*
X67750495Y-60666285D01*
X67798114Y-60475809D01*
X67798114Y-60332952D01*
X67750495Y-60142476D01*
X67702876Y-60047238D01*
X67607638Y-59952000D01*
X67464780Y-59904380D01*
X67369542Y-59904380D01*
X67226685Y-59952000D01*
X67179066Y-59999619D01*
X66702876Y-60904380D02*
X66512400Y-60904380D01*
X66417161Y-60856761D01*
X66369542Y-60809142D01*
X66274304Y-60666285D01*
X66226685Y-60475809D01*
X66226685Y-60094857D01*
X66274304Y-59999619D01*
X66321923Y-59952000D01*
X66417161Y-59904380D01*
X66607638Y-59904380D01*
X66702876Y-59952000D01*
X66750495Y-59999619D01*
X66798114Y-60094857D01*
X66798114Y-60332952D01*
X66750495Y-60428190D01*
X66702876Y-60475809D01*
X66607638Y-60523428D01*
X66417161Y-60523428D01*
X66321923Y-60475809D01*
X66274304Y-60428190D01*
X66226685Y-60332952D01*
X47163866Y-60809142D02*
X47211485Y-60856761D01*
X47354342Y-60904380D01*
X47449580Y-60904380D01*
X47592438Y-60856761D01*
X47687676Y-60761523D01*
X47735295Y-60666285D01*
X47782914Y-60475809D01*
X47782914Y-60332952D01*
X47735295Y-60142476D01*
X47687676Y-60047238D01*
X47592438Y-59952000D01*
X47449580Y-59904380D01*
X47354342Y-59904380D01*
X47211485Y-59952000D01*
X47163866Y-59999619D01*
X46592438Y-60332952D02*
X46687676Y-60285333D01*
X46735295Y-60237714D01*
X46782914Y-60142476D01*
X46782914Y-60094857D01*
X46735295Y-59999619D01*
X46687676Y-59952000D01*
X46592438Y-59904380D01*
X46401961Y-59904380D01*
X46306723Y-59952000D01*
X46259104Y-59999619D01*
X46211485Y-60094857D01*
X46211485Y-60142476D01*
X46259104Y-60237714D01*
X46306723Y-60285333D01*
X46401961Y-60332952D01*
X46592438Y-60332952D01*
X46687676Y-60380571D01*
X46735295Y-60428190D01*
X46782914Y-60523428D01*
X46782914Y-60713904D01*
X46735295Y-60809142D01*
X46687676Y-60856761D01*
X46592438Y-60904380D01*
X46401961Y-60904380D01*
X46306723Y-60856761D01*
X46259104Y-60809142D01*
X46211485Y-60713904D01*
X46211485Y-60523428D01*
X46259104Y-60428190D01*
X46306723Y-60380571D01*
X46401961Y-60332952D01*
%LPC*%
D12*
X35828800Y-44972800D03*
X35828800Y-47512800D03*
X35828800Y-50052800D03*
X35828800Y-52592800D03*
G36*
G01*
X34928800Y-55982800D02*
X34928800Y-54282800D01*
G75*
G02*
X34978800Y-54232800I50000J0D01*
G01*
X36678800Y-54232800D01*
G75*
G02*
X36728800Y-54282800I0J-50000D01*
G01*
X36728800Y-55982800D01*
G75*
G02*
X36678800Y-56032800I-50000J0D01*
G01*
X34978800Y-56032800D01*
G75*
G02*
X34928800Y-55982800I0J50000D01*
G01*
G37*
G36*
G01*
X112218800Y-59046012D02*
X112218800Y-58094788D01*
G75*
G02*
X112493188Y-57820400I274388J0D01*
G01*
X113069412Y-57820400D01*
G75*
G02*
X113343800Y-58094788I0J-274388D01*
G01*
X113343800Y-59046012D01*
G75*
G02*
X113069412Y-59320400I-274388J0D01*
G01*
X112493188Y-59320400D01*
G75*
G02*
X112218800Y-59046012I0J274388D01*
G01*
G37*
G36*
G01*
X110393800Y-59046012D02*
X110393800Y-58094788D01*
G75*
G02*
X110668188Y-57820400I274388J0D01*
G01*
X111244412Y-57820400D01*
G75*
G02*
X111518800Y-58094788I0J-274388D01*
G01*
X111518800Y-59046012D01*
G75*
G02*
X111244412Y-59320400I-274388J0D01*
G01*
X110668188Y-59320400D01*
G75*
G02*
X110393800Y-59046012I0J274388D01*
G01*
G37*
G36*
G01*
X82052000Y-52849000D02*
X82402000Y-52849000D01*
G75*
G02*
X82577000Y-53024000I0J-175000D01*
G01*
X82577000Y-54824000D01*
G75*
G02*
X82402000Y-54999000I-175000J0D01*
G01*
X82052000Y-54999000D01*
G75*
G02*
X81877000Y-54824000I0J175000D01*
G01*
X81877000Y-53024000D01*
G75*
G02*
X82052000Y-52849000I175000J0D01*
G01*
G37*
G36*
G01*
X83322000Y-52849000D02*
X83672000Y-52849000D01*
G75*
G02*
X83847000Y-53024000I0J-175000D01*
G01*
X83847000Y-54824000D01*
G75*
G02*
X83672000Y-54999000I-175000J0D01*
G01*
X83322000Y-54999000D01*
G75*
G02*
X83147000Y-54824000I0J175000D01*
G01*
X83147000Y-53024000D01*
G75*
G02*
X83322000Y-52849000I175000J0D01*
G01*
G37*
G36*
G01*
X84592000Y-52849000D02*
X84942000Y-52849000D01*
G75*
G02*
X85117000Y-53024000I0J-175000D01*
G01*
X85117000Y-54824000D01*
G75*
G02*
X84942000Y-54999000I-175000J0D01*
G01*
X84592000Y-54999000D01*
G75*
G02*
X84417000Y-54824000I0J175000D01*
G01*
X84417000Y-53024000D01*
G75*
G02*
X84592000Y-52849000I175000J0D01*
G01*
G37*
G36*
G01*
X85862000Y-52849000D02*
X86212000Y-52849000D01*
G75*
G02*
X86387000Y-53024000I0J-175000D01*
G01*
X86387000Y-54824000D01*
G75*
G02*
X86212000Y-54999000I-175000J0D01*
G01*
X85862000Y-54999000D01*
G75*
G02*
X85687000Y-54824000I0J175000D01*
G01*
X85687000Y-53024000D01*
G75*
G02*
X85862000Y-52849000I175000J0D01*
G01*
G37*
G36*
G01*
X87132000Y-52849000D02*
X87482000Y-52849000D01*
G75*
G02*
X87657000Y-53024000I0J-175000D01*
G01*
X87657000Y-54824000D01*
G75*
G02*
X87482000Y-54999000I-175000J0D01*
G01*
X87132000Y-54999000D01*
G75*
G02*
X86957000Y-54824000I0J175000D01*
G01*
X86957000Y-53024000D01*
G75*
G02*
X87132000Y-52849000I175000J0D01*
G01*
G37*
G36*
G01*
X88402000Y-52849000D02*
X88752000Y-52849000D01*
G75*
G02*
X88927000Y-53024000I0J-175000D01*
G01*
X88927000Y-54824000D01*
G75*
G02*
X88752000Y-54999000I-175000J0D01*
G01*
X88402000Y-54999000D01*
G75*
G02*
X88227000Y-54824000I0J175000D01*
G01*
X88227000Y-53024000D01*
G75*
G02*
X88402000Y-52849000I175000J0D01*
G01*
G37*
G36*
G01*
X89672000Y-52849000D02*
X90022000Y-52849000D01*
G75*
G02*
X90197000Y-53024000I0J-175000D01*
G01*
X90197000Y-54824000D01*
G75*
G02*
X90022000Y-54999000I-175000J0D01*
G01*
X89672000Y-54999000D01*
G75*
G02*
X89497000Y-54824000I0J175000D01*
G01*
X89497000Y-53024000D01*
G75*
G02*
X89672000Y-52849000I175000J0D01*
G01*
G37*
G36*
G01*
X90942000Y-52849000D02*
X91292000Y-52849000D01*
G75*
G02*
X91467000Y-53024000I0J-175000D01*
G01*
X91467000Y-54824000D01*
G75*
G02*
X91292000Y-54999000I-175000J0D01*
G01*
X90942000Y-54999000D01*
G75*
G02*
X90767000Y-54824000I0J175000D01*
G01*
X90767000Y-53024000D01*
G75*
G02*
X90942000Y-52849000I175000J0D01*
G01*
G37*
G36*
G01*
X92212000Y-52849000D02*
X92562000Y-52849000D01*
G75*
G02*
X92737000Y-53024000I0J-175000D01*
G01*
X92737000Y-54824000D01*
G75*
G02*
X92562000Y-54999000I-175000J0D01*
G01*
X92212000Y-54999000D01*
G75*
G02*
X92037000Y-54824000I0J175000D01*
G01*
X92037000Y-53024000D01*
G75*
G02*
X92212000Y-52849000I175000J0D01*
G01*
G37*
G36*
G01*
X93482000Y-52849000D02*
X93832000Y-52849000D01*
G75*
G02*
X94007000Y-53024000I0J-175000D01*
G01*
X94007000Y-54824000D01*
G75*
G02*
X93832000Y-54999000I-175000J0D01*
G01*
X93482000Y-54999000D01*
G75*
G02*
X93307000Y-54824000I0J175000D01*
G01*
X93307000Y-53024000D01*
G75*
G02*
X93482000Y-52849000I175000J0D01*
G01*
G37*
G36*
G01*
X94752000Y-52849000D02*
X95102000Y-52849000D01*
G75*
G02*
X95277000Y-53024000I0J-175000D01*
G01*
X95277000Y-54824000D01*
G75*
G02*
X95102000Y-54999000I-175000J0D01*
G01*
X94752000Y-54999000D01*
G75*
G02*
X94577000Y-54824000I0J175000D01*
G01*
X94577000Y-53024000D01*
G75*
G02*
X94752000Y-52849000I175000J0D01*
G01*
G37*
G36*
G01*
X96022000Y-52849000D02*
X96372000Y-52849000D01*
G75*
G02*
X96547000Y-53024000I0J-175000D01*
G01*
X96547000Y-54824000D01*
G75*
G02*
X96372000Y-54999000I-175000J0D01*
G01*
X96022000Y-54999000D01*
G75*
G02*
X95847000Y-54824000I0J175000D01*
G01*
X95847000Y-53024000D01*
G75*
G02*
X96022000Y-52849000I175000J0D01*
G01*
G37*
G36*
G01*
X96022000Y-43549000D02*
X96372000Y-43549000D01*
G75*
G02*
X96547000Y-43724000I0J-175000D01*
G01*
X96547000Y-45524000D01*
G75*
G02*
X96372000Y-45699000I-175000J0D01*
G01*
X96022000Y-45699000D01*
G75*
G02*
X95847000Y-45524000I0J175000D01*
G01*
X95847000Y-43724000D01*
G75*
G02*
X96022000Y-43549000I175000J0D01*
G01*
G37*
G36*
G01*
X94752000Y-43549000D02*
X95102000Y-43549000D01*
G75*
G02*
X95277000Y-43724000I0J-175000D01*
G01*
X95277000Y-45524000D01*
G75*
G02*
X95102000Y-45699000I-175000J0D01*
G01*
X94752000Y-45699000D01*
G75*
G02*
X94577000Y-45524000I0J175000D01*
G01*
X94577000Y-43724000D01*
G75*
G02*
X94752000Y-43549000I175000J0D01*
G01*
G37*
G36*
G01*
X93482000Y-43549000D02*
X93832000Y-43549000D01*
G75*
G02*
X94007000Y-43724000I0J-175000D01*
G01*
X94007000Y-45524000D01*
G75*
G02*
X93832000Y-45699000I-175000J0D01*
G01*
X93482000Y-45699000D01*
G75*
G02*
X93307000Y-45524000I0J175000D01*
G01*
X93307000Y-43724000D01*
G75*
G02*
X93482000Y-43549000I175000J0D01*
G01*
G37*
G36*
G01*
X92212000Y-43549000D02*
X92562000Y-43549000D01*
G75*
G02*
X92737000Y-43724000I0J-175000D01*
G01*
X92737000Y-45524000D01*
G75*
G02*
X92562000Y-45699000I-175000J0D01*
G01*
X92212000Y-45699000D01*
G75*
G02*
X92037000Y-45524000I0J175000D01*
G01*
X92037000Y-43724000D01*
G75*
G02*
X92212000Y-43549000I175000J0D01*
G01*
G37*
G36*
G01*
X90942000Y-43549000D02*
X91292000Y-43549000D01*
G75*
G02*
X91467000Y-43724000I0J-175000D01*
G01*
X91467000Y-45524000D01*
G75*
G02*
X91292000Y-45699000I-175000J0D01*
G01*
X90942000Y-45699000D01*
G75*
G02*
X90767000Y-45524000I0J175000D01*
G01*
X90767000Y-43724000D01*
G75*
G02*
X90942000Y-43549000I175000J0D01*
G01*
G37*
G36*
G01*
X89672000Y-43549000D02*
X90022000Y-43549000D01*
G75*
G02*
X90197000Y-43724000I0J-175000D01*
G01*
X90197000Y-45524000D01*
G75*
G02*
X90022000Y-45699000I-175000J0D01*
G01*
X89672000Y-45699000D01*
G75*
G02*
X89497000Y-45524000I0J175000D01*
G01*
X89497000Y-43724000D01*
G75*
G02*
X89672000Y-43549000I175000J0D01*
G01*
G37*
G36*
G01*
X88402000Y-43549000D02*
X88752000Y-43549000D01*
G75*
G02*
X88927000Y-43724000I0J-175000D01*
G01*
X88927000Y-45524000D01*
G75*
G02*
X88752000Y-45699000I-175000J0D01*
G01*
X88402000Y-45699000D01*
G75*
G02*
X88227000Y-45524000I0J175000D01*
G01*
X88227000Y-43724000D01*
G75*
G02*
X88402000Y-43549000I175000J0D01*
G01*
G37*
G36*
G01*
X87132000Y-43549000D02*
X87482000Y-43549000D01*
G75*
G02*
X87657000Y-43724000I0J-175000D01*
G01*
X87657000Y-45524000D01*
G75*
G02*
X87482000Y-45699000I-175000J0D01*
G01*
X87132000Y-45699000D01*
G75*
G02*
X86957000Y-45524000I0J175000D01*
G01*
X86957000Y-43724000D01*
G75*
G02*
X87132000Y-43549000I175000J0D01*
G01*
G37*
G36*
G01*
X85862000Y-43549000D02*
X86212000Y-43549000D01*
G75*
G02*
X86387000Y-43724000I0J-175000D01*
G01*
X86387000Y-45524000D01*
G75*
G02*
X86212000Y-45699000I-175000J0D01*
G01*
X85862000Y-45699000D01*
G75*
G02*
X85687000Y-45524000I0J175000D01*
G01*
X85687000Y-43724000D01*
G75*
G02*
X85862000Y-43549000I175000J0D01*
G01*
G37*
G36*
G01*
X84592000Y-43549000D02*
X84942000Y-43549000D01*
G75*
G02*
X85117000Y-43724000I0J-175000D01*
G01*
X85117000Y-45524000D01*
G75*
G02*
X84942000Y-45699000I-175000J0D01*
G01*
X84592000Y-45699000D01*
G75*
G02*
X84417000Y-45524000I0J175000D01*
G01*
X84417000Y-43724000D01*
G75*
G02*
X84592000Y-43549000I175000J0D01*
G01*
G37*
G36*
G01*
X83322000Y-43549000D02*
X83672000Y-43549000D01*
G75*
G02*
X83847000Y-43724000I0J-175000D01*
G01*
X83847000Y-45524000D01*
G75*
G02*
X83672000Y-45699000I-175000J0D01*
G01*
X83322000Y-45699000D01*
G75*
G02*
X83147000Y-45524000I0J175000D01*
G01*
X83147000Y-43724000D01*
G75*
G02*
X83322000Y-43549000I175000J0D01*
G01*
G37*
G36*
G01*
X82052000Y-43549000D02*
X82402000Y-43549000D01*
G75*
G02*
X82577000Y-43724000I0J-175000D01*
G01*
X82577000Y-45524000D01*
G75*
G02*
X82402000Y-45699000I-175000J0D01*
G01*
X82052000Y-45699000D01*
G75*
G02*
X81877000Y-45524000I0J175000D01*
G01*
X81877000Y-43724000D01*
G75*
G02*
X82052000Y-43549000I175000J0D01*
G01*
G37*
G36*
G01*
X92203600Y-59046012D02*
X92203600Y-58094788D01*
G75*
G02*
X92477988Y-57820400I274388J0D01*
G01*
X93054212Y-57820400D01*
G75*
G02*
X93328600Y-58094788I0J-274388D01*
G01*
X93328600Y-59046012D01*
G75*
G02*
X93054212Y-59320400I-274388J0D01*
G01*
X92477988Y-59320400D01*
G75*
G02*
X92203600Y-59046012I0J274388D01*
G01*
G37*
G36*
G01*
X90378600Y-59046012D02*
X90378600Y-58094788D01*
G75*
G02*
X90652988Y-57820400I274388J0D01*
G01*
X91229212Y-57820400D01*
G75*
G02*
X91503600Y-58094788I0J-274388D01*
G01*
X91503600Y-59046012D01*
G75*
G02*
X91229212Y-59320400I-274388J0D01*
G01*
X90652988Y-59320400D01*
G75*
G02*
X90378600Y-59046012I0J274388D01*
G01*
G37*
G36*
G01*
X102067200Y-52849000D02*
X102417200Y-52849000D01*
G75*
G02*
X102592200Y-53024000I0J-175000D01*
G01*
X102592200Y-54824000D01*
G75*
G02*
X102417200Y-54999000I-175000J0D01*
G01*
X102067200Y-54999000D01*
G75*
G02*
X101892200Y-54824000I0J175000D01*
G01*
X101892200Y-53024000D01*
G75*
G02*
X102067200Y-52849000I175000J0D01*
G01*
G37*
G36*
G01*
X103337200Y-52849000D02*
X103687200Y-52849000D01*
G75*
G02*
X103862200Y-53024000I0J-175000D01*
G01*
X103862200Y-54824000D01*
G75*
G02*
X103687200Y-54999000I-175000J0D01*
G01*
X103337200Y-54999000D01*
G75*
G02*
X103162200Y-54824000I0J175000D01*
G01*
X103162200Y-53024000D01*
G75*
G02*
X103337200Y-52849000I175000J0D01*
G01*
G37*
G36*
G01*
X104607200Y-52849000D02*
X104957200Y-52849000D01*
G75*
G02*
X105132200Y-53024000I0J-175000D01*
G01*
X105132200Y-54824000D01*
G75*
G02*
X104957200Y-54999000I-175000J0D01*
G01*
X104607200Y-54999000D01*
G75*
G02*
X104432200Y-54824000I0J175000D01*
G01*
X104432200Y-53024000D01*
G75*
G02*
X104607200Y-52849000I175000J0D01*
G01*
G37*
G36*
G01*
X105877200Y-52849000D02*
X106227200Y-52849000D01*
G75*
G02*
X106402200Y-53024000I0J-175000D01*
G01*
X106402200Y-54824000D01*
G75*
G02*
X106227200Y-54999000I-175000J0D01*
G01*
X105877200Y-54999000D01*
G75*
G02*
X105702200Y-54824000I0J175000D01*
G01*
X105702200Y-53024000D01*
G75*
G02*
X105877200Y-52849000I175000J0D01*
G01*
G37*
G36*
G01*
X107147200Y-52849000D02*
X107497200Y-52849000D01*
G75*
G02*
X107672200Y-53024000I0J-175000D01*
G01*
X107672200Y-54824000D01*
G75*
G02*
X107497200Y-54999000I-175000J0D01*
G01*
X107147200Y-54999000D01*
G75*
G02*
X106972200Y-54824000I0J175000D01*
G01*
X106972200Y-53024000D01*
G75*
G02*
X107147200Y-52849000I175000J0D01*
G01*
G37*
G36*
G01*
X108417200Y-52849000D02*
X108767200Y-52849000D01*
G75*
G02*
X108942200Y-53024000I0J-175000D01*
G01*
X108942200Y-54824000D01*
G75*
G02*
X108767200Y-54999000I-175000J0D01*
G01*
X108417200Y-54999000D01*
G75*
G02*
X108242200Y-54824000I0J175000D01*
G01*
X108242200Y-53024000D01*
G75*
G02*
X108417200Y-52849000I175000J0D01*
G01*
G37*
G36*
G01*
X109687200Y-52849000D02*
X110037200Y-52849000D01*
G75*
G02*
X110212200Y-53024000I0J-175000D01*
G01*
X110212200Y-54824000D01*
G75*
G02*
X110037200Y-54999000I-175000J0D01*
G01*
X109687200Y-54999000D01*
G75*
G02*
X109512200Y-54824000I0J175000D01*
G01*
X109512200Y-53024000D01*
G75*
G02*
X109687200Y-52849000I175000J0D01*
G01*
G37*
G36*
G01*
X110957200Y-52849000D02*
X111307200Y-52849000D01*
G75*
G02*
X111482200Y-53024000I0J-175000D01*
G01*
X111482200Y-54824000D01*
G75*
G02*
X111307200Y-54999000I-175000J0D01*
G01*
X110957200Y-54999000D01*
G75*
G02*
X110782200Y-54824000I0J175000D01*
G01*
X110782200Y-53024000D01*
G75*
G02*
X110957200Y-52849000I175000J0D01*
G01*
G37*
G36*
G01*
X112227200Y-52849000D02*
X112577200Y-52849000D01*
G75*
G02*
X112752200Y-53024000I0J-175000D01*
G01*
X112752200Y-54824000D01*
G75*
G02*
X112577200Y-54999000I-175000J0D01*
G01*
X112227200Y-54999000D01*
G75*
G02*
X112052200Y-54824000I0J175000D01*
G01*
X112052200Y-53024000D01*
G75*
G02*
X112227200Y-52849000I175000J0D01*
G01*
G37*
G36*
G01*
X113497200Y-52849000D02*
X113847200Y-52849000D01*
G75*
G02*
X114022200Y-53024000I0J-175000D01*
G01*
X114022200Y-54824000D01*
G75*
G02*
X113847200Y-54999000I-175000J0D01*
G01*
X113497200Y-54999000D01*
G75*
G02*
X113322200Y-54824000I0J175000D01*
G01*
X113322200Y-53024000D01*
G75*
G02*
X113497200Y-52849000I175000J0D01*
G01*
G37*
G36*
G01*
X114767200Y-52849000D02*
X115117200Y-52849000D01*
G75*
G02*
X115292200Y-53024000I0J-175000D01*
G01*
X115292200Y-54824000D01*
G75*
G02*
X115117200Y-54999000I-175000J0D01*
G01*
X114767200Y-54999000D01*
G75*
G02*
X114592200Y-54824000I0J175000D01*
G01*
X114592200Y-53024000D01*
G75*
G02*
X114767200Y-52849000I175000J0D01*
G01*
G37*
G36*
G01*
X116037200Y-52849000D02*
X116387200Y-52849000D01*
G75*
G02*
X116562200Y-53024000I0J-175000D01*
G01*
X116562200Y-54824000D01*
G75*
G02*
X116387200Y-54999000I-175000J0D01*
G01*
X116037200Y-54999000D01*
G75*
G02*
X115862200Y-54824000I0J175000D01*
G01*
X115862200Y-53024000D01*
G75*
G02*
X116037200Y-52849000I175000J0D01*
G01*
G37*
G36*
G01*
X116037200Y-43549000D02*
X116387200Y-43549000D01*
G75*
G02*
X116562200Y-43724000I0J-175000D01*
G01*
X116562200Y-45524000D01*
G75*
G02*
X116387200Y-45699000I-175000J0D01*
G01*
X116037200Y-45699000D01*
G75*
G02*
X115862200Y-45524000I0J175000D01*
G01*
X115862200Y-43724000D01*
G75*
G02*
X116037200Y-43549000I175000J0D01*
G01*
G37*
G36*
G01*
X114767200Y-43549000D02*
X115117200Y-43549000D01*
G75*
G02*
X115292200Y-43724000I0J-175000D01*
G01*
X115292200Y-45524000D01*
G75*
G02*
X115117200Y-45699000I-175000J0D01*
G01*
X114767200Y-45699000D01*
G75*
G02*
X114592200Y-45524000I0J175000D01*
G01*
X114592200Y-43724000D01*
G75*
G02*
X114767200Y-43549000I175000J0D01*
G01*
G37*
G36*
G01*
X113497200Y-43549000D02*
X113847200Y-43549000D01*
G75*
G02*
X114022200Y-43724000I0J-175000D01*
G01*
X114022200Y-45524000D01*
G75*
G02*
X113847200Y-45699000I-175000J0D01*
G01*
X113497200Y-45699000D01*
G75*
G02*
X113322200Y-45524000I0J175000D01*
G01*
X113322200Y-43724000D01*
G75*
G02*
X113497200Y-43549000I175000J0D01*
G01*
G37*
G36*
G01*
X112227200Y-43549000D02*
X112577200Y-43549000D01*
G75*
G02*
X112752200Y-43724000I0J-175000D01*
G01*
X112752200Y-45524000D01*
G75*
G02*
X112577200Y-45699000I-175000J0D01*
G01*
X112227200Y-45699000D01*
G75*
G02*
X112052200Y-45524000I0J175000D01*
G01*
X112052200Y-43724000D01*
G75*
G02*
X112227200Y-43549000I175000J0D01*
G01*
G37*
G36*
G01*
X110957200Y-43549000D02*
X111307200Y-43549000D01*
G75*
G02*
X111482200Y-43724000I0J-175000D01*
G01*
X111482200Y-45524000D01*
G75*
G02*
X111307200Y-45699000I-175000J0D01*
G01*
X110957200Y-45699000D01*
G75*
G02*
X110782200Y-45524000I0J175000D01*
G01*
X110782200Y-43724000D01*
G75*
G02*
X110957200Y-43549000I175000J0D01*
G01*
G37*
G36*
G01*
X109687200Y-43549000D02*
X110037200Y-43549000D01*
G75*
G02*
X110212200Y-43724000I0J-175000D01*
G01*
X110212200Y-45524000D01*
G75*
G02*
X110037200Y-45699000I-175000J0D01*
G01*
X109687200Y-45699000D01*
G75*
G02*
X109512200Y-45524000I0J175000D01*
G01*
X109512200Y-43724000D01*
G75*
G02*
X109687200Y-43549000I175000J0D01*
G01*
G37*
G36*
G01*
X108417200Y-43549000D02*
X108767200Y-43549000D01*
G75*
G02*
X108942200Y-43724000I0J-175000D01*
G01*
X108942200Y-45524000D01*
G75*
G02*
X108767200Y-45699000I-175000J0D01*
G01*
X108417200Y-45699000D01*
G75*
G02*
X108242200Y-45524000I0J175000D01*
G01*
X108242200Y-43724000D01*
G75*
G02*
X108417200Y-43549000I175000J0D01*
G01*
G37*
G36*
G01*
X107147200Y-43549000D02*
X107497200Y-43549000D01*
G75*
G02*
X107672200Y-43724000I0J-175000D01*
G01*
X107672200Y-45524000D01*
G75*
G02*
X107497200Y-45699000I-175000J0D01*
G01*
X107147200Y-45699000D01*
G75*
G02*
X106972200Y-45524000I0J175000D01*
G01*
X106972200Y-43724000D01*
G75*
G02*
X107147200Y-43549000I175000J0D01*
G01*
G37*
G36*
G01*
X105877200Y-43549000D02*
X106227200Y-43549000D01*
G75*
G02*
X106402200Y-43724000I0J-175000D01*
G01*
X106402200Y-45524000D01*
G75*
G02*
X106227200Y-45699000I-175000J0D01*
G01*
X105877200Y-45699000D01*
G75*
G02*
X105702200Y-45524000I0J175000D01*
G01*
X105702200Y-43724000D01*
G75*
G02*
X105877200Y-43549000I175000J0D01*
G01*
G37*
G36*
G01*
X104607200Y-43549000D02*
X104957200Y-43549000D01*
G75*
G02*
X105132200Y-43724000I0J-175000D01*
G01*
X105132200Y-45524000D01*
G75*
G02*
X104957200Y-45699000I-175000J0D01*
G01*
X104607200Y-45699000D01*
G75*
G02*
X104432200Y-45524000I0J175000D01*
G01*
X104432200Y-43724000D01*
G75*
G02*
X104607200Y-43549000I175000J0D01*
G01*
G37*
G36*
G01*
X103337200Y-43549000D02*
X103687200Y-43549000D01*
G75*
G02*
X103862200Y-43724000I0J-175000D01*
G01*
X103862200Y-45524000D01*
G75*
G02*
X103687200Y-45699000I-175000J0D01*
G01*
X103337200Y-45699000D01*
G75*
G02*
X103162200Y-45524000I0J175000D01*
G01*
X103162200Y-43724000D01*
G75*
G02*
X103337200Y-43549000I175000J0D01*
G01*
G37*
G36*
G01*
X102067200Y-43549000D02*
X102417200Y-43549000D01*
G75*
G02*
X102592200Y-43724000I0J-175000D01*
G01*
X102592200Y-45524000D01*
G75*
G02*
X102417200Y-45699000I-175000J0D01*
G01*
X102067200Y-45699000D01*
G75*
G02*
X101892200Y-45524000I0J175000D01*
G01*
X101892200Y-43724000D01*
G75*
G02*
X102067200Y-43549000I175000J0D01*
G01*
G37*
G36*
G01*
X106642800Y-58070400D02*
X106642800Y-59070400D01*
G75*
G02*
X106367800Y-59345400I-275000J0D01*
G01*
X105817800Y-59345400D01*
G75*
G02*
X105542800Y-59070400I0J275000D01*
G01*
X105542800Y-58070400D01*
G75*
G02*
X105817800Y-57795400I275000J0D01*
G01*
X106367800Y-57795400D01*
G75*
G02*
X106642800Y-58070400I0J-275000D01*
G01*
G37*
G36*
G01*
X108542800Y-58070400D02*
X108542800Y-59070400D01*
G75*
G02*
X108267800Y-59345400I-275000J0D01*
G01*
X107717800Y-59345400D01*
G75*
G02*
X107442800Y-59070400I0J275000D01*
G01*
X107442800Y-58070400D01*
G75*
G02*
X107717800Y-57795400I275000J0D01*
G01*
X108267800Y-57795400D01*
G75*
G02*
X108542800Y-58070400I0J-275000D01*
G01*
G37*
G36*
G01*
X101482120Y-57384360D02*
X101482120Y-56384360D01*
G75*
G02*
X101532120Y-56334360I50000J0D01*
G01*
X102532120Y-56334360D01*
G75*
G02*
X102582120Y-56384360I0J-50000D01*
G01*
X102582120Y-57384360D01*
G75*
G02*
X102532120Y-57434360I-50000J0D01*
G01*
X101532120Y-57434360D01*
G75*
G02*
X101482120Y-57384360I0J50000D01*
G01*
G37*
D13*
X104532120Y-56884360D03*
X107032120Y-56884360D03*
X109532120Y-56884360D03*
X112032120Y-56884360D03*
X114532120Y-56884360D03*
X117032120Y-56884360D03*
X119532120Y-56884360D03*
X119532120Y-41884360D03*
X117032120Y-41884360D03*
X114532120Y-41884360D03*
X112032120Y-41884360D03*
X109532120Y-41884360D03*
X107032120Y-41884360D03*
X104532120Y-41884360D03*
X102032120Y-41884360D03*
G36*
G01*
X86627600Y-58070400D02*
X86627600Y-59070400D01*
G75*
G02*
X86352600Y-59345400I-275000J0D01*
G01*
X85802600Y-59345400D01*
G75*
G02*
X85527600Y-59070400I0J275000D01*
G01*
X85527600Y-58070400D01*
G75*
G02*
X85802600Y-57795400I275000J0D01*
G01*
X86352600Y-57795400D01*
G75*
G02*
X86627600Y-58070400I0J-275000D01*
G01*
G37*
G36*
G01*
X88527600Y-58070400D02*
X88527600Y-59070400D01*
G75*
G02*
X88252600Y-59345400I-275000J0D01*
G01*
X87702600Y-59345400D01*
G75*
G02*
X87427600Y-59070400I0J275000D01*
G01*
X87427600Y-58070400D01*
G75*
G02*
X87702600Y-57795400I275000J0D01*
G01*
X88252600Y-57795400D01*
G75*
G02*
X88527600Y-58070400I0J-275000D01*
G01*
G37*
G36*
G01*
X81466920Y-57384360D02*
X81466920Y-56384360D01*
G75*
G02*
X81516920Y-56334360I50000J0D01*
G01*
X82516920Y-56334360D01*
G75*
G02*
X82566920Y-56384360I0J-50000D01*
G01*
X82566920Y-57384360D01*
G75*
G02*
X82516920Y-57434360I-50000J0D01*
G01*
X81516920Y-57434360D01*
G75*
G02*
X81466920Y-57384360I0J50000D01*
G01*
G37*
X84516920Y-56884360D03*
X87016920Y-56884360D03*
X89516920Y-56884360D03*
X92016920Y-56884360D03*
X94516920Y-56884360D03*
X97016920Y-56884360D03*
X99516920Y-56884360D03*
X99516920Y-41884360D03*
X97016920Y-41884360D03*
X94516920Y-41884360D03*
X92016920Y-41884360D03*
X89516920Y-41884360D03*
X87016920Y-41884360D03*
X84516920Y-41884360D03*
X82016920Y-41884360D03*
G36*
G01*
X42021600Y-52849000D02*
X42371600Y-52849000D01*
G75*
G02*
X42546600Y-53024000I0J-175000D01*
G01*
X42546600Y-54824000D01*
G75*
G02*
X42371600Y-54999000I-175000J0D01*
G01*
X42021600Y-54999000D01*
G75*
G02*
X41846600Y-54824000I0J175000D01*
G01*
X41846600Y-53024000D01*
G75*
G02*
X42021600Y-52849000I175000J0D01*
G01*
G37*
G36*
G01*
X43291600Y-52849000D02*
X43641600Y-52849000D01*
G75*
G02*
X43816600Y-53024000I0J-175000D01*
G01*
X43816600Y-54824000D01*
G75*
G02*
X43641600Y-54999000I-175000J0D01*
G01*
X43291600Y-54999000D01*
G75*
G02*
X43116600Y-54824000I0J175000D01*
G01*
X43116600Y-53024000D01*
G75*
G02*
X43291600Y-52849000I175000J0D01*
G01*
G37*
G36*
G01*
X44561600Y-52849000D02*
X44911600Y-52849000D01*
G75*
G02*
X45086600Y-53024000I0J-175000D01*
G01*
X45086600Y-54824000D01*
G75*
G02*
X44911600Y-54999000I-175000J0D01*
G01*
X44561600Y-54999000D01*
G75*
G02*
X44386600Y-54824000I0J175000D01*
G01*
X44386600Y-53024000D01*
G75*
G02*
X44561600Y-52849000I175000J0D01*
G01*
G37*
G36*
G01*
X45831600Y-52849000D02*
X46181600Y-52849000D01*
G75*
G02*
X46356600Y-53024000I0J-175000D01*
G01*
X46356600Y-54824000D01*
G75*
G02*
X46181600Y-54999000I-175000J0D01*
G01*
X45831600Y-54999000D01*
G75*
G02*
X45656600Y-54824000I0J175000D01*
G01*
X45656600Y-53024000D01*
G75*
G02*
X45831600Y-52849000I175000J0D01*
G01*
G37*
G36*
G01*
X47101600Y-52849000D02*
X47451600Y-52849000D01*
G75*
G02*
X47626600Y-53024000I0J-175000D01*
G01*
X47626600Y-54824000D01*
G75*
G02*
X47451600Y-54999000I-175000J0D01*
G01*
X47101600Y-54999000D01*
G75*
G02*
X46926600Y-54824000I0J175000D01*
G01*
X46926600Y-53024000D01*
G75*
G02*
X47101600Y-52849000I175000J0D01*
G01*
G37*
G36*
G01*
X48371600Y-52849000D02*
X48721600Y-52849000D01*
G75*
G02*
X48896600Y-53024000I0J-175000D01*
G01*
X48896600Y-54824000D01*
G75*
G02*
X48721600Y-54999000I-175000J0D01*
G01*
X48371600Y-54999000D01*
G75*
G02*
X48196600Y-54824000I0J175000D01*
G01*
X48196600Y-53024000D01*
G75*
G02*
X48371600Y-52849000I175000J0D01*
G01*
G37*
G36*
G01*
X49641600Y-52849000D02*
X49991600Y-52849000D01*
G75*
G02*
X50166600Y-53024000I0J-175000D01*
G01*
X50166600Y-54824000D01*
G75*
G02*
X49991600Y-54999000I-175000J0D01*
G01*
X49641600Y-54999000D01*
G75*
G02*
X49466600Y-54824000I0J175000D01*
G01*
X49466600Y-53024000D01*
G75*
G02*
X49641600Y-52849000I175000J0D01*
G01*
G37*
G36*
G01*
X50911600Y-52849000D02*
X51261600Y-52849000D01*
G75*
G02*
X51436600Y-53024000I0J-175000D01*
G01*
X51436600Y-54824000D01*
G75*
G02*
X51261600Y-54999000I-175000J0D01*
G01*
X50911600Y-54999000D01*
G75*
G02*
X50736600Y-54824000I0J175000D01*
G01*
X50736600Y-53024000D01*
G75*
G02*
X50911600Y-52849000I175000J0D01*
G01*
G37*
G36*
G01*
X52181600Y-52849000D02*
X52531600Y-52849000D01*
G75*
G02*
X52706600Y-53024000I0J-175000D01*
G01*
X52706600Y-54824000D01*
G75*
G02*
X52531600Y-54999000I-175000J0D01*
G01*
X52181600Y-54999000D01*
G75*
G02*
X52006600Y-54824000I0J175000D01*
G01*
X52006600Y-53024000D01*
G75*
G02*
X52181600Y-52849000I175000J0D01*
G01*
G37*
G36*
G01*
X53451600Y-52849000D02*
X53801600Y-52849000D01*
G75*
G02*
X53976600Y-53024000I0J-175000D01*
G01*
X53976600Y-54824000D01*
G75*
G02*
X53801600Y-54999000I-175000J0D01*
G01*
X53451600Y-54999000D01*
G75*
G02*
X53276600Y-54824000I0J175000D01*
G01*
X53276600Y-53024000D01*
G75*
G02*
X53451600Y-52849000I175000J0D01*
G01*
G37*
G36*
G01*
X54721600Y-52849000D02*
X55071600Y-52849000D01*
G75*
G02*
X55246600Y-53024000I0J-175000D01*
G01*
X55246600Y-54824000D01*
G75*
G02*
X55071600Y-54999000I-175000J0D01*
G01*
X54721600Y-54999000D01*
G75*
G02*
X54546600Y-54824000I0J175000D01*
G01*
X54546600Y-53024000D01*
G75*
G02*
X54721600Y-52849000I175000J0D01*
G01*
G37*
G36*
G01*
X55991600Y-52849000D02*
X56341600Y-52849000D01*
G75*
G02*
X56516600Y-53024000I0J-175000D01*
G01*
X56516600Y-54824000D01*
G75*
G02*
X56341600Y-54999000I-175000J0D01*
G01*
X55991600Y-54999000D01*
G75*
G02*
X55816600Y-54824000I0J175000D01*
G01*
X55816600Y-53024000D01*
G75*
G02*
X55991600Y-52849000I175000J0D01*
G01*
G37*
G36*
G01*
X55991600Y-43549000D02*
X56341600Y-43549000D01*
G75*
G02*
X56516600Y-43724000I0J-175000D01*
G01*
X56516600Y-45524000D01*
G75*
G02*
X56341600Y-45699000I-175000J0D01*
G01*
X55991600Y-45699000D01*
G75*
G02*
X55816600Y-45524000I0J175000D01*
G01*
X55816600Y-43724000D01*
G75*
G02*
X55991600Y-43549000I175000J0D01*
G01*
G37*
G36*
G01*
X54721600Y-43549000D02*
X55071600Y-43549000D01*
G75*
G02*
X55246600Y-43724000I0J-175000D01*
G01*
X55246600Y-45524000D01*
G75*
G02*
X55071600Y-45699000I-175000J0D01*
G01*
X54721600Y-45699000D01*
G75*
G02*
X54546600Y-45524000I0J175000D01*
G01*
X54546600Y-43724000D01*
G75*
G02*
X54721600Y-43549000I175000J0D01*
G01*
G37*
G36*
G01*
X53451600Y-43549000D02*
X53801600Y-43549000D01*
G75*
G02*
X53976600Y-43724000I0J-175000D01*
G01*
X53976600Y-45524000D01*
G75*
G02*
X53801600Y-45699000I-175000J0D01*
G01*
X53451600Y-45699000D01*
G75*
G02*
X53276600Y-45524000I0J175000D01*
G01*
X53276600Y-43724000D01*
G75*
G02*
X53451600Y-43549000I175000J0D01*
G01*
G37*
G36*
G01*
X52181600Y-43549000D02*
X52531600Y-43549000D01*
G75*
G02*
X52706600Y-43724000I0J-175000D01*
G01*
X52706600Y-45524000D01*
G75*
G02*
X52531600Y-45699000I-175000J0D01*
G01*
X52181600Y-45699000D01*
G75*
G02*
X52006600Y-45524000I0J175000D01*
G01*
X52006600Y-43724000D01*
G75*
G02*
X52181600Y-43549000I175000J0D01*
G01*
G37*
G36*
G01*
X50911600Y-43549000D02*
X51261600Y-43549000D01*
G75*
G02*
X51436600Y-43724000I0J-175000D01*
G01*
X51436600Y-45524000D01*
G75*
G02*
X51261600Y-45699000I-175000J0D01*
G01*
X50911600Y-45699000D01*
G75*
G02*
X50736600Y-45524000I0J175000D01*
G01*
X50736600Y-43724000D01*
G75*
G02*
X50911600Y-43549000I175000J0D01*
G01*
G37*
G36*
G01*
X49641600Y-43549000D02*
X49991600Y-43549000D01*
G75*
G02*
X50166600Y-43724000I0J-175000D01*
G01*
X50166600Y-45524000D01*
G75*
G02*
X49991600Y-45699000I-175000J0D01*
G01*
X49641600Y-45699000D01*
G75*
G02*
X49466600Y-45524000I0J175000D01*
G01*
X49466600Y-43724000D01*
G75*
G02*
X49641600Y-43549000I175000J0D01*
G01*
G37*
G36*
G01*
X48371600Y-43549000D02*
X48721600Y-43549000D01*
G75*
G02*
X48896600Y-43724000I0J-175000D01*
G01*
X48896600Y-45524000D01*
G75*
G02*
X48721600Y-45699000I-175000J0D01*
G01*
X48371600Y-45699000D01*
G75*
G02*
X48196600Y-45524000I0J175000D01*
G01*
X48196600Y-43724000D01*
G75*
G02*
X48371600Y-43549000I175000J0D01*
G01*
G37*
G36*
G01*
X47101600Y-43549000D02*
X47451600Y-43549000D01*
G75*
G02*
X47626600Y-43724000I0J-175000D01*
G01*
X47626600Y-45524000D01*
G75*
G02*
X47451600Y-45699000I-175000J0D01*
G01*
X47101600Y-45699000D01*
G75*
G02*
X46926600Y-45524000I0J175000D01*
G01*
X46926600Y-43724000D01*
G75*
G02*
X47101600Y-43549000I175000J0D01*
G01*
G37*
G36*
G01*
X45831600Y-43549000D02*
X46181600Y-43549000D01*
G75*
G02*
X46356600Y-43724000I0J-175000D01*
G01*
X46356600Y-45524000D01*
G75*
G02*
X46181600Y-45699000I-175000J0D01*
G01*
X45831600Y-45699000D01*
G75*
G02*
X45656600Y-45524000I0J175000D01*
G01*
X45656600Y-43724000D01*
G75*
G02*
X45831600Y-43549000I175000J0D01*
G01*
G37*
G36*
G01*
X44561600Y-43549000D02*
X44911600Y-43549000D01*
G75*
G02*
X45086600Y-43724000I0J-175000D01*
G01*
X45086600Y-45524000D01*
G75*
G02*
X44911600Y-45699000I-175000J0D01*
G01*
X44561600Y-45699000D01*
G75*
G02*
X44386600Y-45524000I0J175000D01*
G01*
X44386600Y-43724000D01*
G75*
G02*
X44561600Y-43549000I175000J0D01*
G01*
G37*
G36*
G01*
X43291600Y-43549000D02*
X43641600Y-43549000D01*
G75*
G02*
X43816600Y-43724000I0J-175000D01*
G01*
X43816600Y-45524000D01*
G75*
G02*
X43641600Y-45699000I-175000J0D01*
G01*
X43291600Y-45699000D01*
G75*
G02*
X43116600Y-45524000I0J175000D01*
G01*
X43116600Y-43724000D01*
G75*
G02*
X43291600Y-43549000I175000J0D01*
G01*
G37*
G36*
G01*
X42021600Y-43549000D02*
X42371600Y-43549000D01*
G75*
G02*
X42546600Y-43724000I0J-175000D01*
G01*
X42546600Y-45524000D01*
G75*
G02*
X42371600Y-45699000I-175000J0D01*
G01*
X42021600Y-45699000D01*
G75*
G02*
X41846600Y-45524000I0J175000D01*
G01*
X41846600Y-43724000D01*
G75*
G02*
X42021600Y-43549000I175000J0D01*
G01*
G37*
G36*
G01*
X72188400Y-59046012D02*
X72188400Y-58094788D01*
G75*
G02*
X72462788Y-57820400I274388J0D01*
G01*
X73039012Y-57820400D01*
G75*
G02*
X73313400Y-58094788I0J-274388D01*
G01*
X73313400Y-59046012D01*
G75*
G02*
X73039012Y-59320400I-274388J0D01*
G01*
X72462788Y-59320400D01*
G75*
G02*
X72188400Y-59046012I0J274388D01*
G01*
G37*
G36*
G01*
X70363400Y-59046012D02*
X70363400Y-58094788D01*
G75*
G02*
X70637788Y-57820400I274388J0D01*
G01*
X71214012Y-57820400D01*
G75*
G02*
X71488400Y-58094788I0J-274388D01*
G01*
X71488400Y-59046012D01*
G75*
G02*
X71214012Y-59320400I-274388J0D01*
G01*
X70637788Y-59320400D01*
G75*
G02*
X70363400Y-59046012I0J274388D01*
G01*
G37*
G36*
G01*
X52173200Y-59046012D02*
X52173200Y-58094788D01*
G75*
G02*
X52447588Y-57820400I274388J0D01*
G01*
X53023812Y-57820400D01*
G75*
G02*
X53298200Y-58094788I0J-274388D01*
G01*
X53298200Y-59046012D01*
G75*
G02*
X53023812Y-59320400I-274388J0D01*
G01*
X52447588Y-59320400D01*
G75*
G02*
X52173200Y-59046012I0J274388D01*
G01*
G37*
G36*
G01*
X50348200Y-59046012D02*
X50348200Y-58094788D01*
G75*
G02*
X50622588Y-57820400I274388J0D01*
G01*
X51198812Y-57820400D01*
G75*
G02*
X51473200Y-58094788I0J-274388D01*
G01*
X51473200Y-59046012D01*
G75*
G02*
X51198812Y-59320400I-274388J0D01*
G01*
X50622588Y-59320400D01*
G75*
G02*
X50348200Y-59046012I0J274388D01*
G01*
G37*
G36*
G01*
X62036800Y-52849000D02*
X62386800Y-52849000D01*
G75*
G02*
X62561800Y-53024000I0J-175000D01*
G01*
X62561800Y-54824000D01*
G75*
G02*
X62386800Y-54999000I-175000J0D01*
G01*
X62036800Y-54999000D01*
G75*
G02*
X61861800Y-54824000I0J175000D01*
G01*
X61861800Y-53024000D01*
G75*
G02*
X62036800Y-52849000I175000J0D01*
G01*
G37*
G36*
G01*
X63306800Y-52849000D02*
X63656800Y-52849000D01*
G75*
G02*
X63831800Y-53024000I0J-175000D01*
G01*
X63831800Y-54824000D01*
G75*
G02*
X63656800Y-54999000I-175000J0D01*
G01*
X63306800Y-54999000D01*
G75*
G02*
X63131800Y-54824000I0J175000D01*
G01*
X63131800Y-53024000D01*
G75*
G02*
X63306800Y-52849000I175000J0D01*
G01*
G37*
G36*
G01*
X64576800Y-52849000D02*
X64926800Y-52849000D01*
G75*
G02*
X65101800Y-53024000I0J-175000D01*
G01*
X65101800Y-54824000D01*
G75*
G02*
X64926800Y-54999000I-175000J0D01*
G01*
X64576800Y-54999000D01*
G75*
G02*
X64401800Y-54824000I0J175000D01*
G01*
X64401800Y-53024000D01*
G75*
G02*
X64576800Y-52849000I175000J0D01*
G01*
G37*
G36*
G01*
X65846800Y-52849000D02*
X66196800Y-52849000D01*
G75*
G02*
X66371800Y-53024000I0J-175000D01*
G01*
X66371800Y-54824000D01*
G75*
G02*
X66196800Y-54999000I-175000J0D01*
G01*
X65846800Y-54999000D01*
G75*
G02*
X65671800Y-54824000I0J175000D01*
G01*
X65671800Y-53024000D01*
G75*
G02*
X65846800Y-52849000I175000J0D01*
G01*
G37*
G36*
G01*
X67116800Y-52849000D02*
X67466800Y-52849000D01*
G75*
G02*
X67641800Y-53024000I0J-175000D01*
G01*
X67641800Y-54824000D01*
G75*
G02*
X67466800Y-54999000I-175000J0D01*
G01*
X67116800Y-54999000D01*
G75*
G02*
X66941800Y-54824000I0J175000D01*
G01*
X66941800Y-53024000D01*
G75*
G02*
X67116800Y-52849000I175000J0D01*
G01*
G37*
G36*
G01*
X68386800Y-52849000D02*
X68736800Y-52849000D01*
G75*
G02*
X68911800Y-53024000I0J-175000D01*
G01*
X68911800Y-54824000D01*
G75*
G02*
X68736800Y-54999000I-175000J0D01*
G01*
X68386800Y-54999000D01*
G75*
G02*
X68211800Y-54824000I0J175000D01*
G01*
X68211800Y-53024000D01*
G75*
G02*
X68386800Y-52849000I175000J0D01*
G01*
G37*
G36*
G01*
X69656800Y-52849000D02*
X70006800Y-52849000D01*
G75*
G02*
X70181800Y-53024000I0J-175000D01*
G01*
X70181800Y-54824000D01*
G75*
G02*
X70006800Y-54999000I-175000J0D01*
G01*
X69656800Y-54999000D01*
G75*
G02*
X69481800Y-54824000I0J175000D01*
G01*
X69481800Y-53024000D01*
G75*
G02*
X69656800Y-52849000I175000J0D01*
G01*
G37*
G36*
G01*
X70926800Y-52849000D02*
X71276800Y-52849000D01*
G75*
G02*
X71451800Y-53024000I0J-175000D01*
G01*
X71451800Y-54824000D01*
G75*
G02*
X71276800Y-54999000I-175000J0D01*
G01*
X70926800Y-54999000D01*
G75*
G02*
X70751800Y-54824000I0J175000D01*
G01*
X70751800Y-53024000D01*
G75*
G02*
X70926800Y-52849000I175000J0D01*
G01*
G37*
G36*
G01*
X72196800Y-52849000D02*
X72546800Y-52849000D01*
G75*
G02*
X72721800Y-53024000I0J-175000D01*
G01*
X72721800Y-54824000D01*
G75*
G02*
X72546800Y-54999000I-175000J0D01*
G01*
X72196800Y-54999000D01*
G75*
G02*
X72021800Y-54824000I0J175000D01*
G01*
X72021800Y-53024000D01*
G75*
G02*
X72196800Y-52849000I175000J0D01*
G01*
G37*
G36*
G01*
X73466800Y-52849000D02*
X73816800Y-52849000D01*
G75*
G02*
X73991800Y-53024000I0J-175000D01*
G01*
X73991800Y-54824000D01*
G75*
G02*
X73816800Y-54999000I-175000J0D01*
G01*
X73466800Y-54999000D01*
G75*
G02*
X73291800Y-54824000I0J175000D01*
G01*
X73291800Y-53024000D01*
G75*
G02*
X73466800Y-52849000I175000J0D01*
G01*
G37*
G36*
G01*
X74736800Y-52849000D02*
X75086800Y-52849000D01*
G75*
G02*
X75261800Y-53024000I0J-175000D01*
G01*
X75261800Y-54824000D01*
G75*
G02*
X75086800Y-54999000I-175000J0D01*
G01*
X74736800Y-54999000D01*
G75*
G02*
X74561800Y-54824000I0J175000D01*
G01*
X74561800Y-53024000D01*
G75*
G02*
X74736800Y-52849000I175000J0D01*
G01*
G37*
G36*
G01*
X76006800Y-52849000D02*
X76356800Y-52849000D01*
G75*
G02*
X76531800Y-53024000I0J-175000D01*
G01*
X76531800Y-54824000D01*
G75*
G02*
X76356800Y-54999000I-175000J0D01*
G01*
X76006800Y-54999000D01*
G75*
G02*
X75831800Y-54824000I0J175000D01*
G01*
X75831800Y-53024000D01*
G75*
G02*
X76006800Y-52849000I175000J0D01*
G01*
G37*
G36*
G01*
X76006800Y-43549000D02*
X76356800Y-43549000D01*
G75*
G02*
X76531800Y-43724000I0J-175000D01*
G01*
X76531800Y-45524000D01*
G75*
G02*
X76356800Y-45699000I-175000J0D01*
G01*
X76006800Y-45699000D01*
G75*
G02*
X75831800Y-45524000I0J175000D01*
G01*
X75831800Y-43724000D01*
G75*
G02*
X76006800Y-43549000I175000J0D01*
G01*
G37*
G36*
G01*
X74736800Y-43549000D02*
X75086800Y-43549000D01*
G75*
G02*
X75261800Y-43724000I0J-175000D01*
G01*
X75261800Y-45524000D01*
G75*
G02*
X75086800Y-45699000I-175000J0D01*
G01*
X74736800Y-45699000D01*
G75*
G02*
X74561800Y-45524000I0J175000D01*
G01*
X74561800Y-43724000D01*
G75*
G02*
X74736800Y-43549000I175000J0D01*
G01*
G37*
G36*
G01*
X73466800Y-43549000D02*
X73816800Y-43549000D01*
G75*
G02*
X73991800Y-43724000I0J-175000D01*
G01*
X73991800Y-45524000D01*
G75*
G02*
X73816800Y-45699000I-175000J0D01*
G01*
X73466800Y-45699000D01*
G75*
G02*
X73291800Y-45524000I0J175000D01*
G01*
X73291800Y-43724000D01*
G75*
G02*
X73466800Y-43549000I175000J0D01*
G01*
G37*
G36*
G01*
X72196800Y-43549000D02*
X72546800Y-43549000D01*
G75*
G02*
X72721800Y-43724000I0J-175000D01*
G01*
X72721800Y-45524000D01*
G75*
G02*
X72546800Y-45699000I-175000J0D01*
G01*
X72196800Y-45699000D01*
G75*
G02*
X72021800Y-45524000I0J175000D01*
G01*
X72021800Y-43724000D01*
G75*
G02*
X72196800Y-43549000I175000J0D01*
G01*
G37*
G36*
G01*
X70926800Y-43549000D02*
X71276800Y-43549000D01*
G75*
G02*
X71451800Y-43724000I0J-175000D01*
G01*
X71451800Y-45524000D01*
G75*
G02*
X71276800Y-45699000I-175000J0D01*
G01*
X70926800Y-45699000D01*
G75*
G02*
X70751800Y-45524000I0J175000D01*
G01*
X70751800Y-43724000D01*
G75*
G02*
X70926800Y-43549000I175000J0D01*
G01*
G37*
G36*
G01*
X69656800Y-43549000D02*
X70006800Y-43549000D01*
G75*
G02*
X70181800Y-43724000I0J-175000D01*
G01*
X70181800Y-45524000D01*
G75*
G02*
X70006800Y-45699000I-175000J0D01*
G01*
X69656800Y-45699000D01*
G75*
G02*
X69481800Y-45524000I0J175000D01*
G01*
X69481800Y-43724000D01*
G75*
G02*
X69656800Y-43549000I175000J0D01*
G01*
G37*
G36*
G01*
X68386800Y-43549000D02*
X68736800Y-43549000D01*
G75*
G02*
X68911800Y-43724000I0J-175000D01*
G01*
X68911800Y-45524000D01*
G75*
G02*
X68736800Y-45699000I-175000J0D01*
G01*
X68386800Y-45699000D01*
G75*
G02*
X68211800Y-45524000I0J175000D01*
G01*
X68211800Y-43724000D01*
G75*
G02*
X68386800Y-43549000I175000J0D01*
G01*
G37*
G36*
G01*
X67116800Y-43549000D02*
X67466800Y-43549000D01*
G75*
G02*
X67641800Y-43724000I0J-175000D01*
G01*
X67641800Y-45524000D01*
G75*
G02*
X67466800Y-45699000I-175000J0D01*
G01*
X67116800Y-45699000D01*
G75*
G02*
X66941800Y-45524000I0J175000D01*
G01*
X66941800Y-43724000D01*
G75*
G02*
X67116800Y-43549000I175000J0D01*
G01*
G37*
G36*
G01*
X65846800Y-43549000D02*
X66196800Y-43549000D01*
G75*
G02*
X66371800Y-43724000I0J-175000D01*
G01*
X66371800Y-45524000D01*
G75*
G02*
X66196800Y-45699000I-175000J0D01*
G01*
X65846800Y-45699000D01*
G75*
G02*
X65671800Y-45524000I0J175000D01*
G01*
X65671800Y-43724000D01*
G75*
G02*
X65846800Y-43549000I175000J0D01*
G01*
G37*
G36*
G01*
X64576800Y-43549000D02*
X64926800Y-43549000D01*
G75*
G02*
X65101800Y-43724000I0J-175000D01*
G01*
X65101800Y-45524000D01*
G75*
G02*
X64926800Y-45699000I-175000J0D01*
G01*
X64576800Y-45699000D01*
G75*
G02*
X64401800Y-45524000I0J175000D01*
G01*
X64401800Y-43724000D01*
G75*
G02*
X64576800Y-43549000I175000J0D01*
G01*
G37*
G36*
G01*
X63306800Y-43549000D02*
X63656800Y-43549000D01*
G75*
G02*
X63831800Y-43724000I0J-175000D01*
G01*
X63831800Y-45524000D01*
G75*
G02*
X63656800Y-45699000I-175000J0D01*
G01*
X63306800Y-45699000D01*
G75*
G02*
X63131800Y-45524000I0J175000D01*
G01*
X63131800Y-43724000D01*
G75*
G02*
X63306800Y-43549000I175000J0D01*
G01*
G37*
G36*
G01*
X62036800Y-43549000D02*
X62386800Y-43549000D01*
G75*
G02*
X62561800Y-43724000I0J-175000D01*
G01*
X62561800Y-45524000D01*
G75*
G02*
X62386800Y-45699000I-175000J0D01*
G01*
X62036800Y-45699000D01*
G75*
G02*
X61861800Y-45524000I0J175000D01*
G01*
X61861800Y-43724000D01*
G75*
G02*
X62036800Y-43549000I175000J0D01*
G01*
G37*
G36*
G01*
X61451720Y-57384360D02*
X61451720Y-56384360D01*
G75*
G02*
X61501720Y-56334360I50000J0D01*
G01*
X62501720Y-56334360D01*
G75*
G02*
X62551720Y-56384360I0J-50000D01*
G01*
X62551720Y-57384360D01*
G75*
G02*
X62501720Y-57434360I-50000J0D01*
G01*
X61501720Y-57434360D01*
G75*
G02*
X61451720Y-57384360I0J50000D01*
G01*
G37*
X64501720Y-56884360D03*
X67001720Y-56884360D03*
X69501720Y-56884360D03*
X72001720Y-56884360D03*
X74501720Y-56884360D03*
X77001720Y-56884360D03*
X79501720Y-56884360D03*
X79501720Y-41884360D03*
X77001720Y-41884360D03*
X74501720Y-41884360D03*
X72001720Y-41884360D03*
X69501720Y-41884360D03*
X67001720Y-41884360D03*
X64501720Y-41884360D03*
X62001720Y-41884360D03*
G36*
G01*
X66612400Y-58070400D02*
X66612400Y-59070400D01*
G75*
G02*
X66337400Y-59345400I-275000J0D01*
G01*
X65787400Y-59345400D01*
G75*
G02*
X65512400Y-59070400I0J275000D01*
G01*
X65512400Y-58070400D01*
G75*
G02*
X65787400Y-57795400I275000J0D01*
G01*
X66337400Y-57795400D01*
G75*
G02*
X66612400Y-58070400I0J-275000D01*
G01*
G37*
G36*
G01*
X68512400Y-58070400D02*
X68512400Y-59070400D01*
G75*
G02*
X68237400Y-59345400I-275000J0D01*
G01*
X67687400Y-59345400D01*
G75*
G02*
X67412400Y-59070400I0J275000D01*
G01*
X67412400Y-58070400D01*
G75*
G02*
X67687400Y-57795400I275000J0D01*
G01*
X68237400Y-57795400D01*
G75*
G02*
X68512400Y-58070400I0J-275000D01*
G01*
G37*
G36*
G01*
X46597200Y-58070400D02*
X46597200Y-59070400D01*
G75*
G02*
X46322200Y-59345400I-275000J0D01*
G01*
X45772200Y-59345400D01*
G75*
G02*
X45497200Y-59070400I0J275000D01*
G01*
X45497200Y-58070400D01*
G75*
G02*
X45772200Y-57795400I275000J0D01*
G01*
X46322200Y-57795400D01*
G75*
G02*
X46597200Y-58070400I0J-275000D01*
G01*
G37*
G36*
G01*
X48497200Y-58070400D02*
X48497200Y-59070400D01*
G75*
G02*
X48222200Y-59345400I-275000J0D01*
G01*
X47672200Y-59345400D01*
G75*
G02*
X47397200Y-59070400I0J275000D01*
G01*
X47397200Y-58070400D01*
G75*
G02*
X47672200Y-57795400I275000J0D01*
G01*
X48222200Y-57795400D01*
G75*
G02*
X48497200Y-58070400I0J-275000D01*
G01*
G37*
G36*
G01*
X41436520Y-57384360D02*
X41436520Y-56384360D01*
G75*
G02*
X41486520Y-56334360I50000J0D01*
G01*
X42486520Y-56334360D01*
G75*
G02*
X42536520Y-56384360I0J-50000D01*
G01*
X42536520Y-57384360D01*
G75*
G02*
X42486520Y-57434360I-50000J0D01*
G01*
X41486520Y-57434360D01*
G75*
G02*
X41436520Y-57384360I0J50000D01*
G01*
G37*
X44486520Y-56884360D03*
X46986520Y-56884360D03*
X49486520Y-56884360D03*
X51986520Y-56884360D03*
X54486520Y-56884360D03*
X56986520Y-56884360D03*
X59486520Y-56884360D03*
X59486520Y-41884360D03*
X56986520Y-41884360D03*
X54486520Y-41884360D03*
X51986520Y-41884360D03*
X49486520Y-41884360D03*
X46986520Y-41884360D03*
X44486520Y-41884360D03*
X41986520Y-41884360D03*
M02*
