M48
; DRILL file {KiCad (5.1.9)-1} date 03/16/21 21:09:56
; FORMAT={-:-/ absolute / metric / decimal}
; #@! TF.CreationDate,2021-03-16T21:09:56+08:00
; #@! TF.GenerationSoftware,Kicad,Pcbnew,(5.1.9)-1
FMAT,2
METRIC
T1C0.400
T2C0.500
T3C1.000
%
G90
G05
T1
X42.907Y-34.965
X43.06Y-38.064
X43.398Y-50.562
X43.484Y-51.85
X43.923Y-61.788
X43.923Y-64.734
X44.126Y-58.638
X45.372Y-55.878
X46.006Y-46.7
X46.971Y-34.965
X47.117Y-51.811
X47.124Y-38.064
X47.987Y-61.788
X47.987Y-64.734
X48.775Y-51.865
X51.035Y-34.965
X51.188Y-38.064
X52.051Y-61.788
X52.051Y-64.734
X52.305Y-48.58
X52.356Y-47.106
X53.524Y-47.106
X53.626Y-48.58
X53.626Y-55.895
X54.895Y-46.584
X55.099Y-34.965
X55.252Y-38.064
X56.115Y-61.788
X56.115Y-64.734
X57.962Y-53.916
X58.522Y-52.566
X58.604Y-48.427
X59.925Y-48.427
X60.862Y-43.126
X63.5Y-51.85
X63.684Y-49.799
X64.243Y-34.965
X64.396Y-38.064
X64.446Y-58.587
X65.259Y-61.788
X65.259Y-64.734
X65.387Y-55.878
X66.021Y-46.548
X67.132Y-51.811
X68.307Y-34.965
X68.46Y-38.064
X68.79Y-51.865
X69.323Y-61.788
X69.323Y-64.734
X72.32Y-48.63
X72.371Y-34.965
X72.371Y-46.548
X72.524Y-38.064
X73.387Y-61.788
X73.387Y-64.734
X73.489Y-55.742
X73.641Y-48.63
X73.667Y-46.582
X74.891Y-46.564
X75.819Y-41.783
X76.435Y-34.965
X76.588Y-38.064
X77.451Y-61.788
X77.451Y-64.734
X78.102Y-53.916
X78.292Y-52.776
X78.62Y-48.63
X79.94Y-48.63
X80.804Y-44.719
X83.515Y-51.85
X83.75Y-49.748
X84.055Y-34.965
X84.208Y-38.064
X84.766Y-58.587
X85.071Y-61.788
X85.071Y-64.734
X85.402Y-55.878
X86.036Y-46.649
X87.147Y-51.811
X88.119Y-34.965
X88.272Y-38.064
X88.806Y-51.865
X89.135Y-61.788
X89.135Y-64.734
X92.183Y-34.965
X92.336Y-38.064
X92.386Y-48.326
X92.437Y-46.548
X93.199Y-61.788
X93.199Y-64.734
X93.604Y-55.744
X93.682Y-46.582
X93.707Y-48.326
X94.907Y-46.564
X96.247Y-34.965
X96.4Y-38.064
X97.263Y-61.788
X97.263Y-64.734
X97.972Y-53.916
X98.202Y-52.836
X98.381Y-47.919
X98.381Y-50.332
X100.711Y-47.919
X100.711Y-50.332
X100.972Y-44.566
X103.164Y-47.879
X103.164Y-50.292
X103.53Y-51.85
X104.68Y-58.587
X105.391Y-34.965
X105.417Y-55.878
X105.544Y-38.064
X106.052Y-46.497
X106.407Y-61.788
X106.407Y-64.734
X107.162Y-51.811
X108.821Y-51.865
X109.455Y-34.965
X109.608Y-38.064
X110.471Y-61.788
X110.471Y-64.734
X112.452Y-46.548
X112.452Y-48.072
X113.519Y-34.965
X113.651Y-55.915
X113.672Y-38.064
X113.698Y-46.582
X113.773Y-48.072
X114.535Y-61.788
X114.535Y-64.734
X114.922Y-46.564
X117.583Y-34.965
X117.736Y-38.064
X117.912Y-52.796
X117.942Y-53.896
X118.599Y-48.732
X118.599Y-61.788
X118.599Y-64.734
X119.92Y-48.732
T2
X41.987Y-41.884
X41.987Y-56.884
X44.487Y-41.884
X44.487Y-56.884
X46.987Y-41.884
X46.987Y-56.884
X49.487Y-41.884
X49.487Y-56.884
X51.987Y-41.884
X51.987Y-56.884
X54.487Y-41.884
X54.487Y-56.884
X56.987Y-41.884
X56.987Y-56.884
X59.487Y-41.884
X59.487Y-56.884
X62.002Y-41.884
X62.002Y-56.884
X64.502Y-41.884
X64.502Y-56.884
X67.002Y-41.884
X67.002Y-56.884
X69.502Y-41.884
X69.502Y-56.884
X72.002Y-41.884
X72.002Y-56.884
X74.502Y-41.884
X74.502Y-56.884
X77.002Y-41.884
X77.002Y-56.884
X79.502Y-41.884
X79.502Y-56.884
X82.017Y-41.884
X82.017Y-56.884
X84.517Y-41.884
X84.517Y-56.884
X87.017Y-41.884
X87.017Y-56.884
X89.517Y-41.884
X89.517Y-56.884
X92.017Y-41.884
X92.017Y-56.884
X94.517Y-41.884
X94.517Y-56.884
X97.017Y-41.884
X97.017Y-56.884
X99.517Y-41.884
X99.517Y-56.884
X102.032Y-41.884
X102.032Y-56.884
X104.532Y-41.884
X104.532Y-56.884
X107.032Y-41.884
X107.032Y-56.884
X109.532Y-41.884
X109.532Y-56.884
X112.032Y-41.884
X112.032Y-56.884
X114.532Y-41.884
X114.532Y-56.884
X117.032Y-41.884
X117.032Y-56.884
X119.532Y-41.884
X119.532Y-56.884
T3
X35.829Y-44.973
X35.829Y-47.513
X35.829Y-50.053
X35.829Y-52.593
X35.829Y-55.133
T0
M30
