G04 #@! TF.GenerationSoftware,KiCad,Pcbnew,(5.1.9)-1*
G04 #@! TF.CreationDate,2021-03-16T21:09:54+08:00*
G04 #@! TF.ProjectId,driver,64726976-6572-42e6-9b69-6361645f7063,v1.0*
G04 #@! TF.SameCoordinates,Original*
G04 #@! TF.FileFunction,Legend,Top*
G04 #@! TF.FilePolarity,Positive*
%FSLAX46Y46*%
G04 Gerber Fmt 4.6, Leading zero omitted, Abs format (unit mm)*
G04 Created by KiCad (PCBNEW (5.1.9)-1) date 2021-03-16 21:09:54*
%MOMM*%
%LPD*%
G01*
G04 APERTURE LIST*
%ADD10C,0.150000*%
%ADD11C,0.120000*%
%ADD12C,0.015000*%
%ADD13O,1.800000X1.800000*%
%ADD14C,1.100000*%
G04 APERTURE END LIST*
D10*
X76726693Y-70773683D02*
X76917169Y-70773530D01*
X77012369Y-70725834D01*
X77059950Y-70678176D01*
X77155072Y-70535242D01*
X77202537Y-70344727D01*
X77202229Y-69963775D01*
X77154533Y-69868575D01*
X77106876Y-69820995D01*
X77011599Y-69773453D01*
X76821123Y-69773607D01*
X76725924Y-69821303D01*
X76678343Y-69868960D01*
X76630801Y-69964237D01*
X76630994Y-70202332D01*
X76678690Y-70297532D01*
X76726347Y-70345112D01*
X76821624Y-70392654D01*
X77012100Y-70392500D01*
X77107299Y-70344804D01*
X77154880Y-70297147D01*
X77202422Y-70201870D01*
X77773850Y-70201408D02*
X77678574Y-70153866D01*
X77630916Y-70106286D01*
X77583220Y-70011086D01*
X77583182Y-69963467D01*
X77630724Y-69868191D01*
X77678304Y-69820533D01*
X77773504Y-69772837D01*
X77963980Y-69772683D01*
X78059257Y-69820225D01*
X78106914Y-69867806D01*
X78154610Y-69963005D01*
X78154649Y-70010624D01*
X78107107Y-70105901D01*
X78059526Y-70153558D01*
X77964326Y-70201254D01*
X77773850Y-70201408D01*
X77678651Y-70249104D01*
X77631070Y-70296762D01*
X77583528Y-70392038D01*
X77583682Y-70582515D01*
X77631378Y-70677714D01*
X77679036Y-70725295D01*
X77774312Y-70772837D01*
X77964788Y-70772683D01*
X78059988Y-70724987D01*
X78107568Y-70677329D01*
X78155110Y-70582053D01*
X78154956Y-70391577D01*
X78107260Y-70296377D01*
X78059603Y-70248797D01*
X77964326Y-70201254D01*
X78583759Y-70676945D02*
X78631416Y-70724525D01*
X78583836Y-70772183D01*
X78536178Y-70724602D01*
X78583759Y-70676945D01*
X78583836Y-70772183D01*
X79107645Y-70771759D02*
X79298121Y-70771605D01*
X79393321Y-70723909D01*
X79440901Y-70676252D01*
X79536024Y-70533318D01*
X79583489Y-70342803D01*
X79583181Y-69961851D01*
X79535485Y-69866651D01*
X79487828Y-69819071D01*
X79392551Y-69771529D01*
X79202075Y-69771683D01*
X79106875Y-69819379D01*
X79059295Y-69867036D01*
X79011753Y-69962313D01*
X79011945Y-70200408D01*
X79059641Y-70295607D01*
X79107299Y-70343188D01*
X79202575Y-70390730D01*
X79393051Y-70390576D01*
X79488251Y-70342880D01*
X79535831Y-70295223D01*
X79583373Y-70199946D01*
X80060026Y-70770990D02*
X80250502Y-70770836D01*
X80345701Y-70723140D01*
X80393282Y-70675482D01*
X80488404Y-70532548D01*
X80535870Y-70342033D01*
X80535562Y-69961081D01*
X80487866Y-69865882D01*
X80440208Y-69818301D01*
X80344932Y-69770759D01*
X80154456Y-69770913D01*
X80059256Y-69818609D01*
X80011675Y-69866266D01*
X79964133Y-69961543D01*
X79964326Y-70199638D01*
X80012022Y-70294838D01*
X80059679Y-70342418D01*
X80154956Y-70389960D01*
X80345432Y-70389806D01*
X80440632Y-70342110D01*
X80488212Y-70294453D01*
X80535754Y-70199176D01*
X81154455Y-69770105D02*
X81249693Y-69770028D01*
X81344970Y-69817570D01*
X81392627Y-69865150D01*
X81440323Y-69960350D01*
X81488096Y-70150788D01*
X81488289Y-70388883D01*
X81440824Y-70579397D01*
X81393282Y-70674674D01*
X81345701Y-70722331D01*
X81250501Y-70770027D01*
X81155263Y-70770104D01*
X81059987Y-70722562D01*
X81012329Y-70674982D01*
X80964633Y-70579782D01*
X80916860Y-70389345D01*
X80916668Y-70151249D01*
X80964133Y-69960735D01*
X81011675Y-69865458D01*
X81059256Y-69817801D01*
X81154455Y-69770105D01*
X82679072Y-70768873D02*
X82678534Y-70102206D01*
X82678611Y-70197445D02*
X82726191Y-70149787D01*
X82821391Y-70102091D01*
X82964248Y-70101976D01*
X83059524Y-70149518D01*
X83107220Y-70244717D01*
X83107644Y-70768527D01*
X83107220Y-70244717D02*
X83154762Y-70149441D01*
X83249962Y-70101745D01*
X83392819Y-70101629D01*
X83488096Y-70149171D01*
X83535792Y-70244371D01*
X83536215Y-70768180D01*
X84012405Y-70767795D02*
X84011867Y-70101129D01*
X84011943Y-70196367D02*
X84059524Y-70148709D01*
X84154724Y-70101013D01*
X84297581Y-70100898D01*
X84392857Y-70148440D01*
X84440553Y-70243640D01*
X84440977Y-70767449D01*
X84440553Y-70243640D02*
X84488095Y-70148363D01*
X84583295Y-70100667D01*
X84726152Y-70100552D01*
X84821429Y-70148094D01*
X84869125Y-70243293D01*
X84869548Y-70767103D01*
D11*
X31277920Y-69088032D02*
X130267920Y-69008032D01*
X31277920Y-69088000D02*
X31278394Y-69674453D01*
X130267920Y-69008000D02*
X130268394Y-69594453D01*
X130267920Y-69008032D02*
X129141891Y-69595363D01*
X130267920Y-69008032D02*
X129140943Y-68422522D01*
X31277920Y-69088032D02*
X32404897Y-69673542D01*
X31277920Y-69088032D02*
X32403949Y-68500701D01*
X100889120Y-39551360D02*
X100889120Y-59551360D01*
X120889120Y-39551360D02*
X120889120Y-59551360D01*
X100889120Y-39551360D02*
X120889120Y-39551360D01*
X100889120Y-59551360D02*
X120889120Y-59551360D01*
X80873920Y-39551360D02*
X80873920Y-59551360D01*
X100873920Y-39551360D02*
X100873920Y-59551360D01*
X80873920Y-39551360D02*
X100873920Y-39551360D01*
X80873920Y-59551360D02*
X100873920Y-59551360D01*
X60858720Y-39551360D02*
X60858720Y-59551360D01*
X80858720Y-39551360D02*
X80858720Y-59551360D01*
X60858720Y-39551360D02*
X80858720Y-39551360D01*
X60858720Y-59551360D02*
X80858720Y-59551360D01*
X40843520Y-39551360D02*
X40843520Y-59551360D01*
X60843520Y-39551360D02*
X60843520Y-59551360D01*
X40843520Y-39551360D02*
X60843520Y-39551360D01*
X40843520Y-59551360D02*
X60843520Y-59551360D01*
D12*
X101691834Y-57891502D02*
X101691834Y-58280074D01*
X101714691Y-58325788D01*
X101737548Y-58348645D01*
X101783262Y-58371502D01*
X101874691Y-58371502D01*
X101920405Y-58348645D01*
X101943262Y-58325788D01*
X101966120Y-58280074D01*
X101966120Y-57891502D01*
X102446120Y-58371502D02*
X102171834Y-58371502D01*
X102308977Y-58371502D02*
X102308977Y-57891502D01*
X102263262Y-57960074D01*
X102217548Y-58005788D01*
X102171834Y-58028645D01*
X102857548Y-58051502D02*
X102857548Y-58371502D01*
X102743262Y-57868645D02*
X102628977Y-58211502D01*
X102926120Y-58211502D01*
X81676634Y-57891502D02*
X81676634Y-58280074D01*
X81699491Y-58325788D01*
X81722348Y-58348645D01*
X81768062Y-58371502D01*
X81859491Y-58371502D01*
X81905205Y-58348645D01*
X81928062Y-58325788D01*
X81950920Y-58280074D01*
X81950920Y-57891502D01*
X82430920Y-58371502D02*
X82156634Y-58371502D01*
X82293777Y-58371502D02*
X82293777Y-57891502D01*
X82248062Y-57960074D01*
X82202348Y-58005788D01*
X82156634Y-58028645D01*
X82590920Y-57891502D02*
X82888062Y-57891502D01*
X82728062Y-58074360D01*
X82796634Y-58074360D01*
X82842348Y-58097217D01*
X82865205Y-58120074D01*
X82888062Y-58165788D01*
X82888062Y-58280074D01*
X82865205Y-58325788D01*
X82842348Y-58348645D01*
X82796634Y-58371502D01*
X82659491Y-58371502D01*
X82613777Y-58348645D01*
X82590920Y-58325788D01*
X61661434Y-57891502D02*
X61661434Y-58280074D01*
X61684291Y-58325788D01*
X61707148Y-58348645D01*
X61752862Y-58371502D01*
X61844291Y-58371502D01*
X61890005Y-58348645D01*
X61912862Y-58325788D01*
X61935720Y-58280074D01*
X61935720Y-57891502D01*
X62415720Y-58371502D02*
X62141434Y-58371502D01*
X62278577Y-58371502D02*
X62278577Y-57891502D01*
X62232862Y-57960074D01*
X62187148Y-58005788D01*
X62141434Y-58028645D01*
X62872862Y-58371502D02*
X62598577Y-58371502D01*
X62735720Y-58371502D02*
X62735720Y-57891502D01*
X62690005Y-57960074D01*
X62644291Y-58005788D01*
X62598577Y-58028645D01*
X41874805Y-57891502D02*
X41874805Y-58280074D01*
X41897662Y-58325788D01*
X41920520Y-58348645D01*
X41966234Y-58371502D01*
X42057662Y-58371502D01*
X42103377Y-58348645D01*
X42126234Y-58325788D01*
X42149091Y-58280074D01*
X42149091Y-57891502D01*
X42400520Y-58371502D02*
X42491948Y-58371502D01*
X42537662Y-58348645D01*
X42560520Y-58325788D01*
X42606234Y-58257217D01*
X42629091Y-58165788D01*
X42629091Y-57982931D01*
X42606234Y-57937217D01*
X42583377Y-57914360D01*
X42537662Y-57891502D01*
X42446234Y-57891502D01*
X42400520Y-57914360D01*
X42377662Y-57937217D01*
X42354805Y-57982931D01*
X42354805Y-58097217D01*
X42377662Y-58142931D01*
X42400520Y-58165788D01*
X42446234Y-58188645D01*
X42537662Y-58188645D01*
X42583377Y-58165788D01*
X42606234Y-58142931D01*
X42629091Y-58097217D01*
%LPC*%
D13*
X35828800Y-44972800D03*
X35828800Y-47512800D03*
X35828800Y-50052800D03*
X35828800Y-52592800D03*
G36*
G01*
X34928800Y-55982800D02*
X34928800Y-54282800D01*
G75*
G02*
X34978800Y-54232800I50000J0D01*
G01*
X36678800Y-54232800D01*
G75*
G02*
X36728800Y-54282800I0J-50000D01*
G01*
X36728800Y-55982800D01*
G75*
G02*
X36678800Y-56032800I-50000J0D01*
G01*
X34978800Y-56032800D01*
G75*
G02*
X34928800Y-55982800I0J50000D01*
G01*
G37*
G36*
G01*
X101482120Y-57384360D02*
X101482120Y-56384360D01*
G75*
G02*
X101532120Y-56334360I50000J0D01*
G01*
X102532120Y-56334360D01*
G75*
G02*
X102582120Y-56384360I0J-50000D01*
G01*
X102582120Y-57384360D01*
G75*
G02*
X102532120Y-57434360I-50000J0D01*
G01*
X101532120Y-57434360D01*
G75*
G02*
X101482120Y-57384360I0J50000D01*
G01*
G37*
D14*
X104532120Y-56884360D03*
X107032120Y-56884360D03*
X109532120Y-56884360D03*
X112032120Y-56884360D03*
X114532120Y-56884360D03*
X117032120Y-56884360D03*
X119532120Y-56884360D03*
X119532120Y-41884360D03*
X117032120Y-41884360D03*
X114532120Y-41884360D03*
X112032120Y-41884360D03*
X109532120Y-41884360D03*
X107032120Y-41884360D03*
X104532120Y-41884360D03*
X102032120Y-41884360D03*
G36*
G01*
X81466920Y-57384360D02*
X81466920Y-56384360D01*
G75*
G02*
X81516920Y-56334360I50000J0D01*
G01*
X82516920Y-56334360D01*
G75*
G02*
X82566920Y-56384360I0J-50000D01*
G01*
X82566920Y-57384360D01*
G75*
G02*
X82516920Y-57434360I-50000J0D01*
G01*
X81516920Y-57434360D01*
G75*
G02*
X81466920Y-57384360I0J50000D01*
G01*
G37*
X84516920Y-56884360D03*
X87016920Y-56884360D03*
X89516920Y-56884360D03*
X92016920Y-56884360D03*
X94516920Y-56884360D03*
X97016920Y-56884360D03*
X99516920Y-56884360D03*
X99516920Y-41884360D03*
X97016920Y-41884360D03*
X94516920Y-41884360D03*
X92016920Y-41884360D03*
X89516920Y-41884360D03*
X87016920Y-41884360D03*
X84516920Y-41884360D03*
X82016920Y-41884360D03*
G36*
G01*
X61451720Y-57384360D02*
X61451720Y-56384360D01*
G75*
G02*
X61501720Y-56334360I50000J0D01*
G01*
X62501720Y-56334360D01*
G75*
G02*
X62551720Y-56384360I0J-50000D01*
G01*
X62551720Y-57384360D01*
G75*
G02*
X62501720Y-57434360I-50000J0D01*
G01*
X61501720Y-57434360D01*
G75*
G02*
X61451720Y-57384360I0J50000D01*
G01*
G37*
X64501720Y-56884360D03*
X67001720Y-56884360D03*
X69501720Y-56884360D03*
X72001720Y-56884360D03*
X74501720Y-56884360D03*
X77001720Y-56884360D03*
X79501720Y-56884360D03*
X79501720Y-41884360D03*
X77001720Y-41884360D03*
X74501720Y-41884360D03*
X72001720Y-41884360D03*
X69501720Y-41884360D03*
X67001720Y-41884360D03*
X64501720Y-41884360D03*
X62001720Y-41884360D03*
G36*
G01*
X41436520Y-57384360D02*
X41436520Y-56384360D01*
G75*
G02*
X41486520Y-56334360I50000J0D01*
G01*
X42486520Y-56334360D01*
G75*
G02*
X42536520Y-56384360I0J-50000D01*
G01*
X42536520Y-57384360D01*
G75*
G02*
X42486520Y-57434360I-50000J0D01*
G01*
X41486520Y-57434360D01*
G75*
G02*
X41436520Y-57384360I0J50000D01*
G01*
G37*
X44486520Y-56884360D03*
X46986520Y-56884360D03*
X49486520Y-56884360D03*
X51986520Y-56884360D03*
X54486520Y-56884360D03*
X56986520Y-56884360D03*
X59486520Y-56884360D03*
X59486520Y-41884360D03*
X56986520Y-41884360D03*
X54486520Y-41884360D03*
X51986520Y-41884360D03*
X49486520Y-41884360D03*
X46986520Y-41884360D03*
X44486520Y-41884360D03*
X41986520Y-41884360D03*
M02*
