G04 #@! TF.GenerationSoftware,KiCad,Pcbnew,(5.1.9)-1*
G04 #@! TF.CreationDate,2021-03-16T21:09:54+08:00*
G04 #@! TF.ProjectId,driver,64726976-6572-42e6-9b69-6361645f7063,v1.0*
G04 #@! TF.SameCoordinates,Original*
G04 #@! TF.FileFunction,Paste,Bot*
G04 #@! TF.FilePolarity,Positive*
%FSLAX46Y46*%
G04 Gerber Fmt 4.6, Leading zero omitted, Abs format (unit mm)*
G04 Created by KiCad (PCBNEW (5.1.9)-1) date 2021-03-16 21:09:54*
%MOMM*%
%LPD*%
G01*
G04 APERTURE LIST*
G04 APERTURE END LIST*
G36*
G01*
X112268800Y-59020402D02*
X112268800Y-58120398D01*
G75*
G02*
X112518798Y-57870400I249998J0D01*
G01*
X113043802Y-57870400D01*
G75*
G02*
X113293800Y-58120398I0J-249998D01*
G01*
X113293800Y-59020402D01*
G75*
G02*
X113043802Y-59270400I-249998J0D01*
G01*
X112518798Y-59270400D01*
G75*
G02*
X112268800Y-59020402I0J249998D01*
G01*
G37*
G36*
G01*
X110443800Y-59020402D02*
X110443800Y-58120398D01*
G75*
G02*
X110693798Y-57870400I249998J0D01*
G01*
X111218802Y-57870400D01*
G75*
G02*
X111468800Y-58120398I0J-249998D01*
G01*
X111468800Y-59020402D01*
G75*
G02*
X111218802Y-59270400I-249998J0D01*
G01*
X110693798Y-59270400D01*
G75*
G02*
X110443800Y-59020402I0J249998D01*
G01*
G37*
G36*
G01*
X82077000Y-52899000D02*
X82377000Y-52899000D01*
G75*
G02*
X82527000Y-53049000I0J-150000D01*
G01*
X82527000Y-54799000D01*
G75*
G02*
X82377000Y-54949000I-150000J0D01*
G01*
X82077000Y-54949000D01*
G75*
G02*
X81927000Y-54799000I0J150000D01*
G01*
X81927000Y-53049000D01*
G75*
G02*
X82077000Y-52899000I150000J0D01*
G01*
G37*
G36*
G01*
X83347000Y-52899000D02*
X83647000Y-52899000D01*
G75*
G02*
X83797000Y-53049000I0J-150000D01*
G01*
X83797000Y-54799000D01*
G75*
G02*
X83647000Y-54949000I-150000J0D01*
G01*
X83347000Y-54949000D01*
G75*
G02*
X83197000Y-54799000I0J150000D01*
G01*
X83197000Y-53049000D01*
G75*
G02*
X83347000Y-52899000I150000J0D01*
G01*
G37*
G36*
G01*
X84617000Y-52899000D02*
X84917000Y-52899000D01*
G75*
G02*
X85067000Y-53049000I0J-150000D01*
G01*
X85067000Y-54799000D01*
G75*
G02*
X84917000Y-54949000I-150000J0D01*
G01*
X84617000Y-54949000D01*
G75*
G02*
X84467000Y-54799000I0J150000D01*
G01*
X84467000Y-53049000D01*
G75*
G02*
X84617000Y-52899000I150000J0D01*
G01*
G37*
G36*
G01*
X85887000Y-52899000D02*
X86187000Y-52899000D01*
G75*
G02*
X86337000Y-53049000I0J-150000D01*
G01*
X86337000Y-54799000D01*
G75*
G02*
X86187000Y-54949000I-150000J0D01*
G01*
X85887000Y-54949000D01*
G75*
G02*
X85737000Y-54799000I0J150000D01*
G01*
X85737000Y-53049000D01*
G75*
G02*
X85887000Y-52899000I150000J0D01*
G01*
G37*
G36*
G01*
X87157000Y-52899000D02*
X87457000Y-52899000D01*
G75*
G02*
X87607000Y-53049000I0J-150000D01*
G01*
X87607000Y-54799000D01*
G75*
G02*
X87457000Y-54949000I-150000J0D01*
G01*
X87157000Y-54949000D01*
G75*
G02*
X87007000Y-54799000I0J150000D01*
G01*
X87007000Y-53049000D01*
G75*
G02*
X87157000Y-52899000I150000J0D01*
G01*
G37*
G36*
G01*
X88427000Y-52899000D02*
X88727000Y-52899000D01*
G75*
G02*
X88877000Y-53049000I0J-150000D01*
G01*
X88877000Y-54799000D01*
G75*
G02*
X88727000Y-54949000I-150000J0D01*
G01*
X88427000Y-54949000D01*
G75*
G02*
X88277000Y-54799000I0J150000D01*
G01*
X88277000Y-53049000D01*
G75*
G02*
X88427000Y-52899000I150000J0D01*
G01*
G37*
G36*
G01*
X89697000Y-52899000D02*
X89997000Y-52899000D01*
G75*
G02*
X90147000Y-53049000I0J-150000D01*
G01*
X90147000Y-54799000D01*
G75*
G02*
X89997000Y-54949000I-150000J0D01*
G01*
X89697000Y-54949000D01*
G75*
G02*
X89547000Y-54799000I0J150000D01*
G01*
X89547000Y-53049000D01*
G75*
G02*
X89697000Y-52899000I150000J0D01*
G01*
G37*
G36*
G01*
X90967000Y-52899000D02*
X91267000Y-52899000D01*
G75*
G02*
X91417000Y-53049000I0J-150000D01*
G01*
X91417000Y-54799000D01*
G75*
G02*
X91267000Y-54949000I-150000J0D01*
G01*
X90967000Y-54949000D01*
G75*
G02*
X90817000Y-54799000I0J150000D01*
G01*
X90817000Y-53049000D01*
G75*
G02*
X90967000Y-52899000I150000J0D01*
G01*
G37*
G36*
G01*
X92237000Y-52899000D02*
X92537000Y-52899000D01*
G75*
G02*
X92687000Y-53049000I0J-150000D01*
G01*
X92687000Y-54799000D01*
G75*
G02*
X92537000Y-54949000I-150000J0D01*
G01*
X92237000Y-54949000D01*
G75*
G02*
X92087000Y-54799000I0J150000D01*
G01*
X92087000Y-53049000D01*
G75*
G02*
X92237000Y-52899000I150000J0D01*
G01*
G37*
G36*
G01*
X93507000Y-52899000D02*
X93807000Y-52899000D01*
G75*
G02*
X93957000Y-53049000I0J-150000D01*
G01*
X93957000Y-54799000D01*
G75*
G02*
X93807000Y-54949000I-150000J0D01*
G01*
X93507000Y-54949000D01*
G75*
G02*
X93357000Y-54799000I0J150000D01*
G01*
X93357000Y-53049000D01*
G75*
G02*
X93507000Y-52899000I150000J0D01*
G01*
G37*
G36*
G01*
X94777000Y-52899000D02*
X95077000Y-52899000D01*
G75*
G02*
X95227000Y-53049000I0J-150000D01*
G01*
X95227000Y-54799000D01*
G75*
G02*
X95077000Y-54949000I-150000J0D01*
G01*
X94777000Y-54949000D01*
G75*
G02*
X94627000Y-54799000I0J150000D01*
G01*
X94627000Y-53049000D01*
G75*
G02*
X94777000Y-52899000I150000J0D01*
G01*
G37*
G36*
G01*
X96047000Y-52899000D02*
X96347000Y-52899000D01*
G75*
G02*
X96497000Y-53049000I0J-150000D01*
G01*
X96497000Y-54799000D01*
G75*
G02*
X96347000Y-54949000I-150000J0D01*
G01*
X96047000Y-54949000D01*
G75*
G02*
X95897000Y-54799000I0J150000D01*
G01*
X95897000Y-53049000D01*
G75*
G02*
X96047000Y-52899000I150000J0D01*
G01*
G37*
G36*
G01*
X96047000Y-43599000D02*
X96347000Y-43599000D01*
G75*
G02*
X96497000Y-43749000I0J-150000D01*
G01*
X96497000Y-45499000D01*
G75*
G02*
X96347000Y-45649000I-150000J0D01*
G01*
X96047000Y-45649000D01*
G75*
G02*
X95897000Y-45499000I0J150000D01*
G01*
X95897000Y-43749000D01*
G75*
G02*
X96047000Y-43599000I150000J0D01*
G01*
G37*
G36*
G01*
X94777000Y-43599000D02*
X95077000Y-43599000D01*
G75*
G02*
X95227000Y-43749000I0J-150000D01*
G01*
X95227000Y-45499000D01*
G75*
G02*
X95077000Y-45649000I-150000J0D01*
G01*
X94777000Y-45649000D01*
G75*
G02*
X94627000Y-45499000I0J150000D01*
G01*
X94627000Y-43749000D01*
G75*
G02*
X94777000Y-43599000I150000J0D01*
G01*
G37*
G36*
G01*
X93507000Y-43599000D02*
X93807000Y-43599000D01*
G75*
G02*
X93957000Y-43749000I0J-150000D01*
G01*
X93957000Y-45499000D01*
G75*
G02*
X93807000Y-45649000I-150000J0D01*
G01*
X93507000Y-45649000D01*
G75*
G02*
X93357000Y-45499000I0J150000D01*
G01*
X93357000Y-43749000D01*
G75*
G02*
X93507000Y-43599000I150000J0D01*
G01*
G37*
G36*
G01*
X92237000Y-43599000D02*
X92537000Y-43599000D01*
G75*
G02*
X92687000Y-43749000I0J-150000D01*
G01*
X92687000Y-45499000D01*
G75*
G02*
X92537000Y-45649000I-150000J0D01*
G01*
X92237000Y-45649000D01*
G75*
G02*
X92087000Y-45499000I0J150000D01*
G01*
X92087000Y-43749000D01*
G75*
G02*
X92237000Y-43599000I150000J0D01*
G01*
G37*
G36*
G01*
X90967000Y-43599000D02*
X91267000Y-43599000D01*
G75*
G02*
X91417000Y-43749000I0J-150000D01*
G01*
X91417000Y-45499000D01*
G75*
G02*
X91267000Y-45649000I-150000J0D01*
G01*
X90967000Y-45649000D01*
G75*
G02*
X90817000Y-45499000I0J150000D01*
G01*
X90817000Y-43749000D01*
G75*
G02*
X90967000Y-43599000I150000J0D01*
G01*
G37*
G36*
G01*
X89697000Y-43599000D02*
X89997000Y-43599000D01*
G75*
G02*
X90147000Y-43749000I0J-150000D01*
G01*
X90147000Y-45499000D01*
G75*
G02*
X89997000Y-45649000I-150000J0D01*
G01*
X89697000Y-45649000D01*
G75*
G02*
X89547000Y-45499000I0J150000D01*
G01*
X89547000Y-43749000D01*
G75*
G02*
X89697000Y-43599000I150000J0D01*
G01*
G37*
G36*
G01*
X88427000Y-43599000D02*
X88727000Y-43599000D01*
G75*
G02*
X88877000Y-43749000I0J-150000D01*
G01*
X88877000Y-45499000D01*
G75*
G02*
X88727000Y-45649000I-150000J0D01*
G01*
X88427000Y-45649000D01*
G75*
G02*
X88277000Y-45499000I0J150000D01*
G01*
X88277000Y-43749000D01*
G75*
G02*
X88427000Y-43599000I150000J0D01*
G01*
G37*
G36*
G01*
X87157000Y-43599000D02*
X87457000Y-43599000D01*
G75*
G02*
X87607000Y-43749000I0J-150000D01*
G01*
X87607000Y-45499000D01*
G75*
G02*
X87457000Y-45649000I-150000J0D01*
G01*
X87157000Y-45649000D01*
G75*
G02*
X87007000Y-45499000I0J150000D01*
G01*
X87007000Y-43749000D01*
G75*
G02*
X87157000Y-43599000I150000J0D01*
G01*
G37*
G36*
G01*
X85887000Y-43599000D02*
X86187000Y-43599000D01*
G75*
G02*
X86337000Y-43749000I0J-150000D01*
G01*
X86337000Y-45499000D01*
G75*
G02*
X86187000Y-45649000I-150000J0D01*
G01*
X85887000Y-45649000D01*
G75*
G02*
X85737000Y-45499000I0J150000D01*
G01*
X85737000Y-43749000D01*
G75*
G02*
X85887000Y-43599000I150000J0D01*
G01*
G37*
G36*
G01*
X84617000Y-43599000D02*
X84917000Y-43599000D01*
G75*
G02*
X85067000Y-43749000I0J-150000D01*
G01*
X85067000Y-45499000D01*
G75*
G02*
X84917000Y-45649000I-150000J0D01*
G01*
X84617000Y-45649000D01*
G75*
G02*
X84467000Y-45499000I0J150000D01*
G01*
X84467000Y-43749000D01*
G75*
G02*
X84617000Y-43599000I150000J0D01*
G01*
G37*
G36*
G01*
X83347000Y-43599000D02*
X83647000Y-43599000D01*
G75*
G02*
X83797000Y-43749000I0J-150000D01*
G01*
X83797000Y-45499000D01*
G75*
G02*
X83647000Y-45649000I-150000J0D01*
G01*
X83347000Y-45649000D01*
G75*
G02*
X83197000Y-45499000I0J150000D01*
G01*
X83197000Y-43749000D01*
G75*
G02*
X83347000Y-43599000I150000J0D01*
G01*
G37*
G36*
G01*
X82077000Y-43599000D02*
X82377000Y-43599000D01*
G75*
G02*
X82527000Y-43749000I0J-150000D01*
G01*
X82527000Y-45499000D01*
G75*
G02*
X82377000Y-45649000I-150000J0D01*
G01*
X82077000Y-45649000D01*
G75*
G02*
X81927000Y-45499000I0J150000D01*
G01*
X81927000Y-43749000D01*
G75*
G02*
X82077000Y-43599000I150000J0D01*
G01*
G37*
G36*
G01*
X92253600Y-59020402D02*
X92253600Y-58120398D01*
G75*
G02*
X92503598Y-57870400I249998J0D01*
G01*
X93028602Y-57870400D01*
G75*
G02*
X93278600Y-58120398I0J-249998D01*
G01*
X93278600Y-59020402D01*
G75*
G02*
X93028602Y-59270400I-249998J0D01*
G01*
X92503598Y-59270400D01*
G75*
G02*
X92253600Y-59020402I0J249998D01*
G01*
G37*
G36*
G01*
X90428600Y-59020402D02*
X90428600Y-58120398D01*
G75*
G02*
X90678598Y-57870400I249998J0D01*
G01*
X91203602Y-57870400D01*
G75*
G02*
X91453600Y-58120398I0J-249998D01*
G01*
X91453600Y-59020402D01*
G75*
G02*
X91203602Y-59270400I-249998J0D01*
G01*
X90678598Y-59270400D01*
G75*
G02*
X90428600Y-59020402I0J249998D01*
G01*
G37*
G36*
G01*
X102092200Y-52899000D02*
X102392200Y-52899000D01*
G75*
G02*
X102542200Y-53049000I0J-150000D01*
G01*
X102542200Y-54799000D01*
G75*
G02*
X102392200Y-54949000I-150000J0D01*
G01*
X102092200Y-54949000D01*
G75*
G02*
X101942200Y-54799000I0J150000D01*
G01*
X101942200Y-53049000D01*
G75*
G02*
X102092200Y-52899000I150000J0D01*
G01*
G37*
G36*
G01*
X103362200Y-52899000D02*
X103662200Y-52899000D01*
G75*
G02*
X103812200Y-53049000I0J-150000D01*
G01*
X103812200Y-54799000D01*
G75*
G02*
X103662200Y-54949000I-150000J0D01*
G01*
X103362200Y-54949000D01*
G75*
G02*
X103212200Y-54799000I0J150000D01*
G01*
X103212200Y-53049000D01*
G75*
G02*
X103362200Y-52899000I150000J0D01*
G01*
G37*
G36*
G01*
X104632200Y-52899000D02*
X104932200Y-52899000D01*
G75*
G02*
X105082200Y-53049000I0J-150000D01*
G01*
X105082200Y-54799000D01*
G75*
G02*
X104932200Y-54949000I-150000J0D01*
G01*
X104632200Y-54949000D01*
G75*
G02*
X104482200Y-54799000I0J150000D01*
G01*
X104482200Y-53049000D01*
G75*
G02*
X104632200Y-52899000I150000J0D01*
G01*
G37*
G36*
G01*
X105902200Y-52899000D02*
X106202200Y-52899000D01*
G75*
G02*
X106352200Y-53049000I0J-150000D01*
G01*
X106352200Y-54799000D01*
G75*
G02*
X106202200Y-54949000I-150000J0D01*
G01*
X105902200Y-54949000D01*
G75*
G02*
X105752200Y-54799000I0J150000D01*
G01*
X105752200Y-53049000D01*
G75*
G02*
X105902200Y-52899000I150000J0D01*
G01*
G37*
G36*
G01*
X107172200Y-52899000D02*
X107472200Y-52899000D01*
G75*
G02*
X107622200Y-53049000I0J-150000D01*
G01*
X107622200Y-54799000D01*
G75*
G02*
X107472200Y-54949000I-150000J0D01*
G01*
X107172200Y-54949000D01*
G75*
G02*
X107022200Y-54799000I0J150000D01*
G01*
X107022200Y-53049000D01*
G75*
G02*
X107172200Y-52899000I150000J0D01*
G01*
G37*
G36*
G01*
X108442200Y-52899000D02*
X108742200Y-52899000D01*
G75*
G02*
X108892200Y-53049000I0J-150000D01*
G01*
X108892200Y-54799000D01*
G75*
G02*
X108742200Y-54949000I-150000J0D01*
G01*
X108442200Y-54949000D01*
G75*
G02*
X108292200Y-54799000I0J150000D01*
G01*
X108292200Y-53049000D01*
G75*
G02*
X108442200Y-52899000I150000J0D01*
G01*
G37*
G36*
G01*
X109712200Y-52899000D02*
X110012200Y-52899000D01*
G75*
G02*
X110162200Y-53049000I0J-150000D01*
G01*
X110162200Y-54799000D01*
G75*
G02*
X110012200Y-54949000I-150000J0D01*
G01*
X109712200Y-54949000D01*
G75*
G02*
X109562200Y-54799000I0J150000D01*
G01*
X109562200Y-53049000D01*
G75*
G02*
X109712200Y-52899000I150000J0D01*
G01*
G37*
G36*
G01*
X110982200Y-52899000D02*
X111282200Y-52899000D01*
G75*
G02*
X111432200Y-53049000I0J-150000D01*
G01*
X111432200Y-54799000D01*
G75*
G02*
X111282200Y-54949000I-150000J0D01*
G01*
X110982200Y-54949000D01*
G75*
G02*
X110832200Y-54799000I0J150000D01*
G01*
X110832200Y-53049000D01*
G75*
G02*
X110982200Y-52899000I150000J0D01*
G01*
G37*
G36*
G01*
X112252200Y-52899000D02*
X112552200Y-52899000D01*
G75*
G02*
X112702200Y-53049000I0J-150000D01*
G01*
X112702200Y-54799000D01*
G75*
G02*
X112552200Y-54949000I-150000J0D01*
G01*
X112252200Y-54949000D01*
G75*
G02*
X112102200Y-54799000I0J150000D01*
G01*
X112102200Y-53049000D01*
G75*
G02*
X112252200Y-52899000I150000J0D01*
G01*
G37*
G36*
G01*
X113522200Y-52899000D02*
X113822200Y-52899000D01*
G75*
G02*
X113972200Y-53049000I0J-150000D01*
G01*
X113972200Y-54799000D01*
G75*
G02*
X113822200Y-54949000I-150000J0D01*
G01*
X113522200Y-54949000D01*
G75*
G02*
X113372200Y-54799000I0J150000D01*
G01*
X113372200Y-53049000D01*
G75*
G02*
X113522200Y-52899000I150000J0D01*
G01*
G37*
G36*
G01*
X114792200Y-52899000D02*
X115092200Y-52899000D01*
G75*
G02*
X115242200Y-53049000I0J-150000D01*
G01*
X115242200Y-54799000D01*
G75*
G02*
X115092200Y-54949000I-150000J0D01*
G01*
X114792200Y-54949000D01*
G75*
G02*
X114642200Y-54799000I0J150000D01*
G01*
X114642200Y-53049000D01*
G75*
G02*
X114792200Y-52899000I150000J0D01*
G01*
G37*
G36*
G01*
X116062200Y-52899000D02*
X116362200Y-52899000D01*
G75*
G02*
X116512200Y-53049000I0J-150000D01*
G01*
X116512200Y-54799000D01*
G75*
G02*
X116362200Y-54949000I-150000J0D01*
G01*
X116062200Y-54949000D01*
G75*
G02*
X115912200Y-54799000I0J150000D01*
G01*
X115912200Y-53049000D01*
G75*
G02*
X116062200Y-52899000I150000J0D01*
G01*
G37*
G36*
G01*
X116062200Y-43599000D02*
X116362200Y-43599000D01*
G75*
G02*
X116512200Y-43749000I0J-150000D01*
G01*
X116512200Y-45499000D01*
G75*
G02*
X116362200Y-45649000I-150000J0D01*
G01*
X116062200Y-45649000D01*
G75*
G02*
X115912200Y-45499000I0J150000D01*
G01*
X115912200Y-43749000D01*
G75*
G02*
X116062200Y-43599000I150000J0D01*
G01*
G37*
G36*
G01*
X114792200Y-43599000D02*
X115092200Y-43599000D01*
G75*
G02*
X115242200Y-43749000I0J-150000D01*
G01*
X115242200Y-45499000D01*
G75*
G02*
X115092200Y-45649000I-150000J0D01*
G01*
X114792200Y-45649000D01*
G75*
G02*
X114642200Y-45499000I0J150000D01*
G01*
X114642200Y-43749000D01*
G75*
G02*
X114792200Y-43599000I150000J0D01*
G01*
G37*
G36*
G01*
X113522200Y-43599000D02*
X113822200Y-43599000D01*
G75*
G02*
X113972200Y-43749000I0J-150000D01*
G01*
X113972200Y-45499000D01*
G75*
G02*
X113822200Y-45649000I-150000J0D01*
G01*
X113522200Y-45649000D01*
G75*
G02*
X113372200Y-45499000I0J150000D01*
G01*
X113372200Y-43749000D01*
G75*
G02*
X113522200Y-43599000I150000J0D01*
G01*
G37*
G36*
G01*
X112252200Y-43599000D02*
X112552200Y-43599000D01*
G75*
G02*
X112702200Y-43749000I0J-150000D01*
G01*
X112702200Y-45499000D01*
G75*
G02*
X112552200Y-45649000I-150000J0D01*
G01*
X112252200Y-45649000D01*
G75*
G02*
X112102200Y-45499000I0J150000D01*
G01*
X112102200Y-43749000D01*
G75*
G02*
X112252200Y-43599000I150000J0D01*
G01*
G37*
G36*
G01*
X110982200Y-43599000D02*
X111282200Y-43599000D01*
G75*
G02*
X111432200Y-43749000I0J-150000D01*
G01*
X111432200Y-45499000D01*
G75*
G02*
X111282200Y-45649000I-150000J0D01*
G01*
X110982200Y-45649000D01*
G75*
G02*
X110832200Y-45499000I0J150000D01*
G01*
X110832200Y-43749000D01*
G75*
G02*
X110982200Y-43599000I150000J0D01*
G01*
G37*
G36*
G01*
X109712200Y-43599000D02*
X110012200Y-43599000D01*
G75*
G02*
X110162200Y-43749000I0J-150000D01*
G01*
X110162200Y-45499000D01*
G75*
G02*
X110012200Y-45649000I-150000J0D01*
G01*
X109712200Y-45649000D01*
G75*
G02*
X109562200Y-45499000I0J150000D01*
G01*
X109562200Y-43749000D01*
G75*
G02*
X109712200Y-43599000I150000J0D01*
G01*
G37*
G36*
G01*
X108442200Y-43599000D02*
X108742200Y-43599000D01*
G75*
G02*
X108892200Y-43749000I0J-150000D01*
G01*
X108892200Y-45499000D01*
G75*
G02*
X108742200Y-45649000I-150000J0D01*
G01*
X108442200Y-45649000D01*
G75*
G02*
X108292200Y-45499000I0J150000D01*
G01*
X108292200Y-43749000D01*
G75*
G02*
X108442200Y-43599000I150000J0D01*
G01*
G37*
G36*
G01*
X107172200Y-43599000D02*
X107472200Y-43599000D01*
G75*
G02*
X107622200Y-43749000I0J-150000D01*
G01*
X107622200Y-45499000D01*
G75*
G02*
X107472200Y-45649000I-150000J0D01*
G01*
X107172200Y-45649000D01*
G75*
G02*
X107022200Y-45499000I0J150000D01*
G01*
X107022200Y-43749000D01*
G75*
G02*
X107172200Y-43599000I150000J0D01*
G01*
G37*
G36*
G01*
X105902200Y-43599000D02*
X106202200Y-43599000D01*
G75*
G02*
X106352200Y-43749000I0J-150000D01*
G01*
X106352200Y-45499000D01*
G75*
G02*
X106202200Y-45649000I-150000J0D01*
G01*
X105902200Y-45649000D01*
G75*
G02*
X105752200Y-45499000I0J150000D01*
G01*
X105752200Y-43749000D01*
G75*
G02*
X105902200Y-43599000I150000J0D01*
G01*
G37*
G36*
G01*
X104632200Y-43599000D02*
X104932200Y-43599000D01*
G75*
G02*
X105082200Y-43749000I0J-150000D01*
G01*
X105082200Y-45499000D01*
G75*
G02*
X104932200Y-45649000I-150000J0D01*
G01*
X104632200Y-45649000D01*
G75*
G02*
X104482200Y-45499000I0J150000D01*
G01*
X104482200Y-43749000D01*
G75*
G02*
X104632200Y-43599000I150000J0D01*
G01*
G37*
G36*
G01*
X103362200Y-43599000D02*
X103662200Y-43599000D01*
G75*
G02*
X103812200Y-43749000I0J-150000D01*
G01*
X103812200Y-45499000D01*
G75*
G02*
X103662200Y-45649000I-150000J0D01*
G01*
X103362200Y-45649000D01*
G75*
G02*
X103212200Y-45499000I0J150000D01*
G01*
X103212200Y-43749000D01*
G75*
G02*
X103362200Y-43599000I150000J0D01*
G01*
G37*
G36*
G01*
X102092200Y-43599000D02*
X102392200Y-43599000D01*
G75*
G02*
X102542200Y-43749000I0J-150000D01*
G01*
X102542200Y-45499000D01*
G75*
G02*
X102392200Y-45649000I-150000J0D01*
G01*
X102092200Y-45649000D01*
G75*
G02*
X101942200Y-45499000I0J150000D01*
G01*
X101942200Y-43749000D01*
G75*
G02*
X102092200Y-43599000I150000J0D01*
G01*
G37*
G36*
G01*
X106592800Y-58095400D02*
X106592800Y-59045400D01*
G75*
G02*
X106342800Y-59295400I-250000J0D01*
G01*
X105842800Y-59295400D01*
G75*
G02*
X105592800Y-59045400I0J250000D01*
G01*
X105592800Y-58095400D01*
G75*
G02*
X105842800Y-57845400I250000J0D01*
G01*
X106342800Y-57845400D01*
G75*
G02*
X106592800Y-58095400I0J-250000D01*
G01*
G37*
G36*
G01*
X108492800Y-58095400D02*
X108492800Y-59045400D01*
G75*
G02*
X108242800Y-59295400I-250000J0D01*
G01*
X107742800Y-59295400D01*
G75*
G02*
X107492800Y-59045400I0J250000D01*
G01*
X107492800Y-58095400D01*
G75*
G02*
X107742800Y-57845400I250000J0D01*
G01*
X108242800Y-57845400D01*
G75*
G02*
X108492800Y-58095400I0J-250000D01*
G01*
G37*
G36*
G01*
X86577600Y-58095400D02*
X86577600Y-59045400D01*
G75*
G02*
X86327600Y-59295400I-250000J0D01*
G01*
X85827600Y-59295400D01*
G75*
G02*
X85577600Y-59045400I0J250000D01*
G01*
X85577600Y-58095400D01*
G75*
G02*
X85827600Y-57845400I250000J0D01*
G01*
X86327600Y-57845400D01*
G75*
G02*
X86577600Y-58095400I0J-250000D01*
G01*
G37*
G36*
G01*
X88477600Y-58095400D02*
X88477600Y-59045400D01*
G75*
G02*
X88227600Y-59295400I-250000J0D01*
G01*
X87727600Y-59295400D01*
G75*
G02*
X87477600Y-59045400I0J250000D01*
G01*
X87477600Y-58095400D01*
G75*
G02*
X87727600Y-57845400I250000J0D01*
G01*
X88227600Y-57845400D01*
G75*
G02*
X88477600Y-58095400I0J-250000D01*
G01*
G37*
G36*
G01*
X42046600Y-52899000D02*
X42346600Y-52899000D01*
G75*
G02*
X42496600Y-53049000I0J-150000D01*
G01*
X42496600Y-54799000D01*
G75*
G02*
X42346600Y-54949000I-150000J0D01*
G01*
X42046600Y-54949000D01*
G75*
G02*
X41896600Y-54799000I0J150000D01*
G01*
X41896600Y-53049000D01*
G75*
G02*
X42046600Y-52899000I150000J0D01*
G01*
G37*
G36*
G01*
X43316600Y-52899000D02*
X43616600Y-52899000D01*
G75*
G02*
X43766600Y-53049000I0J-150000D01*
G01*
X43766600Y-54799000D01*
G75*
G02*
X43616600Y-54949000I-150000J0D01*
G01*
X43316600Y-54949000D01*
G75*
G02*
X43166600Y-54799000I0J150000D01*
G01*
X43166600Y-53049000D01*
G75*
G02*
X43316600Y-52899000I150000J0D01*
G01*
G37*
G36*
G01*
X44586600Y-52899000D02*
X44886600Y-52899000D01*
G75*
G02*
X45036600Y-53049000I0J-150000D01*
G01*
X45036600Y-54799000D01*
G75*
G02*
X44886600Y-54949000I-150000J0D01*
G01*
X44586600Y-54949000D01*
G75*
G02*
X44436600Y-54799000I0J150000D01*
G01*
X44436600Y-53049000D01*
G75*
G02*
X44586600Y-52899000I150000J0D01*
G01*
G37*
G36*
G01*
X45856600Y-52899000D02*
X46156600Y-52899000D01*
G75*
G02*
X46306600Y-53049000I0J-150000D01*
G01*
X46306600Y-54799000D01*
G75*
G02*
X46156600Y-54949000I-150000J0D01*
G01*
X45856600Y-54949000D01*
G75*
G02*
X45706600Y-54799000I0J150000D01*
G01*
X45706600Y-53049000D01*
G75*
G02*
X45856600Y-52899000I150000J0D01*
G01*
G37*
G36*
G01*
X47126600Y-52899000D02*
X47426600Y-52899000D01*
G75*
G02*
X47576600Y-53049000I0J-150000D01*
G01*
X47576600Y-54799000D01*
G75*
G02*
X47426600Y-54949000I-150000J0D01*
G01*
X47126600Y-54949000D01*
G75*
G02*
X46976600Y-54799000I0J150000D01*
G01*
X46976600Y-53049000D01*
G75*
G02*
X47126600Y-52899000I150000J0D01*
G01*
G37*
G36*
G01*
X48396600Y-52899000D02*
X48696600Y-52899000D01*
G75*
G02*
X48846600Y-53049000I0J-150000D01*
G01*
X48846600Y-54799000D01*
G75*
G02*
X48696600Y-54949000I-150000J0D01*
G01*
X48396600Y-54949000D01*
G75*
G02*
X48246600Y-54799000I0J150000D01*
G01*
X48246600Y-53049000D01*
G75*
G02*
X48396600Y-52899000I150000J0D01*
G01*
G37*
G36*
G01*
X49666600Y-52899000D02*
X49966600Y-52899000D01*
G75*
G02*
X50116600Y-53049000I0J-150000D01*
G01*
X50116600Y-54799000D01*
G75*
G02*
X49966600Y-54949000I-150000J0D01*
G01*
X49666600Y-54949000D01*
G75*
G02*
X49516600Y-54799000I0J150000D01*
G01*
X49516600Y-53049000D01*
G75*
G02*
X49666600Y-52899000I150000J0D01*
G01*
G37*
G36*
G01*
X50936600Y-52899000D02*
X51236600Y-52899000D01*
G75*
G02*
X51386600Y-53049000I0J-150000D01*
G01*
X51386600Y-54799000D01*
G75*
G02*
X51236600Y-54949000I-150000J0D01*
G01*
X50936600Y-54949000D01*
G75*
G02*
X50786600Y-54799000I0J150000D01*
G01*
X50786600Y-53049000D01*
G75*
G02*
X50936600Y-52899000I150000J0D01*
G01*
G37*
G36*
G01*
X52206600Y-52899000D02*
X52506600Y-52899000D01*
G75*
G02*
X52656600Y-53049000I0J-150000D01*
G01*
X52656600Y-54799000D01*
G75*
G02*
X52506600Y-54949000I-150000J0D01*
G01*
X52206600Y-54949000D01*
G75*
G02*
X52056600Y-54799000I0J150000D01*
G01*
X52056600Y-53049000D01*
G75*
G02*
X52206600Y-52899000I150000J0D01*
G01*
G37*
G36*
G01*
X53476600Y-52899000D02*
X53776600Y-52899000D01*
G75*
G02*
X53926600Y-53049000I0J-150000D01*
G01*
X53926600Y-54799000D01*
G75*
G02*
X53776600Y-54949000I-150000J0D01*
G01*
X53476600Y-54949000D01*
G75*
G02*
X53326600Y-54799000I0J150000D01*
G01*
X53326600Y-53049000D01*
G75*
G02*
X53476600Y-52899000I150000J0D01*
G01*
G37*
G36*
G01*
X54746600Y-52899000D02*
X55046600Y-52899000D01*
G75*
G02*
X55196600Y-53049000I0J-150000D01*
G01*
X55196600Y-54799000D01*
G75*
G02*
X55046600Y-54949000I-150000J0D01*
G01*
X54746600Y-54949000D01*
G75*
G02*
X54596600Y-54799000I0J150000D01*
G01*
X54596600Y-53049000D01*
G75*
G02*
X54746600Y-52899000I150000J0D01*
G01*
G37*
G36*
G01*
X56016600Y-52899000D02*
X56316600Y-52899000D01*
G75*
G02*
X56466600Y-53049000I0J-150000D01*
G01*
X56466600Y-54799000D01*
G75*
G02*
X56316600Y-54949000I-150000J0D01*
G01*
X56016600Y-54949000D01*
G75*
G02*
X55866600Y-54799000I0J150000D01*
G01*
X55866600Y-53049000D01*
G75*
G02*
X56016600Y-52899000I150000J0D01*
G01*
G37*
G36*
G01*
X56016600Y-43599000D02*
X56316600Y-43599000D01*
G75*
G02*
X56466600Y-43749000I0J-150000D01*
G01*
X56466600Y-45499000D01*
G75*
G02*
X56316600Y-45649000I-150000J0D01*
G01*
X56016600Y-45649000D01*
G75*
G02*
X55866600Y-45499000I0J150000D01*
G01*
X55866600Y-43749000D01*
G75*
G02*
X56016600Y-43599000I150000J0D01*
G01*
G37*
G36*
G01*
X54746600Y-43599000D02*
X55046600Y-43599000D01*
G75*
G02*
X55196600Y-43749000I0J-150000D01*
G01*
X55196600Y-45499000D01*
G75*
G02*
X55046600Y-45649000I-150000J0D01*
G01*
X54746600Y-45649000D01*
G75*
G02*
X54596600Y-45499000I0J150000D01*
G01*
X54596600Y-43749000D01*
G75*
G02*
X54746600Y-43599000I150000J0D01*
G01*
G37*
G36*
G01*
X53476600Y-43599000D02*
X53776600Y-43599000D01*
G75*
G02*
X53926600Y-43749000I0J-150000D01*
G01*
X53926600Y-45499000D01*
G75*
G02*
X53776600Y-45649000I-150000J0D01*
G01*
X53476600Y-45649000D01*
G75*
G02*
X53326600Y-45499000I0J150000D01*
G01*
X53326600Y-43749000D01*
G75*
G02*
X53476600Y-43599000I150000J0D01*
G01*
G37*
G36*
G01*
X52206600Y-43599000D02*
X52506600Y-43599000D01*
G75*
G02*
X52656600Y-43749000I0J-150000D01*
G01*
X52656600Y-45499000D01*
G75*
G02*
X52506600Y-45649000I-150000J0D01*
G01*
X52206600Y-45649000D01*
G75*
G02*
X52056600Y-45499000I0J150000D01*
G01*
X52056600Y-43749000D01*
G75*
G02*
X52206600Y-43599000I150000J0D01*
G01*
G37*
G36*
G01*
X50936600Y-43599000D02*
X51236600Y-43599000D01*
G75*
G02*
X51386600Y-43749000I0J-150000D01*
G01*
X51386600Y-45499000D01*
G75*
G02*
X51236600Y-45649000I-150000J0D01*
G01*
X50936600Y-45649000D01*
G75*
G02*
X50786600Y-45499000I0J150000D01*
G01*
X50786600Y-43749000D01*
G75*
G02*
X50936600Y-43599000I150000J0D01*
G01*
G37*
G36*
G01*
X49666600Y-43599000D02*
X49966600Y-43599000D01*
G75*
G02*
X50116600Y-43749000I0J-150000D01*
G01*
X50116600Y-45499000D01*
G75*
G02*
X49966600Y-45649000I-150000J0D01*
G01*
X49666600Y-45649000D01*
G75*
G02*
X49516600Y-45499000I0J150000D01*
G01*
X49516600Y-43749000D01*
G75*
G02*
X49666600Y-43599000I150000J0D01*
G01*
G37*
G36*
G01*
X48396600Y-43599000D02*
X48696600Y-43599000D01*
G75*
G02*
X48846600Y-43749000I0J-150000D01*
G01*
X48846600Y-45499000D01*
G75*
G02*
X48696600Y-45649000I-150000J0D01*
G01*
X48396600Y-45649000D01*
G75*
G02*
X48246600Y-45499000I0J150000D01*
G01*
X48246600Y-43749000D01*
G75*
G02*
X48396600Y-43599000I150000J0D01*
G01*
G37*
G36*
G01*
X47126600Y-43599000D02*
X47426600Y-43599000D01*
G75*
G02*
X47576600Y-43749000I0J-150000D01*
G01*
X47576600Y-45499000D01*
G75*
G02*
X47426600Y-45649000I-150000J0D01*
G01*
X47126600Y-45649000D01*
G75*
G02*
X46976600Y-45499000I0J150000D01*
G01*
X46976600Y-43749000D01*
G75*
G02*
X47126600Y-43599000I150000J0D01*
G01*
G37*
G36*
G01*
X45856600Y-43599000D02*
X46156600Y-43599000D01*
G75*
G02*
X46306600Y-43749000I0J-150000D01*
G01*
X46306600Y-45499000D01*
G75*
G02*
X46156600Y-45649000I-150000J0D01*
G01*
X45856600Y-45649000D01*
G75*
G02*
X45706600Y-45499000I0J150000D01*
G01*
X45706600Y-43749000D01*
G75*
G02*
X45856600Y-43599000I150000J0D01*
G01*
G37*
G36*
G01*
X44586600Y-43599000D02*
X44886600Y-43599000D01*
G75*
G02*
X45036600Y-43749000I0J-150000D01*
G01*
X45036600Y-45499000D01*
G75*
G02*
X44886600Y-45649000I-150000J0D01*
G01*
X44586600Y-45649000D01*
G75*
G02*
X44436600Y-45499000I0J150000D01*
G01*
X44436600Y-43749000D01*
G75*
G02*
X44586600Y-43599000I150000J0D01*
G01*
G37*
G36*
G01*
X43316600Y-43599000D02*
X43616600Y-43599000D01*
G75*
G02*
X43766600Y-43749000I0J-150000D01*
G01*
X43766600Y-45499000D01*
G75*
G02*
X43616600Y-45649000I-150000J0D01*
G01*
X43316600Y-45649000D01*
G75*
G02*
X43166600Y-45499000I0J150000D01*
G01*
X43166600Y-43749000D01*
G75*
G02*
X43316600Y-43599000I150000J0D01*
G01*
G37*
G36*
G01*
X42046600Y-43599000D02*
X42346600Y-43599000D01*
G75*
G02*
X42496600Y-43749000I0J-150000D01*
G01*
X42496600Y-45499000D01*
G75*
G02*
X42346600Y-45649000I-150000J0D01*
G01*
X42046600Y-45649000D01*
G75*
G02*
X41896600Y-45499000I0J150000D01*
G01*
X41896600Y-43749000D01*
G75*
G02*
X42046600Y-43599000I150000J0D01*
G01*
G37*
G36*
G01*
X72238400Y-59020402D02*
X72238400Y-58120398D01*
G75*
G02*
X72488398Y-57870400I249998J0D01*
G01*
X73013402Y-57870400D01*
G75*
G02*
X73263400Y-58120398I0J-249998D01*
G01*
X73263400Y-59020402D01*
G75*
G02*
X73013402Y-59270400I-249998J0D01*
G01*
X72488398Y-59270400D01*
G75*
G02*
X72238400Y-59020402I0J249998D01*
G01*
G37*
G36*
G01*
X70413400Y-59020402D02*
X70413400Y-58120398D01*
G75*
G02*
X70663398Y-57870400I249998J0D01*
G01*
X71188402Y-57870400D01*
G75*
G02*
X71438400Y-58120398I0J-249998D01*
G01*
X71438400Y-59020402D01*
G75*
G02*
X71188402Y-59270400I-249998J0D01*
G01*
X70663398Y-59270400D01*
G75*
G02*
X70413400Y-59020402I0J249998D01*
G01*
G37*
G36*
G01*
X52223200Y-59020402D02*
X52223200Y-58120398D01*
G75*
G02*
X52473198Y-57870400I249998J0D01*
G01*
X52998202Y-57870400D01*
G75*
G02*
X53248200Y-58120398I0J-249998D01*
G01*
X53248200Y-59020402D01*
G75*
G02*
X52998202Y-59270400I-249998J0D01*
G01*
X52473198Y-59270400D01*
G75*
G02*
X52223200Y-59020402I0J249998D01*
G01*
G37*
G36*
G01*
X50398200Y-59020402D02*
X50398200Y-58120398D01*
G75*
G02*
X50648198Y-57870400I249998J0D01*
G01*
X51173202Y-57870400D01*
G75*
G02*
X51423200Y-58120398I0J-249998D01*
G01*
X51423200Y-59020402D01*
G75*
G02*
X51173202Y-59270400I-249998J0D01*
G01*
X50648198Y-59270400D01*
G75*
G02*
X50398200Y-59020402I0J249998D01*
G01*
G37*
G36*
G01*
X62061800Y-52899000D02*
X62361800Y-52899000D01*
G75*
G02*
X62511800Y-53049000I0J-150000D01*
G01*
X62511800Y-54799000D01*
G75*
G02*
X62361800Y-54949000I-150000J0D01*
G01*
X62061800Y-54949000D01*
G75*
G02*
X61911800Y-54799000I0J150000D01*
G01*
X61911800Y-53049000D01*
G75*
G02*
X62061800Y-52899000I150000J0D01*
G01*
G37*
G36*
G01*
X63331800Y-52899000D02*
X63631800Y-52899000D01*
G75*
G02*
X63781800Y-53049000I0J-150000D01*
G01*
X63781800Y-54799000D01*
G75*
G02*
X63631800Y-54949000I-150000J0D01*
G01*
X63331800Y-54949000D01*
G75*
G02*
X63181800Y-54799000I0J150000D01*
G01*
X63181800Y-53049000D01*
G75*
G02*
X63331800Y-52899000I150000J0D01*
G01*
G37*
G36*
G01*
X64601800Y-52899000D02*
X64901800Y-52899000D01*
G75*
G02*
X65051800Y-53049000I0J-150000D01*
G01*
X65051800Y-54799000D01*
G75*
G02*
X64901800Y-54949000I-150000J0D01*
G01*
X64601800Y-54949000D01*
G75*
G02*
X64451800Y-54799000I0J150000D01*
G01*
X64451800Y-53049000D01*
G75*
G02*
X64601800Y-52899000I150000J0D01*
G01*
G37*
G36*
G01*
X65871800Y-52899000D02*
X66171800Y-52899000D01*
G75*
G02*
X66321800Y-53049000I0J-150000D01*
G01*
X66321800Y-54799000D01*
G75*
G02*
X66171800Y-54949000I-150000J0D01*
G01*
X65871800Y-54949000D01*
G75*
G02*
X65721800Y-54799000I0J150000D01*
G01*
X65721800Y-53049000D01*
G75*
G02*
X65871800Y-52899000I150000J0D01*
G01*
G37*
G36*
G01*
X67141800Y-52899000D02*
X67441800Y-52899000D01*
G75*
G02*
X67591800Y-53049000I0J-150000D01*
G01*
X67591800Y-54799000D01*
G75*
G02*
X67441800Y-54949000I-150000J0D01*
G01*
X67141800Y-54949000D01*
G75*
G02*
X66991800Y-54799000I0J150000D01*
G01*
X66991800Y-53049000D01*
G75*
G02*
X67141800Y-52899000I150000J0D01*
G01*
G37*
G36*
G01*
X68411800Y-52899000D02*
X68711800Y-52899000D01*
G75*
G02*
X68861800Y-53049000I0J-150000D01*
G01*
X68861800Y-54799000D01*
G75*
G02*
X68711800Y-54949000I-150000J0D01*
G01*
X68411800Y-54949000D01*
G75*
G02*
X68261800Y-54799000I0J150000D01*
G01*
X68261800Y-53049000D01*
G75*
G02*
X68411800Y-52899000I150000J0D01*
G01*
G37*
G36*
G01*
X69681800Y-52899000D02*
X69981800Y-52899000D01*
G75*
G02*
X70131800Y-53049000I0J-150000D01*
G01*
X70131800Y-54799000D01*
G75*
G02*
X69981800Y-54949000I-150000J0D01*
G01*
X69681800Y-54949000D01*
G75*
G02*
X69531800Y-54799000I0J150000D01*
G01*
X69531800Y-53049000D01*
G75*
G02*
X69681800Y-52899000I150000J0D01*
G01*
G37*
G36*
G01*
X70951800Y-52899000D02*
X71251800Y-52899000D01*
G75*
G02*
X71401800Y-53049000I0J-150000D01*
G01*
X71401800Y-54799000D01*
G75*
G02*
X71251800Y-54949000I-150000J0D01*
G01*
X70951800Y-54949000D01*
G75*
G02*
X70801800Y-54799000I0J150000D01*
G01*
X70801800Y-53049000D01*
G75*
G02*
X70951800Y-52899000I150000J0D01*
G01*
G37*
G36*
G01*
X72221800Y-52899000D02*
X72521800Y-52899000D01*
G75*
G02*
X72671800Y-53049000I0J-150000D01*
G01*
X72671800Y-54799000D01*
G75*
G02*
X72521800Y-54949000I-150000J0D01*
G01*
X72221800Y-54949000D01*
G75*
G02*
X72071800Y-54799000I0J150000D01*
G01*
X72071800Y-53049000D01*
G75*
G02*
X72221800Y-52899000I150000J0D01*
G01*
G37*
G36*
G01*
X73491800Y-52899000D02*
X73791800Y-52899000D01*
G75*
G02*
X73941800Y-53049000I0J-150000D01*
G01*
X73941800Y-54799000D01*
G75*
G02*
X73791800Y-54949000I-150000J0D01*
G01*
X73491800Y-54949000D01*
G75*
G02*
X73341800Y-54799000I0J150000D01*
G01*
X73341800Y-53049000D01*
G75*
G02*
X73491800Y-52899000I150000J0D01*
G01*
G37*
G36*
G01*
X74761800Y-52899000D02*
X75061800Y-52899000D01*
G75*
G02*
X75211800Y-53049000I0J-150000D01*
G01*
X75211800Y-54799000D01*
G75*
G02*
X75061800Y-54949000I-150000J0D01*
G01*
X74761800Y-54949000D01*
G75*
G02*
X74611800Y-54799000I0J150000D01*
G01*
X74611800Y-53049000D01*
G75*
G02*
X74761800Y-52899000I150000J0D01*
G01*
G37*
G36*
G01*
X76031800Y-52899000D02*
X76331800Y-52899000D01*
G75*
G02*
X76481800Y-53049000I0J-150000D01*
G01*
X76481800Y-54799000D01*
G75*
G02*
X76331800Y-54949000I-150000J0D01*
G01*
X76031800Y-54949000D01*
G75*
G02*
X75881800Y-54799000I0J150000D01*
G01*
X75881800Y-53049000D01*
G75*
G02*
X76031800Y-52899000I150000J0D01*
G01*
G37*
G36*
G01*
X76031800Y-43599000D02*
X76331800Y-43599000D01*
G75*
G02*
X76481800Y-43749000I0J-150000D01*
G01*
X76481800Y-45499000D01*
G75*
G02*
X76331800Y-45649000I-150000J0D01*
G01*
X76031800Y-45649000D01*
G75*
G02*
X75881800Y-45499000I0J150000D01*
G01*
X75881800Y-43749000D01*
G75*
G02*
X76031800Y-43599000I150000J0D01*
G01*
G37*
G36*
G01*
X74761800Y-43599000D02*
X75061800Y-43599000D01*
G75*
G02*
X75211800Y-43749000I0J-150000D01*
G01*
X75211800Y-45499000D01*
G75*
G02*
X75061800Y-45649000I-150000J0D01*
G01*
X74761800Y-45649000D01*
G75*
G02*
X74611800Y-45499000I0J150000D01*
G01*
X74611800Y-43749000D01*
G75*
G02*
X74761800Y-43599000I150000J0D01*
G01*
G37*
G36*
G01*
X73491800Y-43599000D02*
X73791800Y-43599000D01*
G75*
G02*
X73941800Y-43749000I0J-150000D01*
G01*
X73941800Y-45499000D01*
G75*
G02*
X73791800Y-45649000I-150000J0D01*
G01*
X73491800Y-45649000D01*
G75*
G02*
X73341800Y-45499000I0J150000D01*
G01*
X73341800Y-43749000D01*
G75*
G02*
X73491800Y-43599000I150000J0D01*
G01*
G37*
G36*
G01*
X72221800Y-43599000D02*
X72521800Y-43599000D01*
G75*
G02*
X72671800Y-43749000I0J-150000D01*
G01*
X72671800Y-45499000D01*
G75*
G02*
X72521800Y-45649000I-150000J0D01*
G01*
X72221800Y-45649000D01*
G75*
G02*
X72071800Y-45499000I0J150000D01*
G01*
X72071800Y-43749000D01*
G75*
G02*
X72221800Y-43599000I150000J0D01*
G01*
G37*
G36*
G01*
X70951800Y-43599000D02*
X71251800Y-43599000D01*
G75*
G02*
X71401800Y-43749000I0J-150000D01*
G01*
X71401800Y-45499000D01*
G75*
G02*
X71251800Y-45649000I-150000J0D01*
G01*
X70951800Y-45649000D01*
G75*
G02*
X70801800Y-45499000I0J150000D01*
G01*
X70801800Y-43749000D01*
G75*
G02*
X70951800Y-43599000I150000J0D01*
G01*
G37*
G36*
G01*
X69681800Y-43599000D02*
X69981800Y-43599000D01*
G75*
G02*
X70131800Y-43749000I0J-150000D01*
G01*
X70131800Y-45499000D01*
G75*
G02*
X69981800Y-45649000I-150000J0D01*
G01*
X69681800Y-45649000D01*
G75*
G02*
X69531800Y-45499000I0J150000D01*
G01*
X69531800Y-43749000D01*
G75*
G02*
X69681800Y-43599000I150000J0D01*
G01*
G37*
G36*
G01*
X68411800Y-43599000D02*
X68711800Y-43599000D01*
G75*
G02*
X68861800Y-43749000I0J-150000D01*
G01*
X68861800Y-45499000D01*
G75*
G02*
X68711800Y-45649000I-150000J0D01*
G01*
X68411800Y-45649000D01*
G75*
G02*
X68261800Y-45499000I0J150000D01*
G01*
X68261800Y-43749000D01*
G75*
G02*
X68411800Y-43599000I150000J0D01*
G01*
G37*
G36*
G01*
X67141800Y-43599000D02*
X67441800Y-43599000D01*
G75*
G02*
X67591800Y-43749000I0J-150000D01*
G01*
X67591800Y-45499000D01*
G75*
G02*
X67441800Y-45649000I-150000J0D01*
G01*
X67141800Y-45649000D01*
G75*
G02*
X66991800Y-45499000I0J150000D01*
G01*
X66991800Y-43749000D01*
G75*
G02*
X67141800Y-43599000I150000J0D01*
G01*
G37*
G36*
G01*
X65871800Y-43599000D02*
X66171800Y-43599000D01*
G75*
G02*
X66321800Y-43749000I0J-150000D01*
G01*
X66321800Y-45499000D01*
G75*
G02*
X66171800Y-45649000I-150000J0D01*
G01*
X65871800Y-45649000D01*
G75*
G02*
X65721800Y-45499000I0J150000D01*
G01*
X65721800Y-43749000D01*
G75*
G02*
X65871800Y-43599000I150000J0D01*
G01*
G37*
G36*
G01*
X64601800Y-43599000D02*
X64901800Y-43599000D01*
G75*
G02*
X65051800Y-43749000I0J-150000D01*
G01*
X65051800Y-45499000D01*
G75*
G02*
X64901800Y-45649000I-150000J0D01*
G01*
X64601800Y-45649000D01*
G75*
G02*
X64451800Y-45499000I0J150000D01*
G01*
X64451800Y-43749000D01*
G75*
G02*
X64601800Y-43599000I150000J0D01*
G01*
G37*
G36*
G01*
X63331800Y-43599000D02*
X63631800Y-43599000D01*
G75*
G02*
X63781800Y-43749000I0J-150000D01*
G01*
X63781800Y-45499000D01*
G75*
G02*
X63631800Y-45649000I-150000J0D01*
G01*
X63331800Y-45649000D01*
G75*
G02*
X63181800Y-45499000I0J150000D01*
G01*
X63181800Y-43749000D01*
G75*
G02*
X63331800Y-43599000I150000J0D01*
G01*
G37*
G36*
G01*
X62061800Y-43599000D02*
X62361800Y-43599000D01*
G75*
G02*
X62511800Y-43749000I0J-150000D01*
G01*
X62511800Y-45499000D01*
G75*
G02*
X62361800Y-45649000I-150000J0D01*
G01*
X62061800Y-45649000D01*
G75*
G02*
X61911800Y-45499000I0J150000D01*
G01*
X61911800Y-43749000D01*
G75*
G02*
X62061800Y-43599000I150000J0D01*
G01*
G37*
G36*
G01*
X66562400Y-58095400D02*
X66562400Y-59045400D01*
G75*
G02*
X66312400Y-59295400I-250000J0D01*
G01*
X65812400Y-59295400D01*
G75*
G02*
X65562400Y-59045400I0J250000D01*
G01*
X65562400Y-58095400D01*
G75*
G02*
X65812400Y-57845400I250000J0D01*
G01*
X66312400Y-57845400D01*
G75*
G02*
X66562400Y-58095400I0J-250000D01*
G01*
G37*
G36*
G01*
X68462400Y-58095400D02*
X68462400Y-59045400D01*
G75*
G02*
X68212400Y-59295400I-250000J0D01*
G01*
X67712400Y-59295400D01*
G75*
G02*
X67462400Y-59045400I0J250000D01*
G01*
X67462400Y-58095400D01*
G75*
G02*
X67712400Y-57845400I250000J0D01*
G01*
X68212400Y-57845400D01*
G75*
G02*
X68462400Y-58095400I0J-250000D01*
G01*
G37*
G36*
G01*
X46547200Y-58095400D02*
X46547200Y-59045400D01*
G75*
G02*
X46297200Y-59295400I-250000J0D01*
G01*
X45797200Y-59295400D01*
G75*
G02*
X45547200Y-59045400I0J250000D01*
G01*
X45547200Y-58095400D01*
G75*
G02*
X45797200Y-57845400I250000J0D01*
G01*
X46297200Y-57845400D01*
G75*
G02*
X46547200Y-58095400I0J-250000D01*
G01*
G37*
G36*
G01*
X48447200Y-58095400D02*
X48447200Y-59045400D01*
G75*
G02*
X48197200Y-59295400I-250000J0D01*
G01*
X47697200Y-59295400D01*
G75*
G02*
X47447200Y-59045400I0J250000D01*
G01*
X47447200Y-58095400D01*
G75*
G02*
X47697200Y-57845400I250000J0D01*
G01*
X48197200Y-57845400D01*
G75*
G02*
X48447200Y-58095400I0J-250000D01*
G01*
G37*
M02*
